; NON-PLATED HOLES START AT T1
; THROUGH (PLATED) HOLES START AT T100
M48
INCH
T100C0.037694
T101C0.043307
T102C0.037750
T103C0.100000
T104C0.038007
T105C0.038000
T106C0.037722
T107C0.037396
T108C0.015748
T109C0.038035
%
T100
X019869Y043523
X016350Y004605
X039869Y043523
X016350Y005605
X009869Y042523
X049869Y042523
X029869Y047523
X016350Y009605
X026350Y004604
X009869Y047523
X049869Y047523
X029869Y042523
X006350Y005605
X046350Y005605
X026350Y009605
X019869Y042523
X039869Y047523
X036351Y004605
X006350Y009605
X046350Y009605
X026350Y005605
X019869Y047523
X039869Y042523
X049869Y043523
X036351Y005605
X009869Y043523
X006350Y004605
X046350Y004605
X029869Y043523
X036351Y009605
T101
X007369Y025023
X008369Y021523
X006369Y024023
X009369Y021523
X008369Y032523
X007369Y024023
X006369Y025023
X007369Y032523
X008369Y024023
X006369Y021523
X007369Y021523
X008369Y025023
X006369Y032523
X006369Y027523
X006369Y031523
X008369Y028523
X007369Y027523
X007369Y031523
X007369Y028523
X008369Y031523
X008369Y027523
X006369Y028523
T102
X046350Y003605
X004869Y044523
X011350Y007605
X044869Y041523
X034869Y047523
X039869Y045523
X001350Y010605
X026350Y007604
X024869Y041523
X011350Y003604
X034869Y045523
X041350Y009605
X031350Y006605
X029869Y041523
X036351Y007605
X021350Y009605
X049869Y041523
X034869Y046523
X011350Y010605
X001350Y003604
X031350Y008605
X014869Y044523
X001350Y007605
X031350Y007605
X001350Y008605
X014869Y047523
X004869Y046523
X036351Y003605
X031350Y003604
X019869Y045523
X001350Y006605
X004869Y045523
X014869Y046523
X004869Y047523
X031350Y010605
X009869Y045523
X014869Y045523
X011350Y006605
X026350Y003604
X024869Y048523
X046350Y007605
X011350Y008605
X044869Y048523
X034869Y044523
X044869Y044523
X034869Y048523
X006350Y003605
X024869Y044523
X011350Y009605
X004869Y041523
X021350Y010605
X019869Y041523
X041350Y010605
X001350Y009605
X014869Y041523
X021350Y003604
X009869Y041523
X041350Y003604
X021350Y006604
X016350Y003605
X041350Y007605
X021350Y008605
X016350Y007605
X041350Y008605
X014869Y048523
X024869Y045523
X044869Y046523
X039869Y041523
X021350Y007604
X044869Y045523
X041350Y006605
X031350Y009605
X024869Y046523
X044869Y047523
X049869Y045523
X024869Y047523
X029869Y045523
X034869Y041523
X006350Y007605
X004869Y048523
T103
X056769Y026223
X054869Y027423
X054869Y025023
T104
X046869Y016023
X022869Y016023
X027869Y016023
X030869Y016023
X045869Y016023
X026869Y016023
X042869Y016023
X025869Y016023
X023869Y016023
X021869Y016023
X043869Y016023
X034870Y016023
X041869Y016023
X028869Y016023
X044870Y016023
X033869Y016023
X031869Y016023
X024869Y016023
X032869Y016023
X039870Y016023
X037869Y016023
X036869Y016023
X035869Y016023
X040869Y016023
T105
X028350Y007604
X038350Y005605
X031869Y044523
X011869Y043523
X048350Y006605
X008350Y006605
X038350Y007605
X009369Y019523
X051869Y044523
X011869Y046523
X028350Y005604
X048350Y008605
X008350Y008605
X011869Y045523
X021869Y045523
X041869Y046523
X041869Y045523
X021869Y046523
X018350Y008605
X021869Y043523
X041869Y043523
X018350Y006605
X031869Y043523
X011869Y044523
X051869Y046523
X051869Y045523
X018350Y005605
X031869Y045523
X008369Y019540
X018350Y007605
X051869Y043523
X031869Y046523
X038350Y008605
X028350Y006604
X048350Y007605
X008350Y007605
X041869Y044523
X038350Y006605
X028350Y008604
X021869Y044523
X048350Y005605
X008350Y005605
T106
X006350Y008605
X046350Y008605
X036351Y010605
X031350Y004605
X026350Y008605
X019869Y044523
X006350Y006605
X034869Y042523
X046350Y006605
X039869Y046523
X021350Y004604
X011350Y005605
X016350Y006605
X041350Y005605
X001350Y005605
X016350Y008605
X029869Y044523
X034869Y043523
X039869Y048523
X049869Y044523
X009869Y044523
X039869Y044523
X049869Y048523
X009869Y048523
X021350Y005604
X036351Y006605
X024869Y043523
X029869Y048523
X044869Y043523
X004869Y043523
X011350Y004605
X031350Y005605
X036351Y008605
X046350Y010605
X006350Y010605
X014869Y042523
X019869Y046523
X026350Y010605
X024869Y042523
X029869Y046523
X016350Y010605
X004869Y042523
X044869Y042523
X009869Y046523
X049869Y046523
X019869Y048523
X026350Y006604
X041350Y004605
X001350Y004605
X014869Y043523
T107
X047869Y034023
X048869Y033023
X048869Y028023
X047869Y027023
X047869Y021023
X048869Y027023
X048869Y021023
X047869Y033023
X048869Y034023
X047869Y028023
X048869Y031023
X048869Y029023
X048869Y024023
X047869Y023023
X048869Y023023
X047869Y024023
X047869Y029023
X047869Y031023
X047869Y019023
X047869Y032023
X047869Y020023
X047869Y035023
X048869Y020023
X048869Y035023
X048869Y032023
X048869Y019023
X048869Y022023
X047869Y018023
X048869Y025023
X048869Y030023
X048869Y026023
X047869Y026023
X047869Y025023
X047869Y030023
X048869Y018023
X047869Y022023
T108
X042869Y015023
X053369Y048023
X019875Y038540
X028869Y015023
X056369Y048023
X008869Y038523
X012869Y016523
X032869Y015023
X011869Y016523
T109
X030869Y035023
X023270Y035023
X020269Y035023
X042869Y035023
X028869Y035023
X024269Y035023
X029869Y035023
X019269Y035023
X041869Y035023
X043869Y035023
X034870Y035023
X031869Y035023
X044870Y035023
X033869Y035023
X038869Y035023
X018270Y035023
X021269Y035023
X025269Y035023
X037869Y035023
X032869Y035023
X026269Y035023
X039870Y035023
X027269Y035023
X035869Y035023
X040869Y035023
X022269Y035023
T00
M30
