G04 MADE WITH FRITZING*
G04 WWW.FRITZING.ORG*
G04 DOUBLE SIDED*
G04 HOLES PLATED*
G04 CONTOUR ON CENTER OF CONTOUR VECTOR*
%ASAXBY*%
%FSLAX23Y23*%
%MOIN*%
%OFA0B0*%
%SFA1.0B1.0*%
%ADD10C,0.066604*%
%ADD11C,0.066632*%
%ADD12C,0.065993*%
%ADD13C,0.078000*%
%ADD14C,0.083307*%
%ADD15C,0.039370*%
%ADD16C,0.072472*%
%ADD17C,0.072445*%
%ADD18C,0.072417*%
%ADD19C,0.140000*%
%ADD20C,0.024000*%
%ADD21C,0.100000*%
%ADD22C,0.020000*%
%ADD23R,0.001000X0.001000*%
%LNCOPPER0*%
G90*
G70*
G54D10*
X3987Y1602D03*
X4087Y1602D03*
X4187Y1602D03*
X4287Y1602D03*
X4387Y1602D03*
X4487Y1602D03*
X4587Y1602D03*
X4687Y1602D03*
X3087Y1602D03*
X3187Y1602D03*
X3287Y1602D03*
X3387Y1602D03*
X3487Y1602D03*
X3587Y1602D03*
X3687Y1602D03*
X3787Y1602D03*
G54D11*
X3787Y3502D03*
X3887Y3502D03*
X3987Y3502D03*
X4087Y3502D03*
X4187Y3502D03*
X4287Y3502D03*
X4387Y3502D03*
X4487Y3502D03*
G54D10*
X2187Y1602D03*
X2287Y1602D03*
X2387Y1602D03*
X2487Y1602D03*
X2587Y1602D03*
X2687Y1602D03*
X2787Y1602D03*
X2887Y1602D03*
G54D11*
X2727Y3502D03*
X2627Y3502D03*
X2527Y3502D03*
X2427Y3502D03*
X2327Y3502D03*
X2227Y3502D03*
X2127Y3502D03*
X2027Y3502D03*
X1927Y3502D03*
X1827Y3502D03*
X3587Y3502D03*
X3487Y3502D03*
X3387Y3502D03*
X3287Y3502D03*
X3187Y3502D03*
X3087Y3502D03*
X2987Y3502D03*
X2887Y3502D03*
G54D12*
X4787Y3502D03*
X4887Y3502D03*
X4787Y3402D03*
X4887Y3402D03*
X4787Y3302D03*
X4887Y3302D03*
X4787Y3202D03*
X4887Y3202D03*
X4787Y3102D03*
X4887Y3102D03*
X4787Y3002D03*
X4887Y3002D03*
X4787Y2902D03*
X4887Y2902D03*
X4787Y2802D03*
X4887Y2802D03*
X4787Y2702D03*
X4887Y2702D03*
X4787Y2602D03*
X4887Y2602D03*
X4787Y2502D03*
X4887Y2502D03*
X4787Y2402D03*
X4887Y2402D03*
X4787Y2302D03*
X4887Y2302D03*
X4787Y2202D03*
X4887Y2202D03*
X4787Y2102D03*
X4887Y2102D03*
X4787Y2002D03*
X4887Y2002D03*
X4787Y1902D03*
X4887Y1902D03*
X4787Y1802D03*
X4887Y1802D03*
G54D13*
X3835Y861D03*
X3835Y761D03*
X3835Y661D03*
X3835Y561D03*
X2835Y860D03*
X2835Y760D03*
X2835Y660D03*
X2835Y560D03*
X1835Y861D03*
X1835Y761D03*
X1835Y661D03*
X1835Y561D03*
X835Y861D03*
X835Y761D03*
X835Y661D03*
X835Y561D03*
X4187Y4652D03*
X4187Y4552D03*
X4187Y4452D03*
X4187Y4352D03*
X3187Y4652D03*
X3187Y4552D03*
X3187Y4452D03*
X3187Y4352D03*
X4835Y861D03*
X4835Y761D03*
X4835Y661D03*
X4835Y561D03*
X5187Y4652D03*
X5187Y4552D03*
X5187Y4452D03*
X5187Y4352D03*
X2187Y4652D03*
X2187Y4552D03*
X2187Y4452D03*
X2187Y4352D03*
X1187Y4652D03*
X1187Y4552D03*
X1187Y4452D03*
X1187Y4352D03*
G54D14*
X837Y2502D03*
X737Y2502D03*
X637Y2502D03*
X837Y2502D03*
X737Y2502D03*
X637Y2502D03*
X637Y2402D03*
X737Y2402D03*
X837Y2402D03*
X837Y2852D03*
X737Y2852D03*
X637Y2852D03*
X837Y2852D03*
X737Y2852D03*
X637Y2852D03*
X637Y2752D03*
X737Y2752D03*
X837Y2752D03*
X837Y3252D03*
X737Y3252D03*
X637Y3252D03*
X837Y3252D03*
X737Y3252D03*
X637Y3252D03*
X637Y3152D03*
X737Y3152D03*
X837Y3152D03*
X937Y2152D03*
X837Y2152D03*
X737Y2152D03*
X637Y2152D03*
G54D13*
X937Y1952D03*
X837Y1954D03*
G54D15*
X5337Y4802D03*
X5637Y4802D03*
X887Y3852D03*
X1988Y3854D03*
X4287Y1502D03*
X3287Y1502D03*
X2887Y1502D03*
X1287Y1652D03*
X1187Y1652D03*
G54D16*
X3635Y361D03*
X3135Y1061D03*
X3135Y961D03*
X3135Y861D03*
X3135Y761D03*
X3135Y661D03*
G54D17*
X3135Y561D03*
X3135Y461D03*
G54D16*
X3135Y360D03*
G54D17*
X3635Y1061D03*
G54D18*
X3635Y961D03*
G54D17*
X3635Y861D03*
G54D16*
X3635Y761D03*
G54D17*
X3635Y661D03*
G54D18*
X3635Y561D03*
X3635Y461D03*
G54D16*
X2635Y360D03*
X2135Y1061D03*
X2135Y961D03*
X2135Y861D03*
X2135Y760D03*
X2135Y660D03*
G54D17*
X2135Y560D03*
X2135Y460D03*
G54D16*
X2135Y360D03*
G54D17*
X2635Y1061D03*
G54D18*
X2635Y961D03*
G54D17*
X2635Y861D03*
G54D16*
X2635Y760D03*
G54D17*
X2635Y660D03*
G54D18*
X2635Y561D03*
X2635Y460D03*
G54D16*
X1635Y361D03*
X1135Y1061D03*
X1135Y961D03*
X1135Y861D03*
X1135Y761D03*
X1135Y661D03*
G54D17*
X1135Y561D03*
X1135Y461D03*
G54D16*
X1135Y360D03*
G54D17*
X1635Y1061D03*
G54D18*
X1635Y961D03*
G54D17*
X1635Y861D03*
G54D16*
X1635Y761D03*
G54D17*
X1635Y661D03*
G54D18*
X1635Y561D03*
X1635Y461D03*
G54D16*
X635Y361D03*
X135Y1061D03*
X135Y961D03*
X135Y861D03*
X135Y761D03*
X135Y661D03*
G54D17*
X135Y561D03*
X135Y461D03*
G54D16*
X135Y360D03*
G54D17*
X635Y1061D03*
G54D18*
X635Y961D03*
G54D17*
X635Y861D03*
G54D16*
X635Y761D03*
G54D17*
X635Y661D03*
G54D18*
X635Y561D03*
X635Y461D03*
G54D16*
X3987Y4152D03*
X3487Y4852D03*
X3487Y4752D03*
X3487Y4652D03*
X3487Y4552D03*
X3487Y4452D03*
G54D17*
X3487Y4352D03*
X3487Y4252D03*
G54D16*
X3487Y4152D03*
G54D17*
X3987Y4852D03*
G54D18*
X3987Y4752D03*
G54D17*
X3987Y4652D03*
G54D16*
X3987Y4552D03*
G54D17*
X3987Y4452D03*
G54D18*
X3987Y4352D03*
X3987Y4252D03*
G54D16*
X2987Y4152D03*
X2487Y4852D03*
X2487Y4752D03*
X2487Y4652D03*
X2487Y4552D03*
X2487Y4452D03*
G54D17*
X2487Y4352D03*
X2487Y4252D03*
G54D16*
X2487Y4152D03*
G54D17*
X2987Y4852D03*
G54D18*
X2987Y4752D03*
G54D17*
X2987Y4652D03*
G54D16*
X2987Y4552D03*
G54D17*
X2987Y4452D03*
G54D18*
X2987Y4352D03*
X2987Y4252D03*
G54D16*
X4635Y361D03*
X4135Y1061D03*
X4135Y961D03*
X4135Y861D03*
X4135Y761D03*
X4135Y661D03*
G54D17*
X4135Y561D03*
X4135Y461D03*
G54D16*
X4135Y360D03*
G54D17*
X4635Y1061D03*
G54D18*
X4635Y961D03*
G54D17*
X4635Y861D03*
G54D16*
X4635Y761D03*
G54D17*
X4635Y661D03*
G54D18*
X4635Y561D03*
X4635Y461D03*
G54D16*
X4987Y4152D03*
X4487Y4852D03*
X4487Y4752D03*
X4487Y4652D03*
X4487Y4552D03*
X4487Y4452D03*
G54D17*
X4487Y4352D03*
X4487Y4252D03*
G54D16*
X4487Y4152D03*
G54D17*
X4987Y4852D03*
G54D18*
X4987Y4752D03*
G54D17*
X4987Y4652D03*
G54D16*
X4987Y4552D03*
G54D17*
X4987Y4452D03*
G54D18*
X4987Y4352D03*
X4987Y4252D03*
G54D16*
X1987Y4152D03*
X1487Y4852D03*
X1487Y4752D03*
X1487Y4652D03*
X1487Y4552D03*
X1487Y4452D03*
G54D17*
X1487Y4352D03*
X1487Y4252D03*
G54D16*
X1487Y4152D03*
G54D17*
X1987Y4852D03*
G54D18*
X1987Y4752D03*
G54D17*
X1987Y4652D03*
G54D16*
X1987Y4552D03*
G54D17*
X1987Y4452D03*
G54D18*
X1987Y4352D03*
X1987Y4252D03*
G54D16*
X987Y4152D03*
X487Y4852D03*
X487Y4752D03*
X487Y4652D03*
X487Y4552D03*
X487Y4452D03*
G54D17*
X487Y4352D03*
X487Y4252D03*
G54D16*
X487Y4152D03*
G54D17*
X987Y4852D03*
G54D18*
X987Y4752D03*
G54D17*
X987Y4652D03*
G54D16*
X987Y4552D03*
G54D17*
X987Y4452D03*
G54D18*
X987Y4352D03*
X987Y4252D03*
G54D19*
X5487Y2742D03*
X5487Y2502D03*
X5677Y2622D03*
G54D20*
X5089Y3404D02*
X4906Y3403D01*
D02*
X5088Y3654D02*
X5089Y3404D01*
D02*
X489Y3654D02*
X5088Y3654D01*
D02*
X487Y4133D02*
X489Y3654D01*
D02*
X5138Y3303D02*
X4906Y3302D01*
D02*
X5138Y3703D02*
X5138Y3303D01*
D02*
X1530Y3708D02*
X5138Y3703D01*
D02*
X1537Y4153D02*
X1530Y3708D01*
D02*
X1506Y4152D02*
X1537Y4153D01*
D02*
X5186Y3203D02*
X5186Y3751D01*
D02*
X5186Y3751D02*
X2485Y3752D01*
D02*
X2485Y3752D02*
X2487Y4133D01*
D02*
X4906Y3202D02*
X5186Y3203D01*
D02*
X3488Y3802D02*
X3487Y4133D01*
D02*
X5237Y3802D02*
X3488Y3802D01*
D02*
X5237Y3101D02*
X5237Y3802D01*
D02*
X4906Y3102D02*
X5237Y3101D01*
D02*
X4487Y3853D02*
X4487Y4133D01*
D02*
X5288Y3853D02*
X4487Y3853D01*
D02*
X5288Y3002D02*
X5288Y3853D01*
D02*
X4906Y3002D02*
X5288Y3002D01*
G54D21*
D02*
X5629Y4802D02*
X5345Y4802D01*
G54D20*
D02*
X1887Y2950D02*
X1889Y1752D01*
D02*
X1889Y1752D02*
X638Y1753D01*
D02*
X3387Y2950D02*
X1887Y2950D01*
D02*
X638Y1753D02*
X637Y2131D01*
D02*
X3387Y3483D02*
X3387Y2950D01*
D02*
X1788Y1802D02*
X736Y1802D01*
D02*
X1787Y3054D02*
X1788Y1802D01*
D02*
X3287Y3050D02*
X1787Y3054D01*
D02*
X736Y1802D02*
X737Y2131D01*
D02*
X3287Y3483D02*
X3287Y3050D01*
D02*
X1687Y1850D02*
X837Y1851D01*
D02*
X1687Y3150D02*
X1687Y1850D01*
D02*
X2887Y3150D02*
X1687Y3150D01*
D02*
X837Y1851D02*
X837Y1935D01*
D02*
X2887Y3483D02*
X2887Y3150D01*
D02*
X5085Y254D02*
X5085Y1901D01*
D02*
X5085Y1901D02*
X4906Y1902D01*
D02*
X4137Y254D02*
X5085Y254D01*
D02*
X4135Y342D02*
X4137Y254D01*
D02*
X3136Y202D02*
X5136Y202D01*
D02*
X5136Y202D02*
X5136Y2003D01*
D02*
X3135Y342D02*
X3136Y202D01*
D02*
X5136Y2003D02*
X4906Y2002D01*
D02*
X2136Y153D02*
X5188Y151D01*
D02*
X5188Y151D02*
X5188Y2102D01*
D02*
X2135Y342D02*
X2136Y153D01*
D02*
X5188Y2102D02*
X4906Y2102D01*
D02*
X1138Y104D02*
X5239Y104D01*
D02*
X5239Y104D02*
X5239Y2200D01*
D02*
X1135Y342D02*
X1138Y104D01*
D02*
X5239Y2200D02*
X4906Y2202D01*
D02*
X5286Y53D02*
X137Y51D01*
D02*
X137Y51D02*
X135Y342D01*
D02*
X5286Y2303D02*
X5286Y53D01*
D02*
X4906Y2302D02*
X5286Y2303D01*
D02*
X887Y3860D02*
X888Y4154D01*
D02*
X888Y4154D02*
X968Y4153D01*
D02*
X1987Y4133D02*
X1988Y3862D01*
D02*
X1287Y450D02*
X1287Y1644D01*
D02*
X1154Y459D02*
X1287Y450D01*
D02*
X2287Y1502D02*
X2879Y1502D01*
D02*
X2287Y450D02*
X2287Y1502D01*
D02*
X2154Y459D02*
X2287Y450D01*
D02*
X3287Y454D02*
X3287Y1494D01*
D02*
X3154Y460D02*
X3287Y454D01*
D02*
X4287Y454D02*
X4287Y1494D01*
D02*
X4154Y460D02*
X4287Y454D01*
D02*
X336Y1502D02*
X1186Y1502D01*
D02*
X1186Y1502D02*
X1187Y1644D01*
D02*
X339Y454D02*
X336Y1502D01*
D02*
X154Y460D02*
X339Y454D01*
D02*
X5036Y303D02*
X5039Y1802D01*
D02*
X5039Y1802D02*
X4906Y1802D01*
D02*
X4638Y303D02*
X5036Y303D01*
D02*
X4636Y342D02*
X4638Y303D01*
G54D22*
X965Y1923D02*
X907Y1924D01*
X908Y1982D01*
X966Y1981D01*
X965Y1923D01*
D02*
G54D23*
X484Y4288D02*
X491Y4288D01*
X984Y4288D02*
X991Y4288D01*
X1484Y4288D02*
X1491Y4288D01*
X1984Y4288D02*
X1991Y4288D01*
X2484Y4288D02*
X2491Y4288D01*
X2984Y4288D02*
X2991Y4288D01*
X3484Y4288D02*
X3491Y4288D01*
X3984Y4288D02*
X3991Y4288D01*
X4484Y4288D02*
X4491Y4288D01*
X4984Y4288D02*
X4991Y4288D01*
X479Y4287D02*
X496Y4287D01*
X979Y4287D02*
X996Y4287D01*
X1479Y4287D02*
X1496Y4287D01*
X1979Y4287D02*
X1996Y4287D01*
X2479Y4287D02*
X2496Y4287D01*
X2979Y4287D02*
X2996Y4287D01*
X3479Y4287D02*
X3496Y4287D01*
X3979Y4287D02*
X3996Y4287D01*
X4479Y4287D02*
X4496Y4287D01*
X4979Y4287D02*
X4996Y4287D01*
X476Y4286D02*
X499Y4286D01*
X976Y4286D02*
X999Y4286D01*
X1476Y4286D02*
X1499Y4286D01*
X1976Y4286D02*
X1999Y4286D01*
X2476Y4286D02*
X2499Y4286D01*
X2976Y4286D02*
X2999Y4286D01*
X3476Y4286D02*
X3499Y4286D01*
X3976Y4286D02*
X3999Y4286D01*
X4476Y4286D02*
X4499Y4286D01*
X4976Y4286D02*
X4999Y4286D01*
X473Y4285D02*
X502Y4285D01*
X973Y4285D02*
X1002Y4285D01*
X1473Y4285D02*
X1502Y4285D01*
X1973Y4285D02*
X2001Y4285D01*
X2473Y4285D02*
X2501Y4285D01*
X2973Y4285D02*
X3001Y4285D01*
X3473Y4285D02*
X3501Y4285D01*
X3973Y4285D02*
X4001Y4285D01*
X4473Y4285D02*
X4501Y4285D01*
X4973Y4285D02*
X5001Y4285D01*
X471Y4284D02*
X504Y4284D01*
X971Y4284D02*
X1004Y4284D01*
X1471Y4284D02*
X1504Y4284D01*
X1971Y4284D02*
X2004Y4284D01*
X2471Y4284D02*
X2504Y4284D01*
X2971Y4284D02*
X3003Y4284D01*
X3471Y4284D02*
X3504Y4284D01*
X3971Y4284D02*
X4003Y4284D01*
X4471Y4284D02*
X4503Y4284D01*
X4971Y4284D02*
X5003Y4284D01*
X469Y4283D02*
X505Y4283D01*
X969Y4283D02*
X1005Y4283D01*
X1469Y4283D02*
X1505Y4283D01*
X1969Y4283D02*
X2005Y4283D01*
X2469Y4283D02*
X2505Y4283D01*
X2969Y4283D02*
X3005Y4283D01*
X3469Y4283D02*
X3505Y4283D01*
X3969Y4283D02*
X4005Y4283D01*
X4469Y4283D02*
X4505Y4283D01*
X4969Y4283D02*
X5005Y4283D01*
X468Y4282D02*
X507Y4282D01*
X968Y4282D02*
X1007Y4282D01*
X1468Y4282D02*
X1507Y4282D01*
X1968Y4282D02*
X2007Y4282D01*
X2468Y4282D02*
X2507Y4282D01*
X2968Y4282D02*
X3007Y4282D01*
X3468Y4282D02*
X3507Y4282D01*
X3968Y4282D02*
X4007Y4282D01*
X4467Y4282D02*
X4507Y4282D01*
X4967Y4282D02*
X5007Y4282D01*
X466Y4281D02*
X509Y4281D01*
X966Y4281D02*
X1009Y4281D01*
X1466Y4281D02*
X1509Y4281D01*
X1966Y4281D02*
X2008Y4281D01*
X2466Y4281D02*
X2508Y4281D01*
X2966Y4281D02*
X3008Y4281D01*
X3466Y4281D02*
X3508Y4281D01*
X3966Y4281D02*
X4008Y4281D01*
X4466Y4281D02*
X4508Y4281D01*
X4966Y4281D02*
X5008Y4281D01*
X465Y4280D02*
X510Y4280D01*
X965Y4280D02*
X1010Y4280D01*
X1465Y4280D02*
X1510Y4280D01*
X1965Y4280D02*
X2010Y4280D01*
X2465Y4280D02*
X2510Y4280D01*
X2965Y4280D02*
X3010Y4280D01*
X3465Y4280D02*
X3510Y4280D01*
X3965Y4280D02*
X4010Y4280D01*
X4465Y4280D02*
X4510Y4280D01*
X4965Y4280D02*
X5010Y4280D01*
X464Y4279D02*
X511Y4279D01*
X964Y4279D02*
X1011Y4279D01*
X1464Y4279D02*
X1511Y4279D01*
X1964Y4279D02*
X2011Y4279D01*
X2464Y4279D02*
X2511Y4279D01*
X2964Y4279D02*
X3011Y4279D01*
X3464Y4279D02*
X3511Y4279D01*
X3964Y4279D02*
X4011Y4279D01*
X4464Y4279D02*
X4511Y4279D01*
X4964Y4279D02*
X5011Y4279D01*
X463Y4278D02*
X512Y4278D01*
X963Y4278D02*
X1012Y4278D01*
X1463Y4278D02*
X1512Y4278D01*
X1963Y4278D02*
X2012Y4278D01*
X2463Y4278D02*
X2512Y4278D01*
X2963Y4278D02*
X3012Y4278D01*
X3463Y4278D02*
X3512Y4278D01*
X3962Y4278D02*
X4012Y4278D01*
X4462Y4278D02*
X4512Y4278D01*
X4962Y4278D02*
X5012Y4278D01*
X462Y4277D02*
X513Y4277D01*
X962Y4277D02*
X1013Y4277D01*
X1462Y4277D02*
X1513Y4277D01*
X1962Y4277D02*
X2013Y4277D01*
X2462Y4277D02*
X2513Y4277D01*
X2962Y4277D02*
X3013Y4277D01*
X3462Y4277D02*
X3513Y4277D01*
X3962Y4277D02*
X4013Y4277D01*
X4461Y4277D02*
X4513Y4277D01*
X4961Y4277D02*
X5013Y4277D01*
X461Y4276D02*
X514Y4276D01*
X961Y4276D02*
X1014Y4276D01*
X1461Y4276D02*
X1514Y4276D01*
X1961Y4276D02*
X2014Y4276D01*
X2461Y4276D02*
X2514Y4276D01*
X2961Y4276D02*
X3014Y4276D01*
X3461Y4276D02*
X3514Y4276D01*
X3961Y4276D02*
X4014Y4276D01*
X4461Y4276D02*
X4514Y4276D01*
X4961Y4276D02*
X5014Y4276D01*
X460Y4275D02*
X515Y4275D01*
X960Y4275D02*
X1015Y4275D01*
X1460Y4275D02*
X1515Y4275D01*
X1960Y4275D02*
X2015Y4275D01*
X2460Y4275D02*
X2515Y4275D01*
X2960Y4275D02*
X3015Y4275D01*
X3460Y4275D02*
X3515Y4275D01*
X3960Y4275D02*
X4015Y4275D01*
X4460Y4275D02*
X4515Y4275D01*
X4960Y4275D02*
X5015Y4275D01*
X459Y4274D02*
X516Y4274D01*
X959Y4274D02*
X1016Y4274D01*
X1459Y4274D02*
X1516Y4274D01*
X1959Y4274D02*
X2016Y4274D01*
X2459Y4274D02*
X2516Y4274D01*
X2959Y4274D02*
X3016Y4274D01*
X3459Y4274D02*
X3516Y4274D01*
X3959Y4274D02*
X4015Y4274D01*
X4459Y4274D02*
X4515Y4274D01*
X4959Y4274D02*
X5015Y4274D01*
X458Y4273D02*
X516Y4273D01*
X958Y4273D02*
X1016Y4273D01*
X1458Y4273D02*
X1516Y4273D01*
X1958Y4273D02*
X2016Y4273D01*
X2458Y4273D02*
X2516Y4273D01*
X2958Y4273D02*
X3016Y4273D01*
X3458Y4273D02*
X3516Y4273D01*
X3958Y4273D02*
X4016Y4273D01*
X4458Y4273D02*
X4516Y4273D01*
X4958Y4273D02*
X5016Y4273D01*
X458Y4272D02*
X517Y4272D01*
X958Y4272D02*
X1017Y4272D01*
X1458Y4272D02*
X1517Y4272D01*
X1958Y4272D02*
X2017Y4272D01*
X2458Y4272D02*
X2517Y4272D01*
X2958Y4272D02*
X3017Y4272D01*
X3458Y4272D02*
X3517Y4272D01*
X3958Y4272D02*
X4017Y4272D01*
X4458Y4272D02*
X4517Y4272D01*
X4958Y4272D02*
X5017Y4272D01*
X457Y4271D02*
X518Y4271D01*
X957Y4271D02*
X1018Y4271D01*
X1457Y4271D02*
X1518Y4271D01*
X1957Y4271D02*
X2018Y4271D01*
X2457Y4271D02*
X2518Y4271D01*
X2957Y4271D02*
X3017Y4271D01*
X3457Y4271D02*
X3517Y4271D01*
X3957Y4271D02*
X4017Y4271D01*
X4457Y4271D02*
X4517Y4271D01*
X4957Y4271D02*
X5017Y4271D01*
X457Y4270D02*
X481Y4270D01*
X494Y4270D02*
X518Y4270D01*
X957Y4270D02*
X981Y4270D01*
X994Y4270D02*
X1018Y4270D01*
X1457Y4270D02*
X1481Y4270D01*
X1494Y4270D02*
X1518Y4270D01*
X1957Y4270D02*
X1981Y4270D01*
X1994Y4270D02*
X2018Y4270D01*
X2457Y4270D02*
X2481Y4270D01*
X2494Y4270D02*
X2518Y4270D01*
X2957Y4270D02*
X2981Y4270D01*
X2994Y4270D02*
X3018Y4270D01*
X3456Y4270D02*
X3481Y4270D01*
X3494Y4270D02*
X3518Y4270D01*
X3956Y4270D02*
X3981Y4270D01*
X3994Y4270D02*
X4018Y4270D01*
X4456Y4270D02*
X4481Y4270D01*
X4494Y4270D02*
X4518Y4270D01*
X4956Y4270D02*
X4981Y4270D01*
X4994Y4270D02*
X5018Y4270D01*
X456Y4269D02*
X478Y4269D01*
X496Y4269D02*
X519Y4269D01*
X956Y4269D02*
X978Y4269D01*
X996Y4269D02*
X1019Y4269D01*
X1456Y4269D02*
X1478Y4269D01*
X1496Y4269D02*
X1519Y4269D01*
X1956Y4269D02*
X1978Y4269D01*
X1996Y4269D02*
X2019Y4269D01*
X2456Y4269D02*
X2478Y4269D01*
X2496Y4269D02*
X2519Y4269D01*
X2956Y4269D02*
X2978Y4269D01*
X2996Y4269D02*
X3019Y4269D01*
X3456Y4269D02*
X3478Y4269D01*
X3496Y4269D02*
X3519Y4269D01*
X3956Y4269D02*
X3978Y4269D01*
X3996Y4269D02*
X4019Y4269D01*
X4456Y4269D02*
X4478Y4269D01*
X4496Y4269D02*
X4519Y4269D01*
X4956Y4269D02*
X4978Y4269D01*
X4996Y4269D02*
X5019Y4269D01*
X456Y4268D02*
X477Y4268D01*
X498Y4268D02*
X519Y4268D01*
X956Y4268D02*
X977Y4268D01*
X998Y4268D02*
X1019Y4268D01*
X1456Y4268D02*
X1477Y4268D01*
X1498Y4268D02*
X1519Y4268D01*
X1956Y4268D02*
X1977Y4268D01*
X1998Y4268D02*
X2019Y4268D01*
X2456Y4268D02*
X2477Y4268D01*
X2498Y4268D02*
X2519Y4268D01*
X2955Y4268D02*
X2977Y4268D01*
X2998Y4268D02*
X3019Y4268D01*
X3455Y4268D02*
X3477Y4268D01*
X3498Y4268D02*
X3519Y4268D01*
X3955Y4268D02*
X3977Y4268D01*
X3998Y4268D02*
X4019Y4268D01*
X4455Y4268D02*
X4476Y4268D01*
X4498Y4268D02*
X4519Y4268D01*
X4955Y4268D02*
X4976Y4268D01*
X4998Y4268D02*
X5019Y4268D01*
X455Y4267D02*
X475Y4267D01*
X499Y4267D02*
X520Y4267D01*
X955Y4267D02*
X975Y4267D01*
X999Y4267D02*
X1020Y4267D01*
X1455Y4267D02*
X1475Y4267D01*
X1499Y4267D02*
X1520Y4267D01*
X1955Y4267D02*
X1975Y4267D01*
X1999Y4267D02*
X2020Y4267D01*
X2455Y4267D02*
X2475Y4267D01*
X2499Y4267D02*
X2520Y4267D01*
X2955Y4267D02*
X2975Y4267D01*
X2999Y4267D02*
X3020Y4267D01*
X3455Y4267D02*
X3475Y4267D01*
X3499Y4267D02*
X3520Y4267D01*
X3955Y4267D02*
X3975Y4267D01*
X3999Y4267D02*
X4020Y4267D01*
X4455Y4267D02*
X4475Y4267D01*
X4499Y4267D02*
X4520Y4267D01*
X4955Y4267D02*
X4975Y4267D01*
X4999Y4267D02*
X5019Y4267D01*
X455Y4266D02*
X474Y4266D01*
X501Y4266D02*
X520Y4266D01*
X955Y4266D02*
X974Y4266D01*
X1001Y4266D02*
X1020Y4266D01*
X1455Y4266D02*
X1474Y4266D01*
X1501Y4266D02*
X1520Y4266D01*
X1955Y4266D02*
X1974Y4266D01*
X2001Y4266D02*
X2020Y4266D01*
X2455Y4266D02*
X2474Y4266D01*
X2500Y4266D02*
X2520Y4266D01*
X2955Y4266D02*
X2974Y4266D01*
X3000Y4266D02*
X3020Y4266D01*
X3455Y4266D02*
X3474Y4266D01*
X3500Y4266D02*
X3520Y4266D01*
X3955Y4266D02*
X3974Y4266D01*
X4000Y4266D02*
X4020Y4266D01*
X4454Y4266D02*
X4474Y4266D01*
X4500Y4266D02*
X4520Y4266D01*
X4954Y4266D02*
X4974Y4266D01*
X5000Y4266D02*
X5020Y4266D01*
X454Y4265D02*
X473Y4265D01*
X502Y4265D02*
X521Y4265D01*
X954Y4265D02*
X973Y4265D01*
X1002Y4265D02*
X1021Y4265D01*
X1454Y4265D02*
X1473Y4265D01*
X1502Y4265D02*
X1521Y4265D01*
X1954Y4265D02*
X1973Y4265D01*
X2002Y4265D02*
X2020Y4265D01*
X2454Y4265D02*
X2473Y4265D01*
X2502Y4265D02*
X2520Y4265D01*
X2954Y4265D02*
X2973Y4265D01*
X3001Y4265D02*
X3020Y4265D01*
X3454Y4265D02*
X3473Y4265D01*
X3501Y4265D02*
X3520Y4265D01*
X3954Y4265D02*
X3973Y4265D01*
X4001Y4265D02*
X4020Y4265D01*
X4454Y4265D02*
X4473Y4265D01*
X4501Y4265D02*
X4520Y4265D01*
X4954Y4265D02*
X4973Y4265D01*
X5001Y4265D02*
X5020Y4265D01*
X454Y4264D02*
X472Y4264D01*
X502Y4264D02*
X521Y4264D01*
X954Y4264D02*
X972Y4264D01*
X1002Y4264D02*
X1021Y4264D01*
X1454Y4264D02*
X1472Y4264D01*
X1502Y4264D02*
X1521Y4264D01*
X1954Y4264D02*
X1972Y4264D01*
X2002Y4264D02*
X2021Y4264D01*
X2454Y4264D02*
X2472Y4264D01*
X2502Y4264D02*
X2521Y4264D01*
X2954Y4264D02*
X2972Y4264D01*
X3002Y4264D02*
X3021Y4264D01*
X3454Y4264D02*
X3472Y4264D01*
X3502Y4264D02*
X3521Y4264D01*
X3954Y4264D02*
X3972Y4264D01*
X4002Y4264D02*
X4021Y4264D01*
X4454Y4264D02*
X4472Y4264D01*
X4502Y4264D02*
X4521Y4264D01*
X4954Y4264D02*
X4972Y4264D01*
X5002Y4264D02*
X5021Y4264D01*
X454Y4263D02*
X472Y4263D01*
X503Y4263D02*
X521Y4263D01*
X954Y4263D02*
X972Y4263D01*
X1003Y4263D02*
X1021Y4263D01*
X1454Y4263D02*
X1471Y4263D01*
X1503Y4263D02*
X1521Y4263D01*
X1953Y4263D02*
X1971Y4263D01*
X2003Y4263D02*
X2021Y4263D01*
X2453Y4263D02*
X2471Y4263D01*
X2503Y4263D02*
X2521Y4263D01*
X2953Y4263D02*
X2971Y4263D01*
X3003Y4263D02*
X3021Y4263D01*
X3453Y4263D02*
X3471Y4263D01*
X3503Y4263D02*
X3521Y4263D01*
X3953Y4263D02*
X3971Y4263D01*
X4003Y4263D02*
X4021Y4263D01*
X4453Y4263D02*
X4471Y4263D01*
X4503Y4263D02*
X4521Y4263D01*
X4953Y4263D02*
X4971Y4263D01*
X5003Y4263D02*
X5021Y4263D01*
X453Y4262D02*
X471Y4262D01*
X504Y4262D02*
X522Y4262D01*
X953Y4262D02*
X971Y4262D01*
X1004Y4262D02*
X1022Y4262D01*
X1453Y4262D02*
X1471Y4262D01*
X1504Y4262D02*
X1522Y4262D01*
X1953Y4262D02*
X1971Y4262D01*
X2004Y4262D02*
X2022Y4262D01*
X2453Y4262D02*
X2471Y4262D01*
X2504Y4262D02*
X2522Y4262D01*
X2953Y4262D02*
X2971Y4262D01*
X3004Y4262D02*
X3021Y4262D01*
X3453Y4262D02*
X3471Y4262D01*
X3504Y4262D02*
X3521Y4262D01*
X3953Y4262D02*
X3971Y4262D01*
X4004Y4262D02*
X4021Y4262D01*
X4453Y4262D02*
X4471Y4262D01*
X4504Y4262D02*
X4521Y4262D01*
X4953Y4262D02*
X4971Y4262D01*
X5004Y4262D02*
X5021Y4262D01*
X453Y4261D02*
X470Y4261D01*
X505Y4261D02*
X522Y4261D01*
X953Y4261D02*
X970Y4261D01*
X1005Y4261D02*
X1022Y4261D01*
X1453Y4261D02*
X1470Y4261D01*
X1505Y4261D02*
X1522Y4261D01*
X1953Y4261D02*
X1970Y4261D01*
X2005Y4261D02*
X2022Y4261D01*
X2453Y4261D02*
X2470Y4261D01*
X2505Y4261D02*
X2522Y4261D01*
X2953Y4261D02*
X2970Y4261D01*
X3004Y4261D02*
X3022Y4261D01*
X3453Y4261D02*
X3470Y4261D01*
X3504Y4261D02*
X3522Y4261D01*
X3953Y4261D02*
X3970Y4261D01*
X4004Y4261D02*
X4022Y4261D01*
X4453Y4261D02*
X4470Y4261D01*
X4504Y4261D02*
X4522Y4261D01*
X4953Y4261D02*
X4970Y4261D01*
X5004Y4261D02*
X5022Y4261D01*
X453Y4260D02*
X470Y4260D01*
X505Y4260D02*
X522Y4260D01*
X953Y4260D02*
X970Y4260D01*
X1005Y4260D02*
X1022Y4260D01*
X1453Y4260D02*
X1470Y4260D01*
X1505Y4260D02*
X1522Y4260D01*
X1953Y4260D02*
X1970Y4260D01*
X2005Y4260D02*
X2022Y4260D01*
X2453Y4260D02*
X2470Y4260D01*
X2505Y4260D02*
X2522Y4260D01*
X2953Y4260D02*
X2970Y4260D01*
X3005Y4260D02*
X3022Y4260D01*
X3453Y4260D02*
X3470Y4260D01*
X3505Y4260D02*
X3522Y4260D01*
X3953Y4260D02*
X3970Y4260D01*
X4005Y4260D02*
X4022Y4260D01*
X4452Y4260D02*
X4469Y4260D01*
X4505Y4260D02*
X4522Y4260D01*
X4952Y4260D02*
X4969Y4260D01*
X5005Y4260D02*
X5022Y4260D01*
X452Y4259D02*
X469Y4259D01*
X506Y4259D02*
X522Y4259D01*
X952Y4259D02*
X969Y4259D01*
X1006Y4259D02*
X1022Y4259D01*
X1452Y4259D02*
X1469Y4259D01*
X1506Y4259D02*
X1522Y4259D01*
X1952Y4259D02*
X1969Y4259D01*
X2006Y4259D02*
X2022Y4259D01*
X2452Y4259D02*
X2469Y4259D01*
X2506Y4259D02*
X2522Y4259D01*
X2952Y4259D02*
X2969Y4259D01*
X3005Y4259D02*
X3022Y4259D01*
X3452Y4259D02*
X3469Y4259D01*
X3505Y4259D02*
X3522Y4259D01*
X3952Y4259D02*
X3969Y4259D01*
X4005Y4259D02*
X4022Y4259D01*
X4452Y4259D02*
X4469Y4259D01*
X4505Y4259D02*
X4522Y4259D01*
X4952Y4259D02*
X4969Y4259D01*
X5005Y4259D02*
X5022Y4259D01*
X452Y4258D02*
X469Y4258D01*
X506Y4258D02*
X523Y4258D01*
X952Y4258D02*
X969Y4258D01*
X1006Y4258D02*
X1023Y4258D01*
X1452Y4258D02*
X1469Y4258D01*
X1506Y4258D02*
X1523Y4258D01*
X1952Y4258D02*
X1969Y4258D01*
X2006Y4258D02*
X2022Y4258D01*
X2452Y4258D02*
X2469Y4258D01*
X2506Y4258D02*
X2522Y4258D01*
X2952Y4258D02*
X2969Y4258D01*
X3006Y4258D02*
X3022Y4258D01*
X3452Y4258D02*
X3469Y4258D01*
X3506Y4258D02*
X3522Y4258D01*
X3952Y4258D02*
X3969Y4258D01*
X4006Y4258D02*
X4022Y4258D01*
X4452Y4258D02*
X4469Y4258D01*
X4506Y4258D02*
X4522Y4258D01*
X4952Y4258D02*
X4969Y4258D01*
X5006Y4258D02*
X5022Y4258D01*
X452Y4257D02*
X469Y4257D01*
X506Y4257D02*
X523Y4257D01*
X952Y4257D02*
X969Y4257D01*
X1006Y4257D02*
X1023Y4257D01*
X1452Y4257D02*
X1469Y4257D01*
X1506Y4257D02*
X1523Y4257D01*
X1952Y4257D02*
X1969Y4257D01*
X2006Y4257D02*
X2023Y4257D01*
X2452Y4257D02*
X2469Y4257D01*
X2506Y4257D02*
X2523Y4257D01*
X2952Y4257D02*
X2969Y4257D01*
X3006Y4257D02*
X3023Y4257D01*
X3452Y4257D02*
X3469Y4257D01*
X3506Y4257D02*
X3523Y4257D01*
X3952Y4257D02*
X3968Y4257D01*
X4006Y4257D02*
X4023Y4257D01*
X4452Y4257D02*
X4468Y4257D01*
X4506Y4257D02*
X4523Y4257D01*
X4952Y4257D02*
X4968Y4257D01*
X5006Y4257D02*
X5022Y4257D01*
X452Y4256D02*
X468Y4256D01*
X506Y4256D02*
X523Y4256D01*
X952Y4256D02*
X968Y4256D01*
X1006Y4256D02*
X1023Y4256D01*
X1452Y4256D02*
X1468Y4256D01*
X1506Y4256D02*
X1523Y4256D01*
X1952Y4256D02*
X1968Y4256D01*
X2006Y4256D02*
X2023Y4256D01*
X2452Y4256D02*
X2468Y4256D01*
X2506Y4256D02*
X2523Y4256D01*
X2952Y4256D02*
X2968Y4256D01*
X3006Y4256D02*
X3023Y4256D01*
X3452Y4256D02*
X3468Y4256D01*
X3506Y4256D02*
X3523Y4256D01*
X3952Y4256D02*
X3968Y4256D01*
X4006Y4256D02*
X4023Y4256D01*
X4452Y4256D02*
X4468Y4256D01*
X4506Y4256D02*
X4523Y4256D01*
X4952Y4256D02*
X4968Y4256D01*
X5006Y4256D02*
X5023Y4256D01*
X452Y4255D02*
X468Y4255D01*
X507Y4255D02*
X523Y4255D01*
X952Y4255D02*
X968Y4255D01*
X1007Y4255D02*
X1023Y4255D01*
X1452Y4255D02*
X1468Y4255D01*
X1507Y4255D02*
X1523Y4255D01*
X1952Y4255D02*
X1968Y4255D01*
X2006Y4255D02*
X2023Y4255D01*
X2452Y4255D02*
X2468Y4255D01*
X2506Y4255D02*
X2523Y4255D01*
X2952Y4255D02*
X2968Y4255D01*
X3006Y4255D02*
X3023Y4255D01*
X3452Y4255D02*
X3468Y4255D01*
X3506Y4255D02*
X3523Y4255D01*
X3952Y4255D02*
X3968Y4255D01*
X4006Y4255D02*
X4023Y4255D01*
X4452Y4255D02*
X4468Y4255D01*
X4506Y4255D02*
X4523Y4255D01*
X4952Y4255D02*
X4968Y4255D01*
X5006Y4255D02*
X5023Y4255D01*
X452Y4254D02*
X468Y4254D01*
X507Y4254D02*
X523Y4254D01*
X952Y4254D02*
X968Y4254D01*
X1007Y4254D02*
X1023Y4254D01*
X1452Y4254D02*
X1468Y4254D01*
X1507Y4254D02*
X1523Y4254D01*
X1952Y4254D02*
X1968Y4254D01*
X2007Y4254D02*
X2023Y4254D01*
X2452Y4254D02*
X2468Y4254D01*
X2507Y4254D02*
X2523Y4254D01*
X2952Y4254D02*
X2968Y4254D01*
X3007Y4254D02*
X3023Y4254D01*
X3452Y4254D02*
X3468Y4254D01*
X3506Y4254D02*
X3523Y4254D01*
X3952Y4254D02*
X3968Y4254D01*
X4006Y4254D02*
X4023Y4254D01*
X4452Y4254D02*
X4468Y4254D01*
X4506Y4254D02*
X4523Y4254D01*
X4952Y4254D02*
X4968Y4254D01*
X5006Y4254D02*
X5023Y4254D01*
X452Y4253D02*
X468Y4253D01*
X507Y4253D02*
X523Y4253D01*
X952Y4253D02*
X968Y4253D01*
X1007Y4253D02*
X1023Y4253D01*
X1452Y4253D02*
X1468Y4253D01*
X1507Y4253D02*
X1523Y4253D01*
X1952Y4253D02*
X1968Y4253D01*
X2007Y4253D02*
X2023Y4253D01*
X2452Y4253D02*
X2468Y4253D01*
X2507Y4253D02*
X2523Y4253D01*
X2952Y4253D02*
X2968Y4253D01*
X3007Y4253D02*
X3023Y4253D01*
X3452Y4253D02*
X3468Y4253D01*
X3507Y4253D02*
X3523Y4253D01*
X3952Y4253D02*
X3968Y4253D01*
X4007Y4253D02*
X4023Y4253D01*
X4452Y4253D02*
X4468Y4253D01*
X4507Y4253D02*
X4523Y4253D01*
X4952Y4253D02*
X4968Y4253D01*
X5006Y4253D02*
X5023Y4253D01*
X452Y4252D02*
X468Y4252D01*
X507Y4252D02*
X523Y4252D01*
X952Y4252D02*
X968Y4252D01*
X1007Y4252D02*
X1023Y4252D01*
X1452Y4252D02*
X1468Y4252D01*
X1507Y4252D02*
X1523Y4252D01*
X1952Y4252D02*
X1968Y4252D01*
X2007Y4252D02*
X2023Y4252D01*
X2452Y4252D02*
X2468Y4252D01*
X2507Y4252D02*
X2523Y4252D01*
X2952Y4252D02*
X2968Y4252D01*
X3007Y4252D02*
X3023Y4252D01*
X3452Y4252D02*
X3468Y4252D01*
X3507Y4252D02*
X3523Y4252D01*
X3952Y4252D02*
X3968Y4252D01*
X4007Y4252D02*
X4023Y4252D01*
X4451Y4252D02*
X4468Y4252D01*
X4507Y4252D02*
X4523Y4252D01*
X4951Y4252D02*
X4968Y4252D01*
X5007Y4252D02*
X5023Y4252D01*
X452Y4251D02*
X468Y4251D01*
X507Y4251D02*
X523Y4251D01*
X952Y4251D02*
X968Y4251D01*
X1007Y4251D02*
X1023Y4251D01*
X1452Y4251D02*
X1468Y4251D01*
X1507Y4251D02*
X1523Y4251D01*
X1952Y4251D02*
X1968Y4251D01*
X2007Y4251D02*
X2023Y4251D01*
X2452Y4251D02*
X2468Y4251D01*
X2507Y4251D02*
X2523Y4251D01*
X2952Y4251D02*
X2968Y4251D01*
X3007Y4251D02*
X3023Y4251D01*
X3452Y4251D02*
X3468Y4251D01*
X3507Y4251D02*
X3523Y4251D01*
X3952Y4251D02*
X3968Y4251D01*
X4007Y4251D02*
X4023Y4251D01*
X4452Y4251D02*
X4468Y4251D01*
X4507Y4251D02*
X4523Y4251D01*
X4952Y4251D02*
X4968Y4251D01*
X5006Y4251D02*
X5023Y4251D01*
X452Y4250D02*
X468Y4250D01*
X507Y4250D02*
X523Y4250D01*
X952Y4250D02*
X968Y4250D01*
X1007Y4250D02*
X1023Y4250D01*
X1452Y4250D02*
X1468Y4250D01*
X1507Y4250D02*
X1523Y4250D01*
X1952Y4250D02*
X1968Y4250D01*
X2007Y4250D02*
X2023Y4250D01*
X2452Y4250D02*
X2468Y4250D01*
X2507Y4250D02*
X2523Y4250D01*
X2952Y4250D02*
X2968Y4250D01*
X3007Y4250D02*
X3023Y4250D01*
X3452Y4250D02*
X3468Y4250D01*
X3506Y4250D02*
X3523Y4250D01*
X3952Y4250D02*
X3968Y4250D01*
X4006Y4250D02*
X4023Y4250D01*
X4452Y4250D02*
X4468Y4250D01*
X4506Y4250D02*
X4523Y4250D01*
X4952Y4250D02*
X4968Y4250D01*
X5006Y4250D02*
X5023Y4250D01*
X452Y4249D02*
X468Y4249D01*
X507Y4249D02*
X523Y4249D01*
X952Y4249D02*
X968Y4249D01*
X1007Y4249D02*
X1023Y4249D01*
X1452Y4249D02*
X1468Y4249D01*
X1507Y4249D02*
X1523Y4249D01*
X1952Y4249D02*
X1968Y4249D01*
X2006Y4249D02*
X2023Y4249D01*
X2452Y4249D02*
X2468Y4249D01*
X2506Y4249D02*
X2523Y4249D01*
X2952Y4249D02*
X2968Y4249D01*
X3006Y4249D02*
X3023Y4249D01*
X3452Y4249D02*
X3468Y4249D01*
X3506Y4249D02*
X3523Y4249D01*
X3952Y4249D02*
X3968Y4249D01*
X4006Y4249D02*
X4023Y4249D01*
X4452Y4249D02*
X4468Y4249D01*
X4506Y4249D02*
X4523Y4249D01*
X4952Y4249D02*
X4968Y4249D01*
X5006Y4249D02*
X5023Y4249D01*
X452Y4248D02*
X468Y4248D01*
X506Y4248D02*
X523Y4248D01*
X952Y4248D02*
X968Y4248D01*
X1006Y4248D02*
X1023Y4248D01*
X1452Y4248D02*
X1468Y4248D01*
X1506Y4248D02*
X1523Y4248D01*
X1952Y4248D02*
X1968Y4248D01*
X2006Y4248D02*
X2023Y4248D01*
X2452Y4248D02*
X2468Y4248D01*
X2506Y4248D02*
X2523Y4248D01*
X2952Y4248D02*
X2968Y4248D01*
X3006Y4248D02*
X3023Y4248D01*
X3452Y4248D02*
X3468Y4248D01*
X3506Y4248D02*
X3523Y4248D01*
X3952Y4248D02*
X3968Y4248D01*
X4006Y4248D02*
X4023Y4248D01*
X4452Y4248D02*
X4468Y4248D01*
X4506Y4248D02*
X4523Y4248D01*
X4952Y4248D02*
X4968Y4248D01*
X5006Y4248D02*
X5023Y4248D01*
X452Y4247D02*
X469Y4247D01*
X506Y4247D02*
X523Y4247D01*
X952Y4247D02*
X969Y4247D01*
X1006Y4247D02*
X1023Y4247D01*
X1452Y4247D02*
X1469Y4247D01*
X1506Y4247D02*
X1523Y4247D01*
X1952Y4247D02*
X1969Y4247D01*
X2006Y4247D02*
X2023Y4247D01*
X2452Y4247D02*
X2469Y4247D01*
X2506Y4247D02*
X2523Y4247D01*
X2952Y4247D02*
X2969Y4247D01*
X3006Y4247D02*
X3023Y4247D01*
X3452Y4247D02*
X3469Y4247D01*
X3506Y4247D02*
X3523Y4247D01*
X3952Y4247D02*
X3969Y4247D01*
X4006Y4247D02*
X4023Y4247D01*
X4452Y4247D02*
X4468Y4247D01*
X4506Y4247D02*
X4523Y4247D01*
X4952Y4247D02*
X4968Y4247D01*
X5006Y4247D02*
X5022Y4247D01*
X452Y4246D02*
X469Y4246D01*
X506Y4246D02*
X523Y4246D01*
X952Y4246D02*
X969Y4246D01*
X1006Y4246D02*
X1023Y4246D01*
X1452Y4246D02*
X1469Y4246D01*
X1506Y4246D02*
X1523Y4246D01*
X1952Y4246D02*
X1969Y4246D01*
X2006Y4246D02*
X2022Y4246D01*
X2452Y4246D02*
X2469Y4246D01*
X2506Y4246D02*
X2522Y4246D01*
X2952Y4246D02*
X2969Y4246D01*
X3006Y4246D02*
X3022Y4246D01*
X3452Y4246D02*
X3469Y4246D01*
X3506Y4246D02*
X3522Y4246D01*
X3952Y4246D02*
X3969Y4246D01*
X4006Y4246D02*
X4022Y4246D01*
X4452Y4246D02*
X4469Y4246D01*
X4506Y4246D02*
X4522Y4246D01*
X4952Y4246D02*
X4969Y4246D01*
X5006Y4246D02*
X5022Y4246D01*
X452Y4245D02*
X469Y4245D01*
X506Y4245D02*
X522Y4245D01*
X952Y4245D02*
X969Y4245D01*
X1006Y4245D02*
X1022Y4245D01*
X1452Y4245D02*
X1469Y4245D01*
X1506Y4245D02*
X1522Y4245D01*
X1952Y4245D02*
X1969Y4245D01*
X2005Y4245D02*
X2022Y4245D01*
X2452Y4245D02*
X2469Y4245D01*
X2505Y4245D02*
X2522Y4245D01*
X2952Y4245D02*
X2969Y4245D01*
X3005Y4245D02*
X3022Y4245D01*
X3452Y4245D02*
X3469Y4245D01*
X3505Y4245D02*
X3522Y4245D01*
X3952Y4245D02*
X3969Y4245D01*
X4005Y4245D02*
X4022Y4245D01*
X4452Y4245D02*
X4469Y4245D01*
X4505Y4245D02*
X4522Y4245D01*
X4952Y4245D02*
X4969Y4245D01*
X5005Y4245D02*
X5022Y4245D01*
X453Y4244D02*
X470Y4244D01*
X505Y4244D02*
X522Y4244D01*
X953Y4244D02*
X970Y4244D01*
X1005Y4244D02*
X1022Y4244D01*
X1453Y4244D02*
X1470Y4244D01*
X1505Y4244D02*
X1522Y4244D01*
X1953Y4244D02*
X1970Y4244D01*
X2005Y4244D02*
X2022Y4244D01*
X2453Y4244D02*
X2470Y4244D01*
X2505Y4244D02*
X2522Y4244D01*
X2953Y4244D02*
X2970Y4244D01*
X3005Y4244D02*
X3022Y4244D01*
X3453Y4244D02*
X3470Y4244D01*
X3505Y4244D02*
X3522Y4244D01*
X3953Y4244D02*
X3970Y4244D01*
X4005Y4244D02*
X4022Y4244D01*
X4453Y4244D02*
X4470Y4244D01*
X4505Y4244D02*
X4522Y4244D01*
X4953Y4244D02*
X4970Y4244D01*
X5005Y4244D02*
X5022Y4244D01*
X453Y4243D02*
X470Y4243D01*
X505Y4243D02*
X522Y4243D01*
X953Y4243D02*
X970Y4243D01*
X1005Y4243D02*
X1022Y4243D01*
X1453Y4243D02*
X1470Y4243D01*
X1504Y4243D02*
X1522Y4243D01*
X1953Y4243D02*
X1970Y4243D01*
X2004Y4243D02*
X2022Y4243D01*
X2453Y4243D02*
X2470Y4243D01*
X2504Y4243D02*
X2522Y4243D01*
X2953Y4243D02*
X2970Y4243D01*
X3004Y4243D02*
X3022Y4243D01*
X3453Y4243D02*
X3470Y4243D01*
X3504Y4243D02*
X3522Y4243D01*
X3953Y4243D02*
X3970Y4243D01*
X4004Y4243D02*
X4022Y4243D01*
X4453Y4243D02*
X4470Y4243D01*
X4504Y4243D02*
X4522Y4243D01*
X4953Y4243D02*
X4970Y4243D01*
X5004Y4243D02*
X5022Y4243D01*
X453Y4242D02*
X471Y4242D01*
X504Y4242D02*
X522Y4242D01*
X953Y4242D02*
X971Y4242D01*
X1004Y4242D02*
X1022Y4242D01*
X1453Y4242D02*
X1471Y4242D01*
X1504Y4242D02*
X1522Y4242D01*
X1953Y4242D02*
X1971Y4242D01*
X2004Y4242D02*
X2022Y4242D01*
X2453Y4242D02*
X2471Y4242D01*
X2504Y4242D02*
X2521Y4242D01*
X2953Y4242D02*
X2971Y4242D01*
X3004Y4242D02*
X3021Y4242D01*
X3453Y4242D02*
X3471Y4242D01*
X3504Y4242D02*
X3521Y4242D01*
X3953Y4242D02*
X3971Y4242D01*
X4004Y4242D02*
X4021Y4242D01*
X4453Y4242D02*
X4471Y4242D01*
X4504Y4242D02*
X4521Y4242D01*
X4953Y4242D02*
X4971Y4242D01*
X5004Y4242D02*
X5021Y4242D01*
X454Y4241D02*
X472Y4241D01*
X503Y4241D02*
X521Y4241D01*
X954Y4241D02*
X972Y4241D01*
X1003Y4241D02*
X1021Y4241D01*
X1454Y4241D02*
X1472Y4241D01*
X1503Y4241D02*
X1521Y4241D01*
X1954Y4241D02*
X1972Y4241D01*
X2003Y4241D02*
X2021Y4241D01*
X2453Y4241D02*
X2472Y4241D01*
X2503Y4241D02*
X2521Y4241D01*
X2953Y4241D02*
X2972Y4241D01*
X3003Y4241D02*
X3021Y4241D01*
X3453Y4241D02*
X3472Y4241D01*
X3503Y4241D02*
X3521Y4241D01*
X3953Y4241D02*
X3971Y4241D01*
X4003Y4241D02*
X4021Y4241D01*
X4453Y4241D02*
X4471Y4241D01*
X4503Y4241D02*
X4521Y4241D01*
X4953Y4241D02*
X4971Y4241D01*
X5003Y4241D02*
X5021Y4241D01*
X454Y4240D02*
X473Y4240D01*
X502Y4240D02*
X521Y4240D01*
X954Y4240D02*
X973Y4240D01*
X1002Y4240D02*
X1021Y4240D01*
X1454Y4240D02*
X1472Y4240D01*
X1502Y4240D02*
X1521Y4240D01*
X1954Y4240D02*
X1972Y4240D01*
X2002Y4240D02*
X2021Y4240D01*
X2454Y4240D02*
X2472Y4240D01*
X2502Y4240D02*
X2521Y4240D01*
X2954Y4240D02*
X2972Y4240D01*
X3002Y4240D02*
X3021Y4240D01*
X3454Y4240D02*
X3472Y4240D01*
X3502Y4240D02*
X3521Y4240D01*
X3954Y4240D02*
X3972Y4240D01*
X4002Y4240D02*
X4021Y4240D01*
X4454Y4240D02*
X4472Y4240D01*
X4502Y4240D02*
X4521Y4240D01*
X4954Y4240D02*
X4972Y4240D01*
X5002Y4240D02*
X5021Y4240D01*
X454Y4239D02*
X473Y4239D01*
X501Y4239D02*
X521Y4239D01*
X954Y4239D02*
X973Y4239D01*
X1001Y4239D02*
X1021Y4239D01*
X1454Y4239D02*
X1473Y4239D01*
X1501Y4239D02*
X1520Y4239D01*
X1954Y4239D02*
X1973Y4239D01*
X2001Y4239D02*
X2020Y4239D01*
X2454Y4239D02*
X2473Y4239D01*
X2501Y4239D02*
X2520Y4239D01*
X2954Y4239D02*
X2973Y4239D01*
X3001Y4239D02*
X3020Y4239D01*
X3454Y4239D02*
X3473Y4239D01*
X3501Y4239D02*
X3520Y4239D01*
X3954Y4239D02*
X3973Y4239D01*
X4001Y4239D02*
X4020Y4239D01*
X4454Y4239D02*
X4473Y4239D01*
X4501Y4239D02*
X4520Y4239D01*
X4954Y4239D02*
X4973Y4239D01*
X5001Y4239D02*
X5020Y4239D01*
X455Y4238D02*
X474Y4238D01*
X500Y4238D02*
X520Y4238D01*
X955Y4238D02*
X974Y4238D01*
X1000Y4238D02*
X1020Y4238D01*
X1455Y4238D02*
X1474Y4238D01*
X1500Y4238D02*
X1520Y4238D01*
X1955Y4238D02*
X1974Y4238D01*
X2000Y4238D02*
X2020Y4238D01*
X2455Y4238D02*
X2474Y4238D01*
X2500Y4238D02*
X2520Y4238D01*
X2955Y4238D02*
X2974Y4238D01*
X3000Y4238D02*
X3020Y4238D01*
X3455Y4238D02*
X3474Y4238D01*
X3500Y4238D02*
X3520Y4238D01*
X3955Y4238D02*
X3974Y4238D01*
X4000Y4238D02*
X4020Y4238D01*
X4455Y4238D02*
X4474Y4238D01*
X4500Y4238D02*
X4520Y4238D01*
X4954Y4238D02*
X4974Y4238D01*
X5000Y4238D02*
X5020Y4238D01*
X455Y4237D02*
X476Y4237D01*
X499Y4237D02*
X520Y4237D01*
X955Y4237D02*
X976Y4237D01*
X999Y4237D02*
X1020Y4237D01*
X1455Y4237D02*
X1476Y4237D01*
X1499Y4237D02*
X1520Y4237D01*
X1955Y4237D02*
X1976Y4237D01*
X1999Y4237D02*
X2020Y4237D01*
X2455Y4237D02*
X2475Y4237D01*
X2499Y4237D02*
X2520Y4237D01*
X2955Y4237D02*
X2975Y4237D01*
X2999Y4237D02*
X3020Y4237D01*
X3455Y4237D02*
X3475Y4237D01*
X3499Y4237D02*
X3520Y4237D01*
X3955Y4237D02*
X3975Y4237D01*
X3999Y4237D02*
X4019Y4237D01*
X4455Y4237D02*
X4475Y4237D01*
X4499Y4237D02*
X4519Y4237D01*
X4955Y4237D02*
X4975Y4237D01*
X4999Y4237D02*
X5019Y4237D01*
X456Y4236D02*
X477Y4236D01*
X498Y4236D02*
X519Y4236D01*
X956Y4236D02*
X977Y4236D01*
X998Y4236D02*
X1019Y4236D01*
X1456Y4236D02*
X1477Y4236D01*
X1498Y4236D02*
X1519Y4236D01*
X1956Y4236D02*
X1977Y4236D01*
X1998Y4236D02*
X2019Y4236D01*
X2456Y4236D02*
X2477Y4236D01*
X2498Y4236D02*
X2519Y4236D01*
X2956Y4236D02*
X2977Y4236D01*
X2998Y4236D02*
X3019Y4236D01*
X3456Y4236D02*
X3477Y4236D01*
X3498Y4236D02*
X3519Y4236D01*
X3956Y4236D02*
X3977Y4236D01*
X3998Y4236D02*
X4019Y4236D01*
X4455Y4236D02*
X4477Y4236D01*
X4498Y4236D02*
X4519Y4236D01*
X4955Y4236D02*
X4977Y4236D01*
X4998Y4236D02*
X5019Y4236D01*
X456Y4235D02*
X479Y4235D01*
X496Y4235D02*
X519Y4235D01*
X956Y4235D02*
X979Y4235D01*
X996Y4235D02*
X1019Y4235D01*
X1456Y4235D02*
X1479Y4235D01*
X1496Y4235D02*
X1519Y4235D01*
X1956Y4235D02*
X1979Y4235D01*
X1996Y4235D02*
X2019Y4235D01*
X2456Y4235D02*
X2479Y4235D01*
X2496Y4235D02*
X2519Y4235D01*
X2956Y4235D02*
X2979Y4235D01*
X2996Y4235D02*
X3019Y4235D01*
X3456Y4235D02*
X3479Y4235D01*
X3496Y4235D02*
X3519Y4235D01*
X3956Y4235D02*
X3979Y4235D01*
X3996Y4235D02*
X4019Y4235D01*
X4456Y4235D02*
X4478Y4235D01*
X4496Y4235D02*
X4519Y4235D01*
X4956Y4235D02*
X4978Y4235D01*
X4996Y4235D02*
X5018Y4235D01*
X457Y4234D02*
X481Y4234D01*
X494Y4234D02*
X518Y4234D01*
X957Y4234D02*
X981Y4234D01*
X993Y4234D02*
X1018Y4234D01*
X1457Y4234D02*
X1481Y4234D01*
X1493Y4234D02*
X1518Y4234D01*
X1957Y4234D02*
X1981Y4234D01*
X1993Y4234D02*
X2018Y4234D01*
X2457Y4234D02*
X2481Y4234D01*
X2493Y4234D02*
X2518Y4234D01*
X2957Y4234D02*
X2981Y4234D01*
X2993Y4234D02*
X3018Y4234D01*
X3457Y4234D02*
X3481Y4234D01*
X3493Y4234D02*
X3518Y4234D01*
X3957Y4234D02*
X3981Y4234D01*
X3993Y4234D02*
X4018Y4234D01*
X4456Y4234D02*
X4481Y4234D01*
X4493Y4234D02*
X4518Y4234D01*
X4956Y4234D02*
X4981Y4234D01*
X4993Y4234D02*
X5018Y4234D01*
X457Y4233D02*
X518Y4233D01*
X957Y4233D02*
X1018Y4233D01*
X1457Y4233D02*
X1518Y4233D01*
X1957Y4233D02*
X2017Y4233D01*
X2457Y4233D02*
X2517Y4233D01*
X2957Y4233D02*
X3017Y4233D01*
X3457Y4233D02*
X3517Y4233D01*
X3957Y4233D02*
X4017Y4233D01*
X4457Y4233D02*
X4517Y4233D01*
X4957Y4233D02*
X5017Y4233D01*
X458Y4232D02*
X517Y4232D01*
X958Y4232D02*
X1017Y4232D01*
X1458Y4232D02*
X1517Y4232D01*
X1958Y4232D02*
X2017Y4232D01*
X2458Y4232D02*
X2517Y4232D01*
X2958Y4232D02*
X3017Y4232D01*
X3458Y4232D02*
X3517Y4232D01*
X3958Y4232D02*
X4017Y4232D01*
X4458Y4232D02*
X4517Y4232D01*
X4958Y4232D02*
X5017Y4232D01*
X459Y4231D02*
X516Y4231D01*
X959Y4231D02*
X1016Y4231D01*
X1459Y4231D02*
X1516Y4231D01*
X1959Y4231D02*
X2016Y4231D01*
X2458Y4231D02*
X2516Y4231D01*
X2958Y4231D02*
X3016Y4231D01*
X3458Y4231D02*
X3516Y4231D01*
X3958Y4231D02*
X4016Y4231D01*
X4458Y4231D02*
X4516Y4231D01*
X4958Y4231D02*
X5016Y4231D01*
X459Y4230D02*
X516Y4230D01*
X959Y4230D02*
X1016Y4230D01*
X1459Y4230D02*
X1516Y4230D01*
X1959Y4230D02*
X2015Y4230D01*
X2459Y4230D02*
X2515Y4230D01*
X2959Y4230D02*
X3015Y4230D01*
X3459Y4230D02*
X3515Y4230D01*
X3959Y4230D02*
X4015Y4230D01*
X4459Y4230D02*
X4515Y4230D01*
X4959Y4230D02*
X5015Y4230D01*
X460Y4229D02*
X515Y4229D01*
X960Y4229D02*
X1015Y4229D01*
X1460Y4229D02*
X1515Y4229D01*
X1960Y4229D02*
X2015Y4229D01*
X2460Y4229D02*
X2515Y4229D01*
X2960Y4229D02*
X3015Y4229D01*
X3460Y4229D02*
X3515Y4229D01*
X3960Y4229D02*
X4015Y4229D01*
X4460Y4229D02*
X4515Y4229D01*
X4960Y4229D02*
X5015Y4229D01*
X461Y4228D02*
X514Y4228D01*
X961Y4228D02*
X1014Y4228D01*
X1461Y4228D02*
X1514Y4228D01*
X1961Y4228D02*
X2014Y4228D01*
X2461Y4228D02*
X2514Y4228D01*
X2961Y4228D02*
X3014Y4228D01*
X3461Y4228D02*
X3514Y4228D01*
X3961Y4228D02*
X4014Y4228D01*
X4461Y4228D02*
X4514Y4228D01*
X4961Y4228D02*
X5014Y4228D01*
X462Y4227D02*
X513Y4227D01*
X962Y4227D02*
X1013Y4227D01*
X1462Y4227D02*
X1513Y4227D01*
X1962Y4227D02*
X2013Y4227D01*
X2462Y4227D02*
X2513Y4227D01*
X2962Y4227D02*
X3013Y4227D01*
X3462Y4227D02*
X3513Y4227D01*
X3962Y4227D02*
X4013Y4227D01*
X4462Y4227D02*
X4513Y4227D01*
X4962Y4227D02*
X5013Y4227D01*
X463Y4226D02*
X512Y4226D01*
X963Y4226D02*
X1012Y4226D01*
X1463Y4226D02*
X1512Y4226D01*
X1963Y4226D02*
X2012Y4226D01*
X2463Y4226D02*
X2512Y4226D01*
X2963Y4226D02*
X3012Y4226D01*
X3463Y4226D02*
X3512Y4226D01*
X3963Y4226D02*
X4012Y4226D01*
X4463Y4226D02*
X4512Y4226D01*
X4963Y4226D02*
X5012Y4226D01*
X464Y4225D02*
X511Y4225D01*
X964Y4225D02*
X1011Y4225D01*
X1464Y4225D02*
X1511Y4225D01*
X1964Y4225D02*
X2011Y4225D01*
X2464Y4225D02*
X2511Y4225D01*
X2964Y4225D02*
X3011Y4225D01*
X3464Y4225D02*
X3511Y4225D01*
X3964Y4225D02*
X4011Y4225D01*
X4464Y4225D02*
X4511Y4225D01*
X4964Y4225D02*
X5011Y4225D01*
X465Y4224D02*
X510Y4224D01*
X965Y4224D02*
X1010Y4224D01*
X1465Y4224D02*
X1510Y4224D01*
X1965Y4224D02*
X2010Y4224D01*
X2465Y4224D02*
X2510Y4224D01*
X2965Y4224D02*
X3010Y4224D01*
X3465Y4224D02*
X3510Y4224D01*
X3965Y4224D02*
X4010Y4224D01*
X4465Y4224D02*
X4510Y4224D01*
X4965Y4224D02*
X5009Y4224D01*
X466Y4223D02*
X508Y4223D01*
X966Y4223D02*
X1008Y4223D01*
X1466Y4223D02*
X1508Y4223D01*
X1966Y4223D02*
X2008Y4223D01*
X2466Y4223D02*
X2508Y4223D01*
X2966Y4223D02*
X3008Y4223D01*
X3466Y4223D02*
X3508Y4223D01*
X3966Y4223D02*
X4008Y4223D01*
X4466Y4223D02*
X4508Y4223D01*
X4966Y4223D02*
X5008Y4223D01*
X468Y4222D02*
X507Y4222D01*
X968Y4222D02*
X1007Y4222D01*
X1468Y4222D02*
X1507Y4222D01*
X1968Y4222D02*
X2007Y4222D01*
X2468Y4222D02*
X2507Y4222D01*
X2968Y4222D02*
X3007Y4222D01*
X3468Y4222D02*
X3507Y4222D01*
X3968Y4222D02*
X4007Y4222D01*
X4468Y4222D02*
X4507Y4222D01*
X4968Y4222D02*
X5007Y4222D01*
X470Y4221D02*
X505Y4221D01*
X970Y4221D02*
X1005Y4221D01*
X1470Y4221D02*
X1505Y4221D01*
X1970Y4221D02*
X2005Y4221D01*
X2469Y4221D02*
X2505Y4221D01*
X2969Y4221D02*
X3005Y4221D01*
X3469Y4221D02*
X3505Y4221D01*
X3969Y4221D02*
X4005Y4221D01*
X4469Y4221D02*
X4505Y4221D01*
X4969Y4221D02*
X5005Y4221D01*
X471Y4220D02*
X503Y4220D01*
X971Y4220D02*
X1003Y4220D01*
X1471Y4220D02*
X1503Y4220D01*
X1971Y4220D02*
X2003Y4220D01*
X2471Y4220D02*
X2503Y4220D01*
X2971Y4220D02*
X3003Y4220D01*
X3471Y4220D02*
X3503Y4220D01*
X3971Y4220D02*
X4003Y4220D01*
X4471Y4220D02*
X4503Y4220D01*
X4971Y4220D02*
X5003Y4220D01*
X474Y4219D02*
X501Y4219D01*
X974Y4219D02*
X1001Y4219D01*
X1474Y4219D02*
X1501Y4219D01*
X1974Y4219D02*
X2001Y4219D01*
X2473Y4219D02*
X2501Y4219D01*
X2973Y4219D02*
X3001Y4219D01*
X3473Y4219D02*
X3501Y4219D01*
X3973Y4219D02*
X4001Y4219D01*
X4473Y4219D02*
X4501Y4219D01*
X4973Y4219D02*
X5001Y4219D01*
X476Y4218D02*
X499Y4218D01*
X976Y4218D02*
X999Y4218D01*
X1476Y4218D02*
X1499Y4218D01*
X1976Y4218D02*
X1999Y4218D01*
X2476Y4218D02*
X2499Y4218D01*
X2976Y4218D02*
X2999Y4218D01*
X3476Y4218D02*
X3499Y4218D01*
X3976Y4218D02*
X3998Y4218D01*
X4476Y4218D02*
X4498Y4218D01*
X4976Y4218D02*
X4998Y4218D01*
X479Y4217D02*
X495Y4217D01*
X980Y4217D02*
X995Y4217D01*
X1479Y4217D02*
X1495Y4217D01*
X1979Y4217D02*
X1995Y4217D01*
X2479Y4217D02*
X2495Y4217D01*
X2979Y4217D02*
X2995Y4217D01*
X3479Y4217D02*
X3495Y4217D01*
X3979Y4217D02*
X3995Y4217D01*
X4479Y4217D02*
X4495Y4217D01*
X4979Y4217D02*
X4995Y4217D01*
X485Y4216D02*
X490Y4216D01*
X985Y4216D02*
X989Y4216D01*
X1485Y4216D02*
X1490Y4216D01*
X1985Y4216D02*
X1989Y4216D01*
X2485Y4216D02*
X2490Y4216D01*
X2985Y4216D02*
X2990Y4216D01*
X3485Y4216D02*
X3490Y4216D01*
X3985Y4216D02*
X3989Y4216D01*
X4485Y4216D02*
X4489Y4216D01*
X4985Y4216D02*
X4989Y4216D01*
X134Y497D02*
X137Y497D01*
X634Y497D02*
X637Y497D01*
X1134Y497D02*
X1137Y497D01*
X1634Y497D02*
X1637Y497D01*
X2134Y497D02*
X2137Y497D01*
X2634Y497D02*
X2637Y497D01*
X3134Y497D02*
X3137Y497D01*
X3634Y497D02*
X3637Y497D01*
X4134Y497D02*
X4137Y497D01*
X4634Y497D02*
X4637Y497D01*
X128Y496D02*
X143Y496D01*
X628Y496D02*
X643Y496D01*
X1128Y496D02*
X1143Y496D01*
X1628Y496D02*
X1643Y496D01*
X2128Y496D02*
X2143Y496D01*
X2628Y496D02*
X2643Y496D01*
X3128Y496D02*
X3143Y496D01*
X3628Y496D02*
X3643Y496D01*
X4127Y496D02*
X4143Y496D01*
X4628Y496D02*
X4643Y496D01*
X124Y495D02*
X147Y495D01*
X624Y495D02*
X647Y495D01*
X1124Y495D02*
X1147Y495D01*
X1624Y495D02*
X1647Y495D01*
X2124Y495D02*
X2147Y495D01*
X2624Y495D02*
X2647Y495D01*
X3124Y495D02*
X3147Y495D01*
X3624Y495D02*
X3647Y495D01*
X4124Y495D02*
X4147Y495D01*
X4624Y495D02*
X4647Y495D01*
X122Y494D02*
X149Y494D01*
X622Y494D02*
X649Y494D01*
X1122Y494D02*
X1149Y494D01*
X1622Y494D02*
X1649Y494D01*
X2122Y494D02*
X2149Y494D01*
X2622Y494D02*
X2649Y494D01*
X3122Y494D02*
X3149Y494D01*
X3622Y494D02*
X3649Y494D01*
X4122Y494D02*
X4149Y494D01*
X4622Y494D02*
X4649Y494D01*
X120Y493D02*
X151Y493D01*
X620Y493D02*
X651Y493D01*
X1120Y493D02*
X1151Y493D01*
X1620Y493D02*
X1651Y493D01*
X2120Y493D02*
X2151Y493D01*
X2620Y493D02*
X2651Y493D01*
X3119Y493D02*
X3151Y493D01*
X3619Y493D02*
X3651Y493D01*
X4119Y493D02*
X4151Y493D01*
X4619Y493D02*
X4651Y493D01*
X118Y492D02*
X153Y492D01*
X618Y492D02*
X653Y492D01*
X1118Y492D02*
X1153Y492D01*
X1618Y492D02*
X1653Y492D01*
X2118Y492D02*
X2153Y492D01*
X2618Y492D02*
X2653Y492D01*
X3118Y492D02*
X3153Y492D01*
X3618Y492D02*
X3653Y492D01*
X4118Y492D02*
X4153Y492D01*
X4618Y492D02*
X4653Y492D01*
X116Y491D02*
X155Y491D01*
X616Y491D02*
X655Y491D01*
X1116Y491D02*
X1155Y491D01*
X1616Y491D02*
X1655Y491D01*
X2116Y491D02*
X2155Y491D01*
X2616Y491D02*
X2655Y491D01*
X3116Y491D02*
X3155Y491D01*
X3616Y491D02*
X3655Y491D01*
X4116Y491D02*
X4155Y491D01*
X4616Y491D02*
X4655Y491D01*
X115Y490D02*
X156Y490D01*
X615Y490D02*
X656Y490D01*
X1115Y490D02*
X1156Y490D01*
X1615Y490D02*
X1656Y490D01*
X2115Y490D02*
X2156Y490D01*
X2615Y490D02*
X2656Y490D01*
X3114Y490D02*
X3156Y490D01*
X3614Y490D02*
X3656Y490D01*
X4114Y490D02*
X4156Y490D01*
X4614Y490D02*
X4656Y490D01*
X113Y489D02*
X158Y489D01*
X613Y489D02*
X658Y489D01*
X1113Y489D02*
X1158Y489D01*
X1613Y489D02*
X1658Y489D01*
X2113Y489D02*
X2158Y489D01*
X2613Y489D02*
X2658Y489D01*
X3113Y489D02*
X3158Y489D01*
X3613Y489D02*
X3658Y489D01*
X4113Y489D02*
X4158Y489D01*
X4613Y489D02*
X4658Y489D01*
X112Y488D02*
X159Y488D01*
X612Y488D02*
X659Y488D01*
X1112Y488D02*
X1159Y488D01*
X1612Y488D02*
X1659Y488D01*
X2112Y488D02*
X2159Y488D01*
X2612Y488D02*
X2659Y488D01*
X3112Y488D02*
X3159Y488D01*
X3612Y488D02*
X3659Y488D01*
X4112Y488D02*
X4159Y488D01*
X4612Y488D02*
X4659Y488D01*
X111Y487D02*
X160Y487D01*
X611Y487D02*
X660Y487D01*
X1111Y487D02*
X1160Y487D01*
X1611Y487D02*
X1660Y487D01*
X2111Y487D02*
X2160Y487D01*
X2611Y487D02*
X2660Y487D01*
X3111Y487D02*
X3160Y487D01*
X3611Y487D02*
X3660Y487D01*
X4111Y487D02*
X4160Y487D01*
X4611Y487D02*
X4660Y487D01*
X110Y486D02*
X161Y486D01*
X610Y486D02*
X661Y486D01*
X1110Y486D02*
X1161Y486D01*
X1610Y486D02*
X1661Y486D01*
X2110Y486D02*
X2161Y486D01*
X2610Y486D02*
X2661Y486D01*
X3110Y486D02*
X3161Y486D01*
X3610Y486D02*
X3661Y486D01*
X4110Y486D02*
X4161Y486D01*
X4610Y486D02*
X4661Y486D01*
X109Y485D02*
X162Y485D01*
X609Y485D02*
X662Y485D01*
X1109Y485D02*
X1162Y485D01*
X1609Y485D02*
X1662Y485D01*
X2109Y485D02*
X2162Y485D01*
X2609Y485D02*
X2662Y485D01*
X3109Y485D02*
X3162Y485D01*
X3609Y485D02*
X3662Y485D01*
X4109Y485D02*
X4162Y485D01*
X4609Y485D02*
X4662Y485D01*
X108Y484D02*
X163Y484D01*
X608Y484D02*
X663Y484D01*
X1108Y484D02*
X1163Y484D01*
X1608Y484D02*
X1663Y484D01*
X2108Y484D02*
X2163Y484D01*
X2608Y484D02*
X2663Y484D01*
X3108Y484D02*
X3163Y484D01*
X3608Y484D02*
X3663Y484D01*
X4108Y484D02*
X4163Y484D01*
X4608Y484D02*
X4663Y484D01*
X107Y483D02*
X164Y483D01*
X607Y483D02*
X664Y483D01*
X1107Y483D02*
X1164Y483D01*
X1607Y483D02*
X1664Y483D01*
X2107Y483D02*
X2164Y483D01*
X2607Y483D02*
X2664Y483D01*
X3107Y483D02*
X3164Y483D01*
X3607Y483D02*
X3663Y483D01*
X4107Y483D02*
X4163Y483D01*
X4607Y483D02*
X4663Y483D01*
X107Y482D02*
X164Y482D01*
X607Y482D02*
X664Y482D01*
X1107Y482D02*
X1164Y482D01*
X1607Y482D02*
X1664Y482D01*
X2107Y482D02*
X2164Y482D01*
X2607Y482D02*
X2664Y482D01*
X3107Y482D02*
X3164Y482D01*
X3607Y482D02*
X3664Y482D01*
X4106Y482D02*
X4164Y482D01*
X4606Y482D02*
X4664Y482D01*
X106Y481D02*
X165Y481D01*
X606Y481D02*
X665Y481D01*
X1106Y481D02*
X1165Y481D01*
X1606Y481D02*
X1665Y481D01*
X2106Y481D02*
X2165Y481D01*
X2606Y481D02*
X2665Y481D01*
X3106Y481D02*
X3165Y481D01*
X3606Y481D02*
X3665Y481D01*
X4106Y481D02*
X4165Y481D01*
X4606Y481D02*
X4665Y481D01*
X105Y480D02*
X166Y480D01*
X605Y480D02*
X666Y480D01*
X1105Y480D02*
X1166Y480D01*
X1605Y480D02*
X1666Y480D01*
X2105Y480D02*
X2166Y480D01*
X2605Y480D02*
X2666Y480D01*
X3105Y480D02*
X3166Y480D01*
X3605Y480D02*
X3666Y480D01*
X4105Y480D02*
X4165Y480D01*
X4605Y480D02*
X4665Y480D01*
X105Y479D02*
X130Y479D01*
X142Y479D02*
X166Y479D01*
X605Y479D02*
X630Y479D01*
X642Y479D02*
X666Y479D01*
X1105Y479D02*
X1130Y479D01*
X1142Y479D02*
X1166Y479D01*
X1605Y479D02*
X1630Y479D01*
X1641Y479D02*
X1666Y479D01*
X2105Y479D02*
X2129Y479D01*
X2141Y479D02*
X2166Y479D01*
X2605Y479D02*
X2629Y479D01*
X2641Y479D02*
X2666Y479D01*
X3105Y479D02*
X3129Y479D01*
X3141Y479D02*
X3166Y479D01*
X3605Y479D02*
X3629Y479D01*
X3641Y479D02*
X3666Y479D01*
X4105Y479D02*
X4129Y479D01*
X4141Y479D02*
X4166Y479D01*
X4605Y479D02*
X4629Y479D01*
X4641Y479D02*
X4666Y479D01*
X104Y478D02*
X127Y478D01*
X144Y478D02*
X167Y478D01*
X604Y478D02*
X627Y478D01*
X644Y478D02*
X667Y478D01*
X1104Y478D02*
X1127Y478D01*
X1144Y478D02*
X1167Y478D01*
X1604Y478D02*
X1627Y478D01*
X1644Y478D02*
X1667Y478D01*
X2104Y478D02*
X2127Y478D01*
X2144Y478D02*
X2167Y478D01*
X2604Y478D02*
X2627Y478D01*
X2644Y478D02*
X2667Y478D01*
X3104Y478D02*
X3127Y478D01*
X3144Y478D02*
X3167Y478D01*
X3604Y478D02*
X3627Y478D01*
X3644Y478D02*
X3667Y478D01*
X4104Y478D02*
X4127Y478D01*
X4144Y478D02*
X4167Y478D01*
X4604Y478D02*
X4627Y478D01*
X4644Y478D02*
X4667Y478D01*
X104Y477D02*
X125Y477D01*
X146Y477D02*
X167Y477D01*
X604Y477D02*
X625Y477D01*
X646Y477D02*
X667Y477D01*
X1104Y477D02*
X1125Y477D01*
X1146Y477D02*
X1167Y477D01*
X1604Y477D02*
X1625Y477D01*
X1646Y477D02*
X1667Y477D01*
X2104Y477D02*
X2125Y477D01*
X2146Y477D02*
X2167Y477D01*
X2604Y477D02*
X2625Y477D01*
X2646Y477D02*
X2667Y477D01*
X3104Y477D02*
X3125Y477D01*
X3146Y477D02*
X3167Y477D01*
X3604Y477D02*
X3625Y477D01*
X3646Y477D02*
X3667Y477D01*
X4104Y477D02*
X4125Y477D01*
X4146Y477D02*
X4167Y477D01*
X4604Y477D02*
X4625Y477D01*
X4646Y477D02*
X4667Y477D01*
X103Y476D02*
X124Y476D01*
X147Y476D02*
X168Y476D01*
X603Y476D02*
X624Y476D01*
X647Y476D02*
X668Y476D01*
X1103Y476D02*
X1124Y476D01*
X1147Y476D02*
X1168Y476D01*
X1603Y476D02*
X1624Y476D01*
X1647Y476D02*
X1668Y476D01*
X2103Y476D02*
X2124Y476D01*
X2147Y476D02*
X2168Y476D01*
X2603Y476D02*
X2624Y476D01*
X2647Y476D02*
X2668Y476D01*
X3103Y476D02*
X3124Y476D01*
X3147Y476D02*
X3168Y476D01*
X3603Y476D02*
X3624Y476D01*
X3647Y476D02*
X3668Y476D01*
X4103Y476D02*
X4124Y476D01*
X4147Y476D02*
X4168Y476D01*
X4603Y476D02*
X4624Y476D01*
X4647Y476D02*
X4668Y476D01*
X103Y475D02*
X123Y475D01*
X149Y475D02*
X168Y475D01*
X603Y475D02*
X623Y475D01*
X649Y475D02*
X668Y475D01*
X1103Y475D02*
X1123Y475D01*
X1148Y475D02*
X1168Y475D01*
X1603Y475D02*
X1623Y475D01*
X1648Y475D02*
X1668Y475D01*
X2103Y475D02*
X2122Y475D01*
X2148Y475D02*
X2168Y475D01*
X2603Y475D02*
X2622Y475D01*
X2648Y475D02*
X2668Y475D01*
X3103Y475D02*
X3122Y475D01*
X3148Y475D02*
X3168Y475D01*
X3603Y475D02*
X3622Y475D01*
X3648Y475D02*
X3668Y475D01*
X4103Y475D02*
X4122Y475D01*
X4148Y475D02*
X4168Y475D01*
X4603Y475D02*
X4622Y475D01*
X4648Y475D02*
X4668Y475D01*
X102Y474D02*
X122Y474D01*
X150Y474D02*
X169Y474D01*
X602Y474D02*
X621Y474D01*
X650Y474D02*
X669Y474D01*
X1102Y474D02*
X1121Y474D01*
X1150Y474D02*
X1169Y474D01*
X1602Y474D02*
X1621Y474D01*
X1650Y474D02*
X1669Y474D01*
X2102Y474D02*
X2121Y474D01*
X2149Y474D02*
X2169Y474D01*
X2602Y474D02*
X2621Y474D01*
X2649Y474D02*
X2669Y474D01*
X3102Y474D02*
X3121Y474D01*
X3149Y474D02*
X3169Y474D01*
X3602Y474D02*
X3621Y474D01*
X3649Y474D02*
X3668Y474D01*
X4102Y474D02*
X4121Y474D01*
X4149Y474D02*
X4168Y474D01*
X4602Y474D02*
X4621Y474D01*
X4649Y474D02*
X4668Y474D01*
X102Y473D02*
X121Y473D01*
X150Y473D02*
X169Y473D01*
X602Y473D02*
X621Y473D01*
X650Y473D02*
X669Y473D01*
X1102Y473D02*
X1121Y473D01*
X1150Y473D02*
X1169Y473D01*
X1602Y473D02*
X1621Y473D01*
X1650Y473D02*
X1669Y473D01*
X2102Y473D02*
X2121Y473D01*
X2150Y473D02*
X2169Y473D01*
X2602Y473D02*
X2621Y473D01*
X2650Y473D02*
X2669Y473D01*
X3102Y473D02*
X3120Y473D01*
X3150Y473D02*
X3169Y473D01*
X3602Y473D02*
X3620Y473D01*
X3650Y473D02*
X3669Y473D01*
X4102Y473D02*
X4120Y473D01*
X4150Y473D02*
X4169Y473D01*
X4602Y473D02*
X4620Y473D01*
X4650Y473D02*
X4669Y473D01*
X102Y472D02*
X120Y472D01*
X151Y472D02*
X169Y472D01*
X602Y472D02*
X620Y472D01*
X651Y472D02*
X669Y472D01*
X1102Y472D02*
X1120Y472D01*
X1151Y472D02*
X1169Y472D01*
X1602Y472D02*
X1620Y472D01*
X1651Y472D02*
X1669Y472D01*
X2102Y472D02*
X2120Y472D01*
X2151Y472D02*
X2169Y472D01*
X2602Y472D02*
X2620Y472D01*
X2651Y472D02*
X2669Y472D01*
X3102Y472D02*
X3120Y472D01*
X3151Y472D02*
X3169Y472D01*
X3602Y472D02*
X3620Y472D01*
X3651Y472D02*
X3669Y472D01*
X4102Y472D02*
X4120Y472D01*
X4151Y472D02*
X4169Y472D01*
X4602Y472D02*
X4620Y472D01*
X4651Y472D02*
X4669Y472D01*
X101Y471D02*
X119Y471D01*
X152Y471D02*
X170Y471D01*
X601Y471D02*
X619Y471D01*
X652Y471D02*
X670Y471D01*
X1101Y471D02*
X1119Y471D01*
X1152Y471D02*
X1170Y471D01*
X1601Y471D02*
X1619Y471D01*
X1652Y471D02*
X1670Y471D01*
X2101Y471D02*
X2119Y471D01*
X2152Y471D02*
X2170Y471D01*
X2601Y471D02*
X2619Y471D01*
X2652Y471D02*
X2670Y471D01*
X3101Y471D02*
X3119Y471D01*
X3152Y471D02*
X3170Y471D01*
X3601Y471D02*
X3619Y471D01*
X3652Y471D02*
X3670Y471D01*
X4101Y471D02*
X4119Y471D01*
X4152Y471D02*
X4169Y471D01*
X4601Y471D02*
X4619Y471D01*
X4652Y471D02*
X4669Y471D01*
X101Y470D02*
X118Y470D01*
X153Y470D02*
X170Y470D01*
X601Y470D02*
X618Y470D01*
X653Y470D02*
X670Y470D01*
X1101Y470D02*
X1118Y470D01*
X1153Y470D02*
X1170Y470D01*
X1601Y470D02*
X1618Y470D01*
X1653Y470D02*
X1670Y470D01*
X2101Y470D02*
X2118Y470D01*
X2153Y470D02*
X2170Y470D01*
X2601Y470D02*
X2618Y470D01*
X2653Y470D02*
X2670Y470D01*
X3101Y470D02*
X3118Y470D01*
X3153Y470D02*
X3170Y470D01*
X3601Y470D02*
X3618Y470D01*
X3652Y470D02*
X3670Y470D01*
X4101Y470D02*
X4118Y470D01*
X4152Y470D02*
X4170Y470D01*
X4601Y470D02*
X4618Y470D01*
X4652Y470D02*
X4670Y470D01*
X101Y469D02*
X118Y469D01*
X153Y469D02*
X170Y469D01*
X601Y469D02*
X618Y469D01*
X653Y469D02*
X670Y469D01*
X1101Y469D02*
X1118Y469D01*
X1153Y469D02*
X1170Y469D01*
X1601Y469D02*
X1618Y469D01*
X1653Y469D02*
X1670Y469D01*
X2101Y469D02*
X2118Y469D01*
X2153Y469D02*
X2170Y469D01*
X2601Y469D02*
X2618Y469D01*
X2653Y469D02*
X2670Y469D01*
X3101Y469D02*
X3118Y469D01*
X3153Y469D02*
X3170Y469D01*
X3601Y469D02*
X3618Y469D01*
X3653Y469D02*
X3670Y469D01*
X4101Y469D02*
X4118Y469D01*
X4153Y469D02*
X4170Y469D01*
X4601Y469D02*
X4618Y469D01*
X4653Y469D02*
X4670Y469D01*
X101Y468D02*
X117Y468D01*
X154Y468D02*
X171Y468D01*
X601Y468D02*
X617Y468D01*
X654Y468D02*
X670Y468D01*
X1101Y468D02*
X1117Y468D01*
X1154Y468D02*
X1170Y468D01*
X1601Y468D02*
X1617Y468D01*
X1654Y468D02*
X1670Y468D01*
X2101Y468D02*
X2117Y468D01*
X2154Y468D02*
X2170Y468D01*
X2600Y468D02*
X2617Y468D01*
X2654Y468D02*
X2670Y468D01*
X3100Y468D02*
X3117Y468D01*
X3154Y468D02*
X3170Y468D01*
X3600Y468D02*
X3617Y468D01*
X3654Y468D02*
X3670Y468D01*
X4100Y468D02*
X4117Y468D01*
X4153Y468D02*
X4170Y468D01*
X4600Y468D02*
X4617Y468D01*
X4653Y468D02*
X4670Y468D01*
X100Y467D02*
X117Y467D01*
X154Y467D02*
X171Y467D01*
X600Y467D02*
X617Y467D01*
X654Y467D02*
X671Y467D01*
X1100Y467D02*
X1117Y467D01*
X1154Y467D02*
X1171Y467D01*
X1600Y467D02*
X1617Y467D01*
X1654Y467D02*
X1671Y467D01*
X2100Y467D02*
X2117Y467D01*
X2154Y467D02*
X2171Y467D01*
X2600Y467D02*
X2617Y467D01*
X2654Y467D02*
X2671Y467D01*
X3100Y467D02*
X3117Y467D01*
X3154Y467D02*
X3171Y467D01*
X3600Y467D02*
X3617Y467D01*
X3654Y467D02*
X3671Y467D01*
X4100Y467D02*
X4117Y467D01*
X4154Y467D02*
X4170Y467D01*
X4600Y467D02*
X4617Y467D01*
X4654Y467D02*
X4670Y467D01*
X100Y466D02*
X117Y466D01*
X154Y466D02*
X171Y466D01*
X600Y466D02*
X617Y466D01*
X654Y466D02*
X671Y466D01*
X1100Y466D02*
X1117Y466D01*
X1154Y466D02*
X1171Y466D01*
X1600Y466D02*
X1617Y466D01*
X1654Y466D02*
X1671Y466D01*
X2100Y466D02*
X2117Y466D01*
X2154Y466D02*
X2171Y466D01*
X2600Y466D02*
X2617Y466D01*
X2654Y466D02*
X2671Y466D01*
X3100Y466D02*
X3117Y466D01*
X3154Y466D02*
X3171Y466D01*
X3600Y466D02*
X3617Y466D01*
X3654Y466D02*
X3671Y466D01*
X4100Y466D02*
X4117Y466D01*
X4154Y466D02*
X4171Y466D01*
X4600Y466D02*
X4617Y466D01*
X4654Y466D02*
X4671Y466D01*
X100Y465D02*
X117Y465D01*
X155Y465D02*
X171Y465D01*
X600Y465D02*
X617Y465D01*
X655Y465D02*
X671Y465D01*
X1100Y465D02*
X1117Y465D01*
X1155Y465D02*
X1171Y465D01*
X1600Y465D02*
X1617Y465D01*
X1654Y465D02*
X1671Y465D01*
X2100Y465D02*
X2116Y465D01*
X2154Y465D02*
X2171Y465D01*
X2600Y465D02*
X2616Y465D01*
X2654Y465D02*
X2671Y465D01*
X3100Y465D02*
X3116Y465D01*
X3154Y465D02*
X3171Y465D01*
X3600Y465D02*
X3616Y465D01*
X3654Y465D02*
X3671Y465D01*
X4100Y465D02*
X4116Y465D01*
X4154Y465D02*
X4171Y465D01*
X4600Y465D02*
X4616Y465D01*
X4654Y465D02*
X4671Y465D01*
X100Y464D02*
X116Y464D01*
X155Y464D02*
X171Y464D01*
X600Y464D02*
X616Y464D01*
X655Y464D02*
X671Y464D01*
X1100Y464D02*
X1116Y464D01*
X1155Y464D02*
X1171Y464D01*
X1600Y464D02*
X1616Y464D01*
X1655Y464D02*
X1671Y464D01*
X2100Y464D02*
X2116Y464D01*
X2155Y464D02*
X2171Y464D01*
X2600Y464D02*
X2616Y464D01*
X2655Y464D02*
X2671Y464D01*
X3100Y464D02*
X3116Y464D01*
X3155Y464D02*
X3171Y464D01*
X3600Y464D02*
X3616Y464D01*
X3655Y464D02*
X3671Y464D01*
X4100Y464D02*
X4116Y464D01*
X4154Y464D02*
X4171Y464D01*
X4600Y464D02*
X4616Y464D01*
X4654Y464D02*
X4671Y464D01*
X100Y463D02*
X116Y463D01*
X155Y463D02*
X171Y463D01*
X600Y463D02*
X616Y463D01*
X655Y463D02*
X671Y463D01*
X1100Y463D02*
X1116Y463D01*
X1155Y463D02*
X1171Y463D01*
X1600Y463D02*
X1616Y463D01*
X1655Y463D02*
X1671Y463D01*
X2100Y463D02*
X2116Y463D01*
X2155Y463D02*
X2171Y463D01*
X2600Y463D02*
X2616Y463D01*
X2655Y463D02*
X2671Y463D01*
X3100Y463D02*
X3116Y463D01*
X3155Y463D02*
X3171Y463D01*
X3600Y463D02*
X3616Y463D01*
X3655Y463D02*
X3671Y463D01*
X4100Y463D02*
X4116Y463D01*
X4155Y463D02*
X4171Y463D01*
X4600Y463D02*
X4616Y463D01*
X4655Y463D02*
X4671Y463D01*
X100Y462D02*
X116Y462D01*
X155Y462D02*
X171Y462D01*
X600Y462D02*
X616Y462D01*
X655Y462D02*
X671Y462D01*
X1100Y462D02*
X1116Y462D01*
X1155Y462D02*
X1171Y462D01*
X1600Y462D02*
X1616Y462D01*
X1655Y462D02*
X1671Y462D01*
X2100Y462D02*
X2116Y462D01*
X2155Y462D02*
X2171Y462D01*
X2600Y462D02*
X2616Y462D01*
X2655Y462D02*
X2671Y462D01*
X3100Y462D02*
X3116Y462D01*
X3155Y462D02*
X3171Y462D01*
X3600Y462D02*
X3616Y462D01*
X3655Y462D02*
X3671Y462D01*
X4100Y462D02*
X4116Y462D01*
X4155Y462D02*
X4171Y462D01*
X4600Y462D02*
X4616Y462D01*
X4655Y462D02*
X4671Y462D01*
X100Y461D02*
X116Y461D01*
X155Y461D02*
X171Y461D01*
X600Y461D02*
X616Y461D01*
X655Y461D02*
X671Y461D01*
X1100Y461D02*
X1116Y461D01*
X1155Y461D02*
X1171Y461D01*
X1600Y461D02*
X1616Y461D01*
X1655Y461D02*
X1671Y461D01*
X2100Y461D02*
X2116Y461D01*
X2155Y461D02*
X2171Y461D01*
X2600Y461D02*
X2616Y461D01*
X2655Y461D02*
X2671Y461D01*
X3100Y461D02*
X3116Y461D01*
X3155Y461D02*
X3171Y461D01*
X3600Y461D02*
X3616Y461D01*
X3655Y461D02*
X3671Y461D01*
X4100Y461D02*
X4116Y461D01*
X4155Y461D02*
X4171Y461D01*
X4600Y461D02*
X4616Y461D01*
X4655Y461D02*
X4671Y461D01*
X100Y460D02*
X116Y460D01*
X155Y460D02*
X171Y460D01*
X600Y460D02*
X616Y460D01*
X655Y460D02*
X671Y460D01*
X1100Y460D02*
X1116Y460D01*
X1155Y460D02*
X1171Y460D01*
X1600Y460D02*
X1616Y460D01*
X1655Y460D02*
X1671Y460D01*
X2100Y460D02*
X2116Y460D01*
X2155Y460D02*
X2171Y460D01*
X2600Y460D02*
X2616Y460D01*
X2655Y460D02*
X2671Y460D01*
X3100Y460D02*
X3116Y460D01*
X3155Y460D02*
X3171Y460D01*
X3600Y460D02*
X3616Y460D01*
X3655Y460D02*
X3671Y460D01*
X4100Y460D02*
X4116Y460D01*
X4155Y460D02*
X4171Y460D01*
X4600Y460D02*
X4616Y460D01*
X4655Y460D02*
X4671Y460D01*
X100Y459D02*
X116Y459D01*
X155Y459D02*
X171Y459D01*
X600Y459D02*
X616Y459D01*
X655Y459D02*
X671Y459D01*
X1100Y459D02*
X1116Y459D01*
X1155Y459D02*
X1171Y459D01*
X1600Y459D02*
X1616Y459D01*
X1655Y459D02*
X1671Y459D01*
X2100Y459D02*
X2116Y459D01*
X2155Y459D02*
X2171Y459D01*
X2600Y459D02*
X2616Y459D01*
X2655Y459D02*
X2671Y459D01*
X3100Y459D02*
X3116Y459D01*
X3155Y459D02*
X3171Y459D01*
X3600Y459D02*
X3616Y459D01*
X3655Y459D02*
X3671Y459D01*
X4100Y459D02*
X4116Y459D01*
X4155Y459D02*
X4171Y459D01*
X4600Y459D02*
X4616Y459D01*
X4655Y459D02*
X4671Y459D01*
X100Y458D02*
X116Y458D01*
X155Y458D02*
X171Y458D01*
X600Y458D02*
X616Y458D01*
X655Y458D02*
X671Y458D01*
X1100Y458D02*
X1116Y458D01*
X1155Y458D02*
X1171Y458D01*
X1600Y458D02*
X1616Y458D01*
X1655Y458D02*
X1671Y458D01*
X2100Y458D02*
X2116Y458D01*
X2155Y458D02*
X2171Y458D01*
X2600Y458D02*
X2616Y458D01*
X2655Y458D02*
X2671Y458D01*
X3100Y458D02*
X3116Y458D01*
X3155Y458D02*
X3171Y458D01*
X3600Y458D02*
X3616Y458D01*
X3655Y458D02*
X3671Y458D01*
X4100Y458D02*
X4116Y458D01*
X4154Y458D02*
X4171Y458D01*
X4600Y458D02*
X4616Y458D01*
X4654Y458D02*
X4671Y458D01*
X100Y457D02*
X117Y457D01*
X155Y457D02*
X171Y457D01*
X600Y457D02*
X617Y457D01*
X655Y457D02*
X671Y457D01*
X1100Y457D02*
X1116Y457D01*
X1155Y457D02*
X1171Y457D01*
X1600Y457D02*
X1616Y457D01*
X1655Y457D02*
X1671Y457D01*
X2100Y457D02*
X2116Y457D01*
X2154Y457D02*
X2171Y457D01*
X2600Y457D02*
X2616Y457D01*
X2654Y457D02*
X2671Y457D01*
X3100Y457D02*
X3116Y457D01*
X3154Y457D02*
X3171Y457D01*
X3600Y457D02*
X3616Y457D01*
X3654Y457D02*
X3671Y457D01*
X4100Y457D02*
X4116Y457D01*
X4154Y457D02*
X4171Y457D01*
X4600Y457D02*
X4616Y457D01*
X4654Y457D02*
X4671Y457D01*
X100Y456D02*
X117Y456D01*
X154Y456D02*
X171Y456D01*
X600Y456D02*
X617Y456D01*
X654Y456D02*
X671Y456D01*
X1100Y456D02*
X1117Y456D01*
X1154Y456D02*
X1171Y456D01*
X1600Y456D02*
X1617Y456D01*
X1654Y456D02*
X1671Y456D01*
X2100Y456D02*
X2117Y456D01*
X2154Y456D02*
X2171Y456D01*
X2600Y456D02*
X2617Y456D01*
X2654Y456D02*
X2671Y456D01*
X3100Y456D02*
X3117Y456D01*
X3154Y456D02*
X3171Y456D01*
X3600Y456D02*
X3617Y456D01*
X3654Y456D02*
X3671Y456D01*
X4100Y456D02*
X4117Y456D01*
X4154Y456D02*
X4171Y456D01*
X4600Y456D02*
X4617Y456D01*
X4654Y456D02*
X4671Y456D01*
X100Y455D02*
X117Y455D01*
X154Y455D02*
X171Y455D01*
X600Y455D02*
X617Y455D01*
X654Y455D02*
X671Y455D01*
X1100Y455D02*
X1117Y455D01*
X1154Y455D02*
X1171Y455D01*
X1600Y455D02*
X1617Y455D01*
X1654Y455D02*
X1671Y455D01*
X2100Y455D02*
X2117Y455D01*
X2154Y455D02*
X2171Y455D01*
X2600Y455D02*
X2617Y455D01*
X2654Y455D02*
X2671Y455D01*
X3100Y455D02*
X3117Y455D01*
X3154Y455D02*
X3171Y455D01*
X3600Y455D02*
X3617Y455D01*
X3654Y455D02*
X3671Y455D01*
X4100Y455D02*
X4117Y455D01*
X4154Y455D02*
X4170Y455D01*
X4600Y455D02*
X4617Y455D01*
X4654Y455D02*
X4670Y455D01*
X101Y454D02*
X117Y454D01*
X154Y454D02*
X171Y454D01*
X601Y454D02*
X617Y454D01*
X654Y454D02*
X671Y454D01*
X1101Y454D02*
X1117Y454D01*
X1154Y454D02*
X1170Y454D01*
X1601Y454D02*
X1617Y454D01*
X1654Y454D02*
X1670Y454D01*
X2100Y454D02*
X2117Y454D01*
X2154Y454D02*
X2170Y454D01*
X2600Y454D02*
X2617Y454D01*
X2654Y454D02*
X2670Y454D01*
X3100Y454D02*
X3117Y454D01*
X3154Y454D02*
X3170Y454D01*
X3600Y454D02*
X3617Y454D01*
X3654Y454D02*
X3670Y454D01*
X4100Y454D02*
X4117Y454D01*
X4154Y454D02*
X4170Y454D01*
X4600Y454D02*
X4617Y454D01*
X4654Y454D02*
X4670Y454D01*
X101Y453D02*
X118Y453D01*
X153Y453D02*
X170Y453D01*
X601Y453D02*
X618Y453D01*
X653Y453D02*
X670Y453D01*
X1101Y453D02*
X1118Y453D01*
X1153Y453D02*
X1170Y453D01*
X1601Y453D02*
X1618Y453D01*
X1653Y453D02*
X1670Y453D01*
X2101Y453D02*
X2118Y453D01*
X2153Y453D02*
X2170Y453D01*
X2601Y453D02*
X2618Y453D01*
X2653Y453D02*
X2670Y453D01*
X3101Y453D02*
X3118Y453D01*
X3153Y453D02*
X3170Y453D01*
X3601Y453D02*
X3618Y453D01*
X3653Y453D02*
X3670Y453D01*
X4101Y453D02*
X4118Y453D01*
X4153Y453D02*
X4170Y453D01*
X4601Y453D02*
X4618Y453D01*
X4653Y453D02*
X4670Y453D01*
X101Y452D02*
X118Y452D01*
X153Y452D02*
X170Y452D01*
X601Y452D02*
X618Y452D01*
X653Y452D02*
X670Y452D01*
X1101Y452D02*
X1118Y452D01*
X1153Y452D02*
X1170Y452D01*
X1601Y452D02*
X1618Y452D01*
X1653Y452D02*
X1670Y452D01*
X2101Y452D02*
X2118Y452D01*
X2153Y452D02*
X2170Y452D01*
X2601Y452D02*
X2618Y452D01*
X2653Y452D02*
X2670Y452D01*
X3101Y452D02*
X3118Y452D01*
X3153Y452D02*
X3170Y452D01*
X3601Y452D02*
X3618Y452D01*
X3653Y452D02*
X3670Y452D01*
X4101Y452D02*
X4118Y452D01*
X4153Y452D02*
X4170Y452D01*
X4601Y452D02*
X4618Y452D01*
X4652Y452D02*
X4670Y452D01*
X101Y451D02*
X119Y451D01*
X152Y451D02*
X170Y451D01*
X601Y451D02*
X619Y451D01*
X652Y451D02*
X670Y451D01*
X1101Y451D02*
X1119Y451D01*
X1152Y451D02*
X1170Y451D01*
X1601Y451D02*
X1619Y451D01*
X1652Y451D02*
X1670Y451D01*
X2101Y451D02*
X2119Y451D01*
X2152Y451D02*
X2170Y451D01*
X2601Y451D02*
X2619Y451D01*
X2652Y451D02*
X2670Y451D01*
X3101Y451D02*
X3119Y451D01*
X3152Y451D02*
X3170Y451D01*
X3601Y451D02*
X3619Y451D01*
X3652Y451D02*
X3670Y451D01*
X4101Y451D02*
X4119Y451D01*
X4152Y451D02*
X4170Y451D01*
X4601Y451D02*
X4619Y451D01*
X4652Y451D02*
X4670Y451D01*
X102Y450D02*
X120Y450D01*
X151Y450D02*
X169Y450D01*
X602Y450D02*
X620Y450D01*
X651Y450D02*
X669Y450D01*
X1102Y450D02*
X1120Y450D01*
X1151Y450D02*
X1169Y450D01*
X1602Y450D02*
X1620Y450D01*
X1651Y450D02*
X1669Y450D01*
X2102Y450D02*
X2120Y450D01*
X2151Y450D02*
X2169Y450D01*
X2602Y450D02*
X2620Y450D01*
X2651Y450D02*
X2669Y450D01*
X3102Y450D02*
X3119Y450D01*
X3151Y450D02*
X3169Y450D01*
X3602Y450D02*
X3619Y450D01*
X3651Y450D02*
X3669Y450D01*
X4101Y450D02*
X4119Y450D01*
X4151Y450D02*
X4169Y450D01*
X4601Y450D02*
X4619Y450D01*
X4651Y450D02*
X4669Y450D01*
X102Y449D02*
X121Y449D01*
X151Y449D02*
X169Y449D01*
X602Y449D02*
X621Y449D01*
X651Y449D02*
X669Y449D01*
X1102Y449D02*
X1120Y449D01*
X1151Y449D02*
X1169Y449D01*
X1602Y449D02*
X1620Y449D01*
X1651Y449D02*
X1669Y449D01*
X2102Y449D02*
X2120Y449D01*
X2151Y449D02*
X2169Y449D01*
X2602Y449D02*
X2620Y449D01*
X2650Y449D02*
X2669Y449D01*
X3102Y449D02*
X3120Y449D01*
X3150Y449D02*
X3169Y449D01*
X3602Y449D02*
X3620Y449D01*
X3650Y449D02*
X3669Y449D01*
X4102Y449D02*
X4120Y449D01*
X4150Y449D02*
X4169Y449D01*
X4602Y449D02*
X4620Y449D01*
X4650Y449D02*
X4669Y449D01*
X102Y448D02*
X121Y448D01*
X150Y448D02*
X169Y448D01*
X602Y448D02*
X621Y448D01*
X650Y448D02*
X669Y448D01*
X1102Y448D02*
X1121Y448D01*
X1150Y448D02*
X1169Y448D01*
X1602Y448D02*
X1621Y448D01*
X1650Y448D02*
X1669Y448D01*
X2102Y448D02*
X2121Y448D01*
X2150Y448D02*
X2169Y448D01*
X2602Y448D02*
X2621Y448D01*
X2650Y448D02*
X2669Y448D01*
X3102Y448D02*
X3121Y448D01*
X3150Y448D02*
X3169Y448D01*
X3602Y448D02*
X3621Y448D01*
X3650Y448D02*
X3669Y448D01*
X4102Y448D02*
X4121Y448D01*
X4150Y448D02*
X4168Y448D01*
X4602Y448D02*
X4621Y448D01*
X4650Y448D02*
X4668Y448D01*
X103Y447D02*
X122Y447D01*
X149Y447D02*
X168Y447D01*
X603Y447D02*
X622Y447D01*
X649Y447D02*
X668Y447D01*
X1103Y447D02*
X1122Y447D01*
X1149Y447D02*
X1168Y447D01*
X1603Y447D02*
X1622Y447D01*
X1649Y447D02*
X1668Y447D01*
X2103Y447D02*
X2122Y447D01*
X2149Y447D02*
X2168Y447D01*
X2603Y447D02*
X2622Y447D01*
X2649Y447D02*
X2668Y447D01*
X3103Y447D02*
X3122Y447D01*
X3149Y447D02*
X3168Y447D01*
X3603Y447D02*
X3622Y447D01*
X3649Y447D02*
X3668Y447D01*
X4103Y447D02*
X4122Y447D01*
X4149Y447D02*
X4168Y447D01*
X4603Y447D02*
X4622Y447D01*
X4648Y447D02*
X4668Y447D01*
X103Y446D02*
X124Y446D01*
X148Y446D02*
X168Y446D01*
X603Y446D02*
X624Y446D01*
X648Y446D02*
X668Y446D01*
X1103Y446D02*
X1124Y446D01*
X1148Y446D02*
X1168Y446D01*
X1603Y446D02*
X1624Y446D01*
X1647Y446D02*
X1668Y446D01*
X2103Y446D02*
X2123Y446D01*
X2147Y446D02*
X2168Y446D01*
X2603Y446D02*
X2623Y446D01*
X2647Y446D02*
X2668Y446D01*
X3103Y446D02*
X3123Y446D01*
X3147Y446D02*
X3168Y446D01*
X3603Y446D02*
X3623Y446D01*
X3647Y446D02*
X3668Y446D01*
X4103Y446D02*
X4123Y446D01*
X4147Y446D02*
X4168Y446D01*
X4603Y446D02*
X4623Y446D01*
X4647Y446D02*
X4668Y446D01*
X104Y445D02*
X125Y445D01*
X146Y445D02*
X167Y445D01*
X604Y445D02*
X625Y445D01*
X646Y445D02*
X667Y445D01*
X1104Y445D02*
X1125Y445D01*
X1146Y445D02*
X1167Y445D01*
X1604Y445D02*
X1625Y445D01*
X1646Y445D02*
X1667Y445D01*
X2104Y445D02*
X2125Y445D01*
X2146Y445D02*
X2167Y445D01*
X2604Y445D02*
X2625Y445D01*
X2646Y445D02*
X2667Y445D01*
X3104Y445D02*
X3125Y445D01*
X3146Y445D02*
X3167Y445D01*
X3604Y445D02*
X3625Y445D01*
X3646Y445D02*
X3667Y445D01*
X4104Y445D02*
X4125Y445D01*
X4146Y445D02*
X4167Y445D01*
X4604Y445D02*
X4625Y445D01*
X4646Y445D02*
X4667Y445D01*
X104Y444D02*
X127Y444D01*
X145Y444D02*
X167Y444D01*
X604Y444D02*
X627Y444D01*
X644Y444D02*
X667Y444D01*
X1104Y444D02*
X1127Y444D01*
X1144Y444D02*
X1167Y444D01*
X1604Y444D02*
X1627Y444D01*
X1644Y444D02*
X1667Y444D01*
X2104Y444D02*
X2126Y444D01*
X2144Y444D02*
X2167Y444D01*
X2604Y444D02*
X2626Y444D01*
X2644Y444D02*
X2667Y444D01*
X3104Y444D02*
X3126Y444D01*
X3144Y444D02*
X3167Y444D01*
X3604Y444D02*
X3626Y444D01*
X3644Y444D02*
X3667Y444D01*
X4104Y444D02*
X4126Y444D01*
X4144Y444D02*
X4167Y444D01*
X4604Y444D02*
X4626Y444D01*
X4644Y444D02*
X4667Y444D01*
X105Y443D02*
X129Y443D01*
X142Y443D02*
X166Y443D01*
X605Y443D02*
X629Y443D01*
X642Y443D02*
X666Y443D01*
X1105Y443D02*
X1129Y443D01*
X1142Y443D02*
X1166Y443D01*
X1605Y443D02*
X1629Y443D01*
X1642Y443D02*
X1666Y443D01*
X2105Y443D02*
X2129Y443D01*
X2142Y443D02*
X2166Y443D01*
X2605Y443D02*
X2629Y443D01*
X2642Y443D02*
X2666Y443D01*
X3105Y443D02*
X3129Y443D01*
X3142Y443D02*
X3166Y443D01*
X3605Y443D02*
X3629Y443D01*
X3642Y443D02*
X3666Y443D01*
X4105Y443D02*
X4129Y443D01*
X4142Y443D02*
X4166Y443D01*
X4605Y443D02*
X4629Y443D01*
X4642Y443D02*
X4666Y443D01*
X105Y442D02*
X166Y442D01*
X605Y442D02*
X666Y442D01*
X1105Y442D02*
X1166Y442D01*
X1605Y442D02*
X1666Y442D01*
X2105Y442D02*
X2166Y442D01*
X2605Y442D02*
X2666Y442D01*
X3105Y442D02*
X3166Y442D01*
X3605Y442D02*
X3666Y442D01*
X4105Y442D02*
X4166Y442D01*
X4605Y442D02*
X4666Y442D01*
X106Y441D02*
X165Y441D01*
X606Y441D02*
X665Y441D01*
X1106Y441D02*
X1165Y441D01*
X1606Y441D02*
X1665Y441D01*
X2106Y441D02*
X2165Y441D01*
X2606Y441D02*
X2665Y441D01*
X3106Y441D02*
X3165Y441D01*
X3606Y441D02*
X3665Y441D01*
X4106Y441D02*
X4165Y441D01*
X4606Y441D02*
X4665Y441D01*
X107Y440D02*
X165Y440D01*
X607Y440D02*
X664Y440D01*
X1107Y440D02*
X1164Y440D01*
X1607Y440D02*
X1664Y440D01*
X2106Y440D02*
X2164Y440D01*
X2606Y440D02*
X2664Y440D01*
X3106Y440D02*
X3164Y440D01*
X3606Y440D02*
X3664Y440D01*
X4106Y440D02*
X4164Y440D01*
X4606Y440D02*
X4664Y440D01*
X107Y439D02*
X164Y439D01*
X607Y439D02*
X664Y439D01*
X1107Y439D02*
X1164Y439D01*
X1607Y439D02*
X1664Y439D01*
X2107Y439D02*
X2164Y439D01*
X2607Y439D02*
X2664Y439D01*
X3107Y439D02*
X3164Y439D01*
X3607Y439D02*
X3664Y439D01*
X4107Y439D02*
X4164Y439D01*
X4607Y439D02*
X4664Y439D01*
X108Y438D02*
X163Y438D01*
X608Y438D02*
X663Y438D01*
X1108Y438D02*
X1163Y438D01*
X1608Y438D02*
X1663Y438D01*
X2108Y438D02*
X2163Y438D01*
X2608Y438D02*
X2663Y438D01*
X3108Y438D02*
X3163Y438D01*
X3608Y438D02*
X3663Y438D01*
X4108Y438D02*
X4163Y438D01*
X4608Y438D02*
X4663Y438D01*
X109Y437D02*
X162Y437D01*
X609Y437D02*
X662Y437D01*
X1109Y437D02*
X1162Y437D01*
X1609Y437D02*
X1662Y437D01*
X2109Y437D02*
X2162Y437D01*
X2609Y437D02*
X2662Y437D01*
X3109Y437D02*
X3162Y437D01*
X3609Y437D02*
X3662Y437D01*
X4109Y437D02*
X4162Y437D01*
X4609Y437D02*
X4662Y437D01*
X110Y436D02*
X161Y436D01*
X610Y436D02*
X661Y436D01*
X1110Y436D02*
X1161Y436D01*
X1610Y436D02*
X1661Y436D01*
X2110Y436D02*
X2161Y436D01*
X2610Y436D02*
X2661Y436D01*
X3110Y436D02*
X3161Y436D01*
X3610Y436D02*
X3661Y436D01*
X4110Y436D02*
X4161Y436D01*
X4610Y436D02*
X4661Y436D01*
X111Y435D02*
X160Y435D01*
X611Y435D02*
X660Y435D01*
X1111Y435D02*
X1160Y435D01*
X1611Y435D02*
X1660Y435D01*
X2111Y435D02*
X2160Y435D01*
X2611Y435D02*
X2660Y435D01*
X3111Y435D02*
X3160Y435D01*
X3611Y435D02*
X3660Y435D01*
X4111Y435D02*
X4160Y435D01*
X4611Y435D02*
X4660Y435D01*
X112Y434D02*
X159Y434D01*
X612Y434D02*
X659Y434D01*
X1112Y434D02*
X1159Y434D01*
X1612Y434D02*
X1659Y434D01*
X2112Y434D02*
X2159Y434D01*
X2612Y434D02*
X2659Y434D01*
X3112Y434D02*
X3159Y434D01*
X3612Y434D02*
X3659Y434D01*
X4112Y434D02*
X4159Y434D01*
X4612Y434D02*
X4659Y434D01*
X113Y433D02*
X158Y433D01*
X613Y433D02*
X658Y433D01*
X1113Y433D02*
X1158Y433D01*
X1613Y433D02*
X1658Y433D01*
X2113Y433D02*
X2158Y433D01*
X2613Y433D02*
X2658Y433D01*
X3113Y433D02*
X3158Y433D01*
X3613Y433D02*
X3658Y433D01*
X4113Y433D02*
X4158Y433D01*
X4613Y433D02*
X4658Y433D01*
X114Y432D02*
X157Y432D01*
X614Y432D02*
X657Y432D01*
X1114Y432D02*
X1157Y432D01*
X1614Y432D02*
X1657Y432D01*
X2114Y432D02*
X2157Y432D01*
X2614Y432D02*
X2657Y432D01*
X3114Y432D02*
X3157Y432D01*
X3614Y432D02*
X3657Y432D01*
X4114Y432D02*
X4156Y432D01*
X4614Y432D02*
X4656Y432D01*
X116Y431D02*
X155Y431D01*
X616Y431D02*
X655Y431D01*
X1116Y431D02*
X1155Y431D01*
X1616Y431D02*
X1655Y431D01*
X2116Y431D02*
X2155Y431D01*
X2616Y431D02*
X2655Y431D01*
X3116Y431D02*
X3155Y431D01*
X3616Y431D02*
X3655Y431D01*
X4116Y431D02*
X4155Y431D01*
X4616Y431D02*
X4655Y431D01*
X118Y430D02*
X154Y430D01*
X618Y430D02*
X654Y430D01*
X1117Y430D02*
X1154Y430D01*
X1617Y430D02*
X1654Y430D01*
X2117Y430D02*
X2154Y430D01*
X2617Y430D02*
X2653Y430D01*
X3117Y430D02*
X3153Y430D01*
X3617Y430D02*
X3653Y430D01*
X4117Y430D02*
X4153Y430D01*
X4617Y430D02*
X4653Y430D01*
X119Y429D02*
X152Y429D01*
X619Y429D02*
X652Y429D01*
X1119Y429D02*
X1152Y429D01*
X1619Y429D02*
X1652Y429D01*
X2119Y429D02*
X2152Y429D01*
X2619Y429D02*
X2652Y429D01*
X3119Y429D02*
X3152Y429D01*
X3619Y429D02*
X3652Y429D01*
X4119Y429D02*
X4152Y429D01*
X4619Y429D02*
X4652Y429D01*
X121Y428D02*
X150Y428D01*
X621Y428D02*
X650Y428D01*
X1121Y428D02*
X1150Y428D01*
X1621Y428D02*
X1650Y428D01*
X2121Y428D02*
X2150Y428D01*
X2621Y428D02*
X2650Y428D01*
X3121Y428D02*
X3150Y428D01*
X3621Y428D02*
X3650Y428D01*
X4121Y428D02*
X4150Y428D01*
X4621Y428D02*
X4649Y428D01*
X124Y427D02*
X147Y427D01*
X624Y427D02*
X647Y427D01*
X1124Y427D02*
X1147Y427D01*
X1624Y427D02*
X1647Y427D01*
X2124Y427D02*
X2147Y427D01*
X2624Y427D02*
X2647Y427D01*
X3124Y427D02*
X3147Y427D01*
X3624Y427D02*
X3647Y427D01*
X4124Y427D02*
X4147Y427D01*
X4624Y427D02*
X4647Y427D01*
X127Y426D02*
X144Y426D01*
X627Y426D02*
X644Y426D01*
X1127Y426D02*
X1144Y426D01*
X1627Y426D02*
X1644Y426D01*
X2127Y426D02*
X2144Y426D01*
X2627Y426D02*
X2644Y426D01*
X3127Y426D02*
X3144Y426D01*
X3627Y426D02*
X3644Y426D01*
X4127Y426D02*
X4144Y426D01*
X4627Y426D02*
X4644Y426D01*
X132Y425D02*
X139Y425D01*
X632Y425D02*
X639Y425D01*
X1132Y425D02*
X1139Y425D01*
X1632Y425D02*
X1639Y425D01*
X2132Y425D02*
X2139Y425D01*
X2632Y425D02*
X2639Y425D01*
X3132Y425D02*
X3139Y425D01*
X3632Y425D02*
X3639Y425D01*
X4132Y425D02*
X4139Y425D01*
X4632Y425D02*
X4639Y425D01*
D02*
G04 End of Copper0*
M02*