G04 MADE WITH FRITZING*
G04 WWW.FRITZING.ORG*
G04 DOUBLE SIDED*
G04 HOLES PLATED*
G04 CONTOUR ON CENTER OF CONTOUR VECTOR*
%ASAXBY*%
%FSLAX23Y23*%
%MOIN*%
%OFA0B0*%
%SFA1.0B1.0*%
%ADD10C,0.076604*%
%ADD11C,0.076632*%
%ADD12C,0.075993*%
%ADD13C,0.088000*%
%ADD14C,0.093307*%
%ADD15C,0.049370*%
%ADD16C,0.082472*%
%ADD17C,0.082445*%
%ADD18C,0.082417*%
%ADD19C,0.150000*%
%ADD20R,0.072992X0.112362*%
%ADD21R,0.112362X0.072992*%
%ADD22C,0.000100*%
%ADD23C,0.030000*%
%ADD24R,0.001000X0.001000*%
%LNMASK1*%
G90*
G70*
G54D10*
X3987Y1602D03*
X4087Y1602D03*
X4187Y1602D03*
X4287Y1602D03*
X4387Y1602D03*
X4487Y1602D03*
X4587Y1602D03*
X4687Y1602D03*
X3087Y1602D03*
X3187Y1602D03*
X3287Y1602D03*
X3387Y1602D03*
X3487Y1602D03*
X3587Y1602D03*
X3687Y1602D03*
X3787Y1602D03*
G54D11*
X3787Y3502D03*
X3887Y3502D03*
X3987Y3502D03*
X4087Y3502D03*
X4187Y3502D03*
X4287Y3502D03*
X4387Y3502D03*
X4487Y3502D03*
G54D10*
X2187Y1602D03*
X2287Y1602D03*
X2387Y1602D03*
X2487Y1602D03*
X2587Y1602D03*
X2687Y1602D03*
X2787Y1602D03*
X2887Y1602D03*
G54D11*
X2727Y3502D03*
X2627Y3502D03*
X2527Y3502D03*
X2427Y3502D03*
X2327Y3502D03*
X2227Y3502D03*
X2127Y3502D03*
X2027Y3502D03*
X1927Y3502D03*
X1827Y3502D03*
X3587Y3502D03*
X3487Y3502D03*
X3387Y3502D03*
X3287Y3502D03*
X3187Y3502D03*
X3087Y3502D03*
X2987Y3502D03*
X2887Y3502D03*
G54D12*
X4787Y3502D03*
X4887Y3502D03*
X4787Y3402D03*
X4887Y3402D03*
X4787Y3302D03*
X4887Y3302D03*
X4787Y3202D03*
X4887Y3202D03*
X4787Y3102D03*
X4887Y3102D03*
X4787Y3002D03*
X4887Y3002D03*
X4787Y2902D03*
X4887Y2902D03*
X4787Y2802D03*
X4887Y2802D03*
X4787Y2702D03*
X4887Y2702D03*
X4787Y2602D03*
X4887Y2602D03*
X4787Y2502D03*
X4887Y2502D03*
X4787Y2402D03*
X4887Y2402D03*
X4787Y2302D03*
X4887Y2302D03*
X4787Y2202D03*
X4887Y2202D03*
X4787Y2102D03*
X4887Y2102D03*
X4787Y2002D03*
X4887Y2002D03*
X4787Y1902D03*
X4887Y1902D03*
X4787Y1802D03*
X4887Y1802D03*
G54D13*
X3835Y861D03*
X3835Y761D03*
X3835Y661D03*
X3835Y561D03*
X2835Y860D03*
X2835Y760D03*
X2835Y660D03*
X2835Y560D03*
X1835Y861D03*
X1835Y761D03*
X1835Y661D03*
X1835Y561D03*
X835Y861D03*
X835Y761D03*
X835Y661D03*
X835Y561D03*
X4187Y4652D03*
X4187Y4552D03*
X4187Y4452D03*
X4187Y4352D03*
X3187Y4652D03*
X3187Y4552D03*
X3187Y4452D03*
X3187Y4352D03*
X4835Y861D03*
X4835Y761D03*
X4835Y661D03*
X4835Y561D03*
X5187Y4652D03*
X5187Y4552D03*
X5187Y4452D03*
X5187Y4352D03*
X2187Y4652D03*
X2187Y4552D03*
X2187Y4452D03*
X2187Y4352D03*
X1187Y4652D03*
X1187Y4552D03*
X1187Y4452D03*
X1187Y4352D03*
G54D14*
X837Y2502D03*
X737Y2502D03*
X637Y2502D03*
X837Y2502D03*
X737Y2502D03*
X637Y2502D03*
X637Y2402D03*
X737Y2402D03*
X837Y2402D03*
X837Y2852D03*
X737Y2852D03*
X637Y2852D03*
X837Y2852D03*
X737Y2852D03*
X637Y2852D03*
X637Y2752D03*
X737Y2752D03*
X837Y2752D03*
X837Y3252D03*
X737Y3252D03*
X637Y3252D03*
X837Y3252D03*
X737Y3252D03*
X637Y3252D03*
X637Y3152D03*
X737Y3152D03*
X837Y3152D03*
X937Y2152D03*
X837Y2152D03*
X737Y2152D03*
X637Y2152D03*
G54D13*
X937Y1952D03*
X837Y1954D03*
G54D15*
X5337Y4802D03*
X5637Y4802D03*
X887Y3852D03*
X1988Y3854D03*
X4287Y1502D03*
X3287Y1502D03*
X2887Y1502D03*
X1287Y1652D03*
X1187Y1652D03*
G54D16*
X3635Y361D03*
X3135Y1061D03*
X3135Y961D03*
X3135Y861D03*
X3135Y761D03*
X3135Y661D03*
G54D17*
X3135Y561D03*
G54D16*
X3135Y360D03*
G54D17*
X3635Y1061D03*
G54D18*
X3635Y961D03*
G54D17*
X3635Y861D03*
G54D16*
X3635Y761D03*
G54D17*
X3635Y661D03*
G54D18*
X3635Y561D03*
G54D16*
X2635Y360D03*
X2135Y1061D03*
X2135Y961D03*
X2135Y861D03*
X2135Y760D03*
X2135Y660D03*
G54D17*
X2135Y560D03*
G54D16*
X2135Y360D03*
G54D17*
X2635Y1061D03*
G54D18*
X2635Y961D03*
G54D17*
X2635Y861D03*
G54D16*
X2635Y760D03*
G54D17*
X2635Y660D03*
G54D18*
X2635Y561D03*
G54D16*
X1635Y361D03*
X1135Y1061D03*
X1135Y961D03*
X1135Y861D03*
X1135Y761D03*
X1135Y661D03*
G54D17*
X1135Y561D03*
G54D16*
X1135Y360D03*
G54D17*
X1635Y1061D03*
G54D18*
X1635Y961D03*
G54D17*
X1635Y861D03*
G54D16*
X1635Y761D03*
G54D17*
X1635Y661D03*
G54D18*
X1635Y561D03*
G54D16*
X635Y361D03*
X135Y1061D03*
X135Y961D03*
X135Y861D03*
X135Y761D03*
X135Y661D03*
G54D17*
X135Y561D03*
G54D16*
X135Y360D03*
G54D17*
X635Y1061D03*
G54D18*
X635Y961D03*
G54D17*
X635Y861D03*
G54D16*
X635Y761D03*
G54D17*
X635Y661D03*
G54D18*
X635Y561D03*
G54D16*
X3987Y4152D03*
X3487Y4852D03*
X3487Y4752D03*
X3487Y4652D03*
X3487Y4552D03*
X3487Y4452D03*
G54D17*
X3487Y4352D03*
G54D16*
X3487Y4152D03*
G54D17*
X3987Y4852D03*
G54D18*
X3987Y4752D03*
G54D17*
X3987Y4652D03*
G54D16*
X3987Y4552D03*
G54D17*
X3987Y4452D03*
G54D18*
X3987Y4352D03*
G54D16*
X2987Y4152D03*
X2487Y4852D03*
X2487Y4752D03*
X2487Y4652D03*
X2487Y4552D03*
X2487Y4452D03*
G54D17*
X2487Y4352D03*
G54D16*
X2487Y4152D03*
G54D17*
X2987Y4852D03*
G54D18*
X2987Y4752D03*
G54D17*
X2987Y4652D03*
G54D16*
X2987Y4552D03*
G54D17*
X2987Y4452D03*
G54D18*
X2987Y4352D03*
G54D16*
X4635Y361D03*
X4135Y1061D03*
X4135Y961D03*
X4135Y861D03*
X4135Y761D03*
X4135Y661D03*
G54D17*
X4135Y561D03*
G54D16*
X4135Y360D03*
G54D17*
X4635Y1061D03*
G54D18*
X4635Y961D03*
G54D17*
X4635Y861D03*
G54D16*
X4635Y761D03*
G54D17*
X4635Y661D03*
G54D18*
X4635Y561D03*
G54D16*
X4987Y4152D03*
X4487Y4852D03*
X4487Y4752D03*
X4487Y4652D03*
X4487Y4552D03*
X4487Y4452D03*
G54D17*
X4487Y4352D03*
G54D16*
X4487Y4152D03*
G54D17*
X4987Y4852D03*
G54D18*
X4987Y4752D03*
G54D17*
X4987Y4652D03*
G54D16*
X4987Y4552D03*
G54D17*
X4987Y4452D03*
G54D18*
X4987Y4352D03*
G54D16*
X1987Y4152D03*
X1487Y4852D03*
X1487Y4752D03*
X1487Y4652D03*
X1487Y4552D03*
X1487Y4452D03*
G54D17*
X1487Y4352D03*
G54D16*
X1487Y4152D03*
G54D17*
X1987Y4852D03*
G54D18*
X1987Y4752D03*
G54D17*
X1987Y4652D03*
G54D16*
X1987Y4552D03*
G54D17*
X1987Y4452D03*
G54D18*
X1987Y4352D03*
G54D16*
X987Y4152D03*
X487Y4852D03*
X487Y4752D03*
X487Y4652D03*
X487Y4552D03*
X487Y4452D03*
G54D17*
X487Y4352D03*
G54D16*
X487Y4152D03*
G54D17*
X987Y4852D03*
G54D18*
X987Y4752D03*
G54D17*
X987Y4652D03*
G54D16*
X987Y4552D03*
G54D17*
X987Y4452D03*
G54D18*
X987Y4352D03*
G54D19*
X5487Y2742D03*
X5487Y2502D03*
X5677Y2622D03*
G54D20*
X4887Y1144D03*
X4887Y1002D03*
X3887Y1344D03*
X3887Y1202D03*
X2887Y1344D03*
X2887Y1202D03*
X1887Y1344D03*
X1887Y1202D03*
X887Y1344D03*
X887Y1202D03*
X5237Y4944D03*
X5237Y4802D03*
X4237Y5144D03*
X4237Y5002D03*
X3237Y5144D03*
X3237Y5002D03*
X2237Y5144D03*
X2237Y5002D03*
X1237Y5144D03*
X1237Y5002D03*
G54D21*
X5495Y2902D03*
X5637Y2902D03*
G54D22*
G36*
X965Y1923D02*
X907Y1924D01*
X908Y1982D01*
X966Y1981D01*
X965Y1923D01*
G37*
G54D23*
X965Y1923D02*
X907Y1924D01*
X908Y1982D01*
X966Y1981D01*
X965Y1923D01*
D02*
G54D24*
X484Y4293D02*
X491Y4293D01*
X984Y4293D02*
X991Y4293D01*
X1484Y4293D02*
X1491Y4293D01*
X1984Y4293D02*
X1991Y4293D01*
X2484Y4293D02*
X2491Y4293D01*
X2984Y4293D02*
X2991Y4293D01*
X3483Y4293D02*
X3491Y4293D01*
X3984Y4293D02*
X3991Y4293D01*
X4483Y4293D02*
X4491Y4293D01*
X4984Y4293D02*
X4991Y4293D01*
X478Y4292D02*
X497Y4292D01*
X978Y4292D02*
X997Y4292D01*
X1478Y4292D02*
X1497Y4292D01*
X1978Y4292D02*
X1997Y4292D01*
X2478Y4292D02*
X2497Y4292D01*
X2978Y4292D02*
X2996Y4292D01*
X3478Y4292D02*
X3497Y4292D01*
X3978Y4292D02*
X3997Y4292D01*
X4478Y4292D02*
X4497Y4292D01*
X4978Y4292D02*
X4996Y4292D01*
X475Y4291D02*
X500Y4291D01*
X975Y4291D02*
X1000Y4291D01*
X1475Y4291D02*
X1500Y4291D01*
X1975Y4291D02*
X2000Y4291D01*
X2475Y4291D02*
X2500Y4291D01*
X2975Y4291D02*
X3000Y4291D01*
X3474Y4291D02*
X3500Y4291D01*
X3974Y4291D02*
X4000Y4291D01*
X4474Y4291D02*
X4500Y4291D01*
X4974Y4291D02*
X5000Y4291D01*
X472Y4290D02*
X503Y4290D01*
X972Y4290D02*
X1003Y4290D01*
X1472Y4290D02*
X1503Y4290D01*
X1972Y4290D02*
X2003Y4290D01*
X2472Y4290D02*
X2503Y4290D01*
X2972Y4290D02*
X3003Y4290D01*
X3472Y4290D02*
X3503Y4290D01*
X3972Y4290D02*
X4003Y4290D01*
X4472Y4290D02*
X4503Y4290D01*
X4972Y4290D02*
X5003Y4290D01*
X470Y4289D02*
X505Y4289D01*
X970Y4289D02*
X1005Y4289D01*
X1470Y4289D02*
X1505Y4289D01*
X1970Y4289D02*
X2005Y4289D01*
X2470Y4289D02*
X2505Y4289D01*
X2970Y4289D02*
X3005Y4289D01*
X3470Y4289D02*
X3505Y4289D01*
X3970Y4289D02*
X4005Y4289D01*
X4470Y4289D02*
X4505Y4289D01*
X4970Y4289D02*
X5005Y4289D01*
X468Y4288D02*
X507Y4288D01*
X968Y4288D02*
X1007Y4288D01*
X1468Y4288D02*
X1507Y4288D01*
X1968Y4288D02*
X2007Y4288D01*
X2468Y4288D02*
X2507Y4288D01*
X2968Y4288D02*
X3007Y4288D01*
X3468Y4288D02*
X3507Y4288D01*
X3968Y4288D02*
X4007Y4288D01*
X4468Y4288D02*
X4507Y4288D01*
X4968Y4288D02*
X5007Y4288D01*
X466Y4287D02*
X509Y4287D01*
X966Y4287D02*
X1009Y4287D01*
X1466Y4287D02*
X1509Y4287D01*
X1966Y4287D02*
X2009Y4287D01*
X2466Y4287D02*
X2509Y4287D01*
X2966Y4287D02*
X3008Y4287D01*
X3466Y4287D02*
X3508Y4287D01*
X3966Y4287D02*
X4008Y4287D01*
X4466Y4287D02*
X4508Y4287D01*
X4966Y4287D02*
X5008Y4287D01*
X465Y4286D02*
X510Y4286D01*
X965Y4286D02*
X1010Y4286D01*
X1465Y4286D02*
X1510Y4286D01*
X1965Y4286D02*
X2010Y4286D01*
X2465Y4286D02*
X2510Y4286D01*
X2965Y4286D02*
X3010Y4286D01*
X3465Y4286D02*
X3510Y4286D01*
X3964Y4286D02*
X4010Y4286D01*
X4464Y4286D02*
X4510Y4286D01*
X4964Y4286D02*
X5010Y4286D01*
X463Y4285D02*
X512Y4285D01*
X963Y4285D02*
X1012Y4285D01*
X1463Y4285D02*
X1512Y4285D01*
X1963Y4285D02*
X2011Y4285D01*
X2463Y4285D02*
X2511Y4285D01*
X2963Y4285D02*
X3011Y4285D01*
X3463Y4285D02*
X3511Y4285D01*
X3963Y4285D02*
X4011Y4285D01*
X4463Y4285D02*
X4511Y4285D01*
X4963Y4285D02*
X5011Y4285D01*
X462Y4284D02*
X513Y4284D01*
X962Y4284D02*
X1013Y4284D01*
X1462Y4284D02*
X1513Y4284D01*
X1962Y4284D02*
X2013Y4284D01*
X2462Y4284D02*
X2513Y4284D01*
X2962Y4284D02*
X3013Y4284D01*
X3462Y4284D02*
X3513Y4284D01*
X3962Y4284D02*
X4013Y4284D01*
X4462Y4284D02*
X4513Y4284D01*
X4962Y4284D02*
X5013Y4284D01*
X461Y4283D02*
X514Y4283D01*
X961Y4283D02*
X1014Y4283D01*
X1461Y4283D02*
X1514Y4283D01*
X1961Y4283D02*
X2014Y4283D01*
X2461Y4283D02*
X2514Y4283D01*
X2961Y4283D02*
X3014Y4283D01*
X3461Y4283D02*
X3514Y4283D01*
X3961Y4283D02*
X4014Y4283D01*
X4461Y4283D02*
X4514Y4283D01*
X4961Y4283D02*
X5014Y4283D01*
X460Y4282D02*
X515Y4282D01*
X960Y4282D02*
X1015Y4282D01*
X1460Y4282D02*
X1515Y4282D01*
X1960Y4282D02*
X2015Y4282D01*
X2460Y4282D02*
X2515Y4282D01*
X2960Y4282D02*
X3015Y4282D01*
X3459Y4282D02*
X3515Y4282D01*
X3959Y4282D02*
X4015Y4282D01*
X4459Y4282D02*
X4515Y4282D01*
X4959Y4282D02*
X5015Y4282D01*
X459Y4281D02*
X516Y4281D01*
X959Y4281D02*
X1016Y4281D01*
X1459Y4281D02*
X1516Y4281D01*
X1959Y4281D02*
X2016Y4281D01*
X2459Y4281D02*
X2516Y4281D01*
X2958Y4281D02*
X3016Y4281D01*
X3458Y4281D02*
X3516Y4281D01*
X3958Y4281D02*
X4016Y4281D01*
X4458Y4281D02*
X4516Y4281D01*
X4958Y4281D02*
X5016Y4281D01*
X458Y4280D02*
X517Y4280D01*
X958Y4280D02*
X1017Y4280D01*
X1458Y4280D02*
X1517Y4280D01*
X1958Y4280D02*
X2017Y4280D01*
X2458Y4280D02*
X2517Y4280D01*
X2958Y4280D02*
X3017Y4280D01*
X3458Y4280D02*
X3517Y4280D01*
X3958Y4280D02*
X4017Y4280D01*
X4457Y4280D02*
X4517Y4280D01*
X4957Y4280D02*
X5017Y4280D01*
X457Y4279D02*
X518Y4279D01*
X957Y4279D02*
X1018Y4279D01*
X1457Y4279D02*
X1518Y4279D01*
X1957Y4279D02*
X2018Y4279D01*
X2457Y4279D02*
X2518Y4279D01*
X2957Y4279D02*
X3018Y4279D01*
X3457Y4279D02*
X3518Y4279D01*
X3957Y4279D02*
X4018Y4279D01*
X4457Y4279D02*
X4518Y4279D01*
X4957Y4279D02*
X5018Y4279D01*
X456Y4278D02*
X519Y4278D01*
X956Y4278D02*
X1019Y4278D01*
X1456Y4278D02*
X1519Y4278D01*
X1956Y4278D02*
X2019Y4278D01*
X2456Y4278D02*
X2519Y4278D01*
X2956Y4278D02*
X3019Y4278D01*
X3456Y4278D02*
X3519Y4278D01*
X3956Y4278D02*
X4019Y4278D01*
X4456Y4278D02*
X4519Y4278D01*
X4956Y4278D02*
X5019Y4278D01*
X455Y4277D02*
X520Y4277D01*
X955Y4277D02*
X1020Y4277D01*
X1455Y4277D02*
X1520Y4277D01*
X1955Y4277D02*
X2020Y4277D01*
X2455Y4277D02*
X2520Y4277D01*
X2955Y4277D02*
X3019Y4277D01*
X3455Y4277D02*
X3520Y4277D01*
X3955Y4277D02*
X4019Y4277D01*
X4455Y4277D02*
X4519Y4277D01*
X4955Y4277D02*
X5019Y4277D01*
X454Y4276D02*
X520Y4276D01*
X954Y4276D02*
X1020Y4276D01*
X1454Y4276D02*
X1520Y4276D01*
X1954Y4276D02*
X2020Y4276D01*
X2454Y4276D02*
X2520Y4276D01*
X2954Y4276D02*
X3020Y4276D01*
X3454Y4276D02*
X3520Y4276D01*
X3954Y4276D02*
X4020Y4276D01*
X4454Y4276D02*
X4520Y4276D01*
X4954Y4276D02*
X5020Y4276D01*
X454Y4275D02*
X521Y4275D01*
X954Y4275D02*
X1021Y4275D01*
X1454Y4275D02*
X1521Y4275D01*
X1954Y4275D02*
X2021Y4275D01*
X2454Y4275D02*
X2521Y4275D01*
X2954Y4275D02*
X3021Y4275D01*
X3454Y4275D02*
X3521Y4275D01*
X3954Y4275D02*
X4021Y4275D01*
X4454Y4275D02*
X4521Y4275D01*
X4954Y4275D02*
X5021Y4275D01*
X453Y4274D02*
X522Y4274D01*
X953Y4274D02*
X1022Y4274D01*
X1453Y4274D02*
X1522Y4274D01*
X1953Y4274D02*
X2022Y4274D01*
X2453Y4274D02*
X2522Y4274D01*
X2953Y4274D02*
X3022Y4274D01*
X3453Y4274D02*
X3522Y4274D01*
X3953Y4274D02*
X4022Y4274D01*
X4453Y4274D02*
X4522Y4274D01*
X4953Y4274D02*
X5021Y4274D01*
X453Y4273D02*
X522Y4273D01*
X953Y4273D02*
X1022Y4273D01*
X1452Y4273D02*
X1522Y4273D01*
X1952Y4273D02*
X2022Y4273D01*
X2452Y4273D02*
X2522Y4273D01*
X2952Y4273D02*
X3022Y4273D01*
X3452Y4273D02*
X3522Y4273D01*
X3952Y4273D02*
X4022Y4273D01*
X4452Y4273D02*
X4522Y4273D01*
X4952Y4273D02*
X5022Y4273D01*
X452Y4272D02*
X523Y4272D01*
X952Y4272D02*
X1023Y4272D01*
X1452Y4272D02*
X1523Y4272D01*
X1952Y4272D02*
X2023Y4272D01*
X2452Y4272D02*
X2523Y4272D01*
X2952Y4272D02*
X3023Y4272D01*
X3452Y4272D02*
X3523Y4272D01*
X3952Y4272D02*
X4023Y4272D01*
X4452Y4272D02*
X4523Y4272D01*
X4952Y4272D02*
X5023Y4272D01*
X451Y4271D02*
X524Y4271D01*
X951Y4271D02*
X1023Y4271D01*
X1451Y4271D02*
X1523Y4271D01*
X1951Y4271D02*
X2023Y4271D01*
X2451Y4271D02*
X2523Y4271D01*
X2951Y4271D02*
X3023Y4271D01*
X3451Y4271D02*
X3523Y4271D01*
X3951Y4271D02*
X4023Y4271D01*
X4451Y4271D02*
X4523Y4271D01*
X4951Y4271D02*
X5023Y4271D01*
X451Y4270D02*
X524Y4270D01*
X951Y4270D02*
X1024Y4270D01*
X1451Y4270D02*
X1524Y4270D01*
X1951Y4270D02*
X2024Y4270D01*
X2451Y4270D02*
X2524Y4270D01*
X2951Y4270D02*
X3024Y4270D01*
X3451Y4270D02*
X3524Y4270D01*
X3951Y4270D02*
X4024Y4270D01*
X4451Y4270D02*
X4524Y4270D01*
X4951Y4270D02*
X5024Y4270D01*
X450Y4269D02*
X524Y4269D01*
X950Y4269D02*
X1024Y4269D01*
X1450Y4269D02*
X1524Y4269D01*
X1950Y4269D02*
X2024Y4269D01*
X2450Y4269D02*
X2524Y4269D01*
X2950Y4269D02*
X3024Y4269D01*
X3450Y4269D02*
X3524Y4269D01*
X3950Y4269D02*
X4024Y4269D01*
X4450Y4269D02*
X4524Y4269D01*
X4950Y4269D02*
X5024Y4269D01*
X450Y4268D02*
X525Y4268D01*
X950Y4268D02*
X1025Y4268D01*
X1450Y4268D02*
X1525Y4268D01*
X1950Y4268D02*
X2025Y4268D01*
X2450Y4268D02*
X2525Y4268D01*
X2950Y4268D02*
X3025Y4268D01*
X3450Y4268D02*
X3525Y4268D01*
X3950Y4268D02*
X4025Y4268D01*
X4450Y4268D02*
X4525Y4268D01*
X4950Y4268D02*
X5025Y4268D01*
X450Y4267D02*
X525Y4267D01*
X950Y4267D02*
X1025Y4267D01*
X1449Y4267D02*
X1525Y4267D01*
X1949Y4267D02*
X2025Y4267D01*
X2449Y4267D02*
X2525Y4267D01*
X2949Y4267D02*
X3025Y4267D01*
X3449Y4267D02*
X3525Y4267D01*
X3949Y4267D02*
X4025Y4267D01*
X4449Y4267D02*
X4525Y4267D01*
X4949Y4267D02*
X5025Y4267D01*
X449Y4266D02*
X526Y4266D01*
X949Y4266D02*
X1026Y4266D01*
X1449Y4266D02*
X1526Y4266D01*
X1949Y4266D02*
X2026Y4266D01*
X2449Y4266D02*
X2526Y4266D01*
X2949Y4266D02*
X3026Y4266D01*
X3449Y4266D02*
X3526Y4266D01*
X3949Y4266D02*
X4026Y4266D01*
X4449Y4266D02*
X4525Y4266D01*
X4949Y4266D02*
X5025Y4266D01*
X449Y4265D02*
X526Y4265D01*
X949Y4265D02*
X1026Y4265D01*
X1449Y4265D02*
X1526Y4265D01*
X1949Y4265D02*
X2026Y4265D01*
X2449Y4265D02*
X2526Y4265D01*
X2949Y4265D02*
X3026Y4265D01*
X3449Y4265D02*
X3526Y4265D01*
X3949Y4265D02*
X4026Y4265D01*
X4449Y4265D02*
X4526Y4265D01*
X4949Y4265D02*
X5026Y4265D01*
X449Y4264D02*
X526Y4264D01*
X949Y4264D02*
X1026Y4264D01*
X1448Y4264D02*
X1526Y4264D01*
X1948Y4264D02*
X2026Y4264D01*
X2448Y4264D02*
X2526Y4264D01*
X2948Y4264D02*
X3026Y4264D01*
X3448Y4264D02*
X3526Y4264D01*
X3948Y4264D02*
X4026Y4264D01*
X4448Y4264D02*
X4526Y4264D01*
X4948Y4264D02*
X5026Y4264D01*
X448Y4263D02*
X527Y4263D01*
X948Y4263D02*
X1027Y4263D01*
X1448Y4263D02*
X1527Y4263D01*
X1948Y4263D02*
X2027Y4263D01*
X2448Y4263D02*
X2526Y4263D01*
X2948Y4263D02*
X3026Y4263D01*
X3448Y4263D02*
X3526Y4263D01*
X3948Y4263D02*
X4026Y4263D01*
X4448Y4263D02*
X4526Y4263D01*
X4948Y4263D02*
X5026Y4263D01*
X448Y4262D02*
X527Y4262D01*
X948Y4262D02*
X1027Y4262D01*
X1448Y4262D02*
X1527Y4262D01*
X1948Y4262D02*
X2027Y4262D01*
X2448Y4262D02*
X2527Y4262D01*
X2948Y4262D02*
X3027Y4262D01*
X3448Y4262D02*
X3527Y4262D01*
X3948Y4262D02*
X4027Y4262D01*
X4448Y4262D02*
X4527Y4262D01*
X4948Y4262D02*
X5027Y4262D01*
X448Y4261D02*
X527Y4261D01*
X948Y4261D02*
X1027Y4261D01*
X1448Y4261D02*
X1527Y4261D01*
X1948Y4261D02*
X2027Y4261D01*
X2448Y4261D02*
X2527Y4261D01*
X2948Y4261D02*
X3027Y4261D01*
X3448Y4261D02*
X3527Y4261D01*
X3948Y4261D02*
X4027Y4261D01*
X4448Y4261D02*
X4527Y4261D01*
X4948Y4261D02*
X5027Y4261D01*
X448Y4260D02*
X527Y4260D01*
X948Y4260D02*
X1027Y4260D01*
X1447Y4260D02*
X1527Y4260D01*
X1947Y4260D02*
X2027Y4260D01*
X2447Y4260D02*
X2527Y4260D01*
X2947Y4260D02*
X3027Y4260D01*
X3447Y4260D02*
X3527Y4260D01*
X3947Y4260D02*
X4027Y4260D01*
X4447Y4260D02*
X4527Y4260D01*
X4947Y4260D02*
X5027Y4260D01*
X447Y4259D02*
X527Y4259D01*
X947Y4259D02*
X1027Y4259D01*
X1447Y4259D02*
X1527Y4259D01*
X1947Y4259D02*
X2027Y4259D01*
X2447Y4259D02*
X2527Y4259D01*
X2947Y4259D02*
X3027Y4259D01*
X3447Y4259D02*
X3527Y4259D01*
X3947Y4259D02*
X4027Y4259D01*
X4447Y4259D02*
X4527Y4259D01*
X4947Y4259D02*
X5027Y4259D01*
X447Y4258D02*
X528Y4258D01*
X947Y4258D02*
X1028Y4258D01*
X1447Y4258D02*
X1528Y4258D01*
X1947Y4258D02*
X2028Y4258D01*
X2447Y4258D02*
X2528Y4258D01*
X2947Y4258D02*
X3027Y4258D01*
X3447Y4258D02*
X3527Y4258D01*
X3947Y4258D02*
X4027Y4258D01*
X4447Y4258D02*
X4527Y4258D01*
X4947Y4258D02*
X5027Y4258D01*
X447Y4257D02*
X528Y4257D01*
X947Y4257D02*
X1028Y4257D01*
X1447Y4257D02*
X1528Y4257D01*
X1947Y4257D02*
X2028Y4257D01*
X2447Y4257D02*
X2528Y4257D01*
X2947Y4257D02*
X3028Y4257D01*
X3447Y4257D02*
X3528Y4257D01*
X3947Y4257D02*
X4028Y4257D01*
X4447Y4257D02*
X4528Y4257D01*
X4947Y4257D02*
X5028Y4257D01*
X447Y4256D02*
X528Y4256D01*
X947Y4256D02*
X1028Y4256D01*
X1447Y4256D02*
X1528Y4256D01*
X1947Y4256D02*
X2028Y4256D01*
X2447Y4256D02*
X2528Y4256D01*
X2947Y4256D02*
X3028Y4256D01*
X3447Y4256D02*
X3528Y4256D01*
X3947Y4256D02*
X4028Y4256D01*
X4447Y4256D02*
X4528Y4256D01*
X4947Y4256D02*
X5028Y4256D01*
X447Y4255D02*
X528Y4255D01*
X947Y4255D02*
X1028Y4255D01*
X1447Y4255D02*
X1528Y4255D01*
X1947Y4255D02*
X2028Y4255D01*
X2447Y4255D02*
X2528Y4255D01*
X2947Y4255D02*
X3028Y4255D01*
X3447Y4255D02*
X3528Y4255D01*
X3947Y4255D02*
X4028Y4255D01*
X4447Y4255D02*
X4528Y4255D01*
X4947Y4255D02*
X5028Y4255D01*
X447Y4254D02*
X528Y4254D01*
X947Y4254D02*
X1028Y4254D01*
X1447Y4254D02*
X1528Y4254D01*
X1947Y4254D02*
X2028Y4254D01*
X2447Y4254D02*
X2528Y4254D01*
X2947Y4254D02*
X3028Y4254D01*
X3447Y4254D02*
X3528Y4254D01*
X3947Y4254D02*
X4028Y4254D01*
X4447Y4254D02*
X4528Y4254D01*
X4947Y4254D02*
X5028Y4254D01*
X447Y4253D02*
X528Y4253D01*
X947Y4253D02*
X1028Y4253D01*
X1447Y4253D02*
X1528Y4253D01*
X1947Y4253D02*
X2028Y4253D01*
X2447Y4253D02*
X2528Y4253D01*
X2947Y4253D02*
X3028Y4253D01*
X3447Y4253D02*
X3528Y4253D01*
X3947Y4253D02*
X4028Y4253D01*
X4447Y4253D02*
X4528Y4253D01*
X4947Y4253D02*
X5028Y4253D01*
X447Y4252D02*
X528Y4252D01*
X947Y4252D02*
X1028Y4252D01*
X1447Y4252D02*
X1528Y4252D01*
X1947Y4252D02*
X2028Y4252D01*
X2447Y4252D02*
X2528Y4252D01*
X2947Y4252D02*
X3028Y4252D01*
X3447Y4252D02*
X3528Y4252D01*
X3947Y4252D02*
X4028Y4252D01*
X4446Y4252D02*
X4528Y4252D01*
X4946Y4252D02*
X5028Y4252D01*
X447Y4251D02*
X528Y4251D01*
X947Y4251D02*
X1028Y4251D01*
X1447Y4251D02*
X1528Y4251D01*
X1947Y4251D02*
X2028Y4251D01*
X2447Y4251D02*
X2528Y4251D01*
X2947Y4251D02*
X3028Y4251D01*
X3447Y4251D02*
X3528Y4251D01*
X3947Y4251D02*
X4028Y4251D01*
X4447Y4251D02*
X4528Y4251D01*
X4947Y4251D02*
X5028Y4251D01*
X447Y4250D02*
X528Y4250D01*
X947Y4250D02*
X1028Y4250D01*
X1447Y4250D02*
X1528Y4250D01*
X1947Y4250D02*
X2028Y4250D01*
X2447Y4250D02*
X2528Y4250D01*
X2947Y4250D02*
X3028Y4250D01*
X3447Y4250D02*
X3528Y4250D01*
X3947Y4250D02*
X4028Y4250D01*
X4447Y4250D02*
X4528Y4250D01*
X4947Y4250D02*
X5028Y4250D01*
X447Y4249D02*
X528Y4249D01*
X947Y4249D02*
X1028Y4249D01*
X1447Y4249D02*
X1528Y4249D01*
X1947Y4249D02*
X2028Y4249D01*
X2447Y4249D02*
X2528Y4249D01*
X2947Y4249D02*
X3028Y4249D01*
X3447Y4249D02*
X3528Y4249D01*
X3947Y4249D02*
X4028Y4249D01*
X4447Y4249D02*
X4528Y4249D01*
X4947Y4249D02*
X5028Y4249D01*
X447Y4248D02*
X528Y4248D01*
X947Y4248D02*
X1028Y4248D01*
X1447Y4248D02*
X1528Y4248D01*
X1947Y4248D02*
X2028Y4248D01*
X2447Y4248D02*
X2528Y4248D01*
X2947Y4248D02*
X3028Y4248D01*
X3447Y4248D02*
X3528Y4248D01*
X3947Y4248D02*
X4028Y4248D01*
X4447Y4248D02*
X4528Y4248D01*
X4947Y4248D02*
X5028Y4248D01*
X447Y4247D02*
X528Y4247D01*
X947Y4247D02*
X1028Y4247D01*
X1447Y4247D02*
X1528Y4247D01*
X1947Y4247D02*
X2028Y4247D01*
X2447Y4247D02*
X2528Y4247D01*
X2947Y4247D02*
X3028Y4247D01*
X3447Y4247D02*
X3528Y4247D01*
X3947Y4247D02*
X4028Y4247D01*
X4447Y4247D02*
X4528Y4247D01*
X4947Y4247D02*
X5028Y4247D01*
X447Y4246D02*
X528Y4246D01*
X947Y4246D02*
X1028Y4246D01*
X1447Y4246D02*
X1528Y4246D01*
X1947Y4246D02*
X2028Y4246D01*
X2447Y4246D02*
X2528Y4246D01*
X2947Y4246D02*
X3027Y4246D01*
X3447Y4246D02*
X3527Y4246D01*
X3947Y4246D02*
X4027Y4246D01*
X4447Y4246D02*
X4527Y4246D01*
X4947Y4246D02*
X5027Y4246D01*
X447Y4245D02*
X527Y4245D01*
X947Y4245D02*
X1027Y4245D01*
X1447Y4245D02*
X1527Y4245D01*
X1947Y4245D02*
X2027Y4245D01*
X2447Y4245D02*
X2527Y4245D01*
X2947Y4245D02*
X3027Y4245D01*
X3447Y4245D02*
X3527Y4245D01*
X3947Y4245D02*
X4027Y4245D01*
X4447Y4245D02*
X4527Y4245D01*
X4947Y4245D02*
X5027Y4245D01*
X448Y4244D02*
X527Y4244D01*
X948Y4244D02*
X1027Y4244D01*
X1448Y4244D02*
X1527Y4244D01*
X1948Y4244D02*
X2027Y4244D01*
X2447Y4244D02*
X2527Y4244D01*
X2947Y4244D02*
X3027Y4244D01*
X3447Y4244D02*
X3527Y4244D01*
X3947Y4244D02*
X4027Y4244D01*
X4447Y4244D02*
X4527Y4244D01*
X4947Y4244D02*
X5027Y4244D01*
X448Y4243D02*
X527Y4243D01*
X948Y4243D02*
X1027Y4243D01*
X1448Y4243D02*
X1527Y4243D01*
X1948Y4243D02*
X2027Y4243D01*
X2448Y4243D02*
X2527Y4243D01*
X2948Y4243D02*
X3027Y4243D01*
X3448Y4243D02*
X3527Y4243D01*
X3948Y4243D02*
X4027Y4243D01*
X4448Y4243D02*
X4527Y4243D01*
X4948Y4243D02*
X5027Y4243D01*
X448Y4242D02*
X527Y4242D01*
X948Y4242D02*
X1027Y4242D01*
X1448Y4242D02*
X1527Y4242D01*
X1948Y4242D02*
X2027Y4242D01*
X2448Y4242D02*
X2527Y4242D01*
X2948Y4242D02*
X3027Y4242D01*
X3448Y4242D02*
X3527Y4242D01*
X3948Y4242D02*
X4027Y4242D01*
X4448Y4242D02*
X4527Y4242D01*
X4948Y4242D02*
X5027Y4242D01*
X448Y4241D02*
X527Y4241D01*
X948Y4241D02*
X1027Y4241D01*
X1448Y4241D02*
X1527Y4241D01*
X1948Y4241D02*
X2026Y4241D01*
X2448Y4241D02*
X2526Y4241D01*
X2948Y4241D02*
X3026Y4241D01*
X3448Y4241D02*
X3526Y4241D01*
X3948Y4241D02*
X4026Y4241D01*
X4448Y4241D02*
X4526Y4241D01*
X4948Y4241D02*
X5026Y4241D01*
X449Y4240D02*
X526Y4240D01*
X949Y4240D02*
X1026Y4240D01*
X1449Y4240D02*
X1526Y4240D01*
X1948Y4240D02*
X2026Y4240D01*
X2448Y4240D02*
X2526Y4240D01*
X2948Y4240D02*
X3026Y4240D01*
X3448Y4240D02*
X3526Y4240D01*
X3948Y4240D02*
X4026Y4240D01*
X4448Y4240D02*
X4526Y4240D01*
X4948Y4240D02*
X5026Y4240D01*
X449Y4239D02*
X526Y4239D01*
X949Y4239D02*
X1026Y4239D01*
X1449Y4239D02*
X1526Y4239D01*
X1949Y4239D02*
X2026Y4239D01*
X2449Y4239D02*
X2526Y4239D01*
X2949Y4239D02*
X3026Y4239D01*
X3449Y4239D02*
X3526Y4239D01*
X3949Y4239D02*
X4026Y4239D01*
X4449Y4239D02*
X4526Y4239D01*
X4949Y4239D02*
X5026Y4239D01*
X449Y4238D02*
X526Y4238D01*
X949Y4238D02*
X1026Y4238D01*
X1449Y4238D02*
X1526Y4238D01*
X1949Y4238D02*
X2026Y4238D01*
X2449Y4238D02*
X2526Y4238D01*
X2949Y4238D02*
X3025Y4238D01*
X3449Y4238D02*
X3525Y4238D01*
X3949Y4238D02*
X4025Y4238D01*
X4449Y4238D02*
X4525Y4238D01*
X4949Y4238D02*
X5025Y4238D01*
X450Y4237D02*
X525Y4237D01*
X950Y4237D02*
X1025Y4237D01*
X1450Y4237D02*
X1525Y4237D01*
X1950Y4237D02*
X2025Y4237D01*
X2449Y4237D02*
X2525Y4237D01*
X2949Y4237D02*
X3025Y4237D01*
X3449Y4237D02*
X3525Y4237D01*
X3949Y4237D02*
X4025Y4237D01*
X4449Y4237D02*
X4525Y4237D01*
X4949Y4237D02*
X5025Y4237D01*
X450Y4236D02*
X525Y4236D01*
X950Y4236D02*
X1025Y4236D01*
X1450Y4236D02*
X1525Y4236D01*
X1950Y4236D02*
X2025Y4236D01*
X2450Y4236D02*
X2525Y4236D01*
X2950Y4236D02*
X3025Y4236D01*
X3450Y4236D02*
X3525Y4236D01*
X3950Y4236D02*
X4025Y4236D01*
X4450Y4236D02*
X4525Y4236D01*
X4950Y4236D02*
X5025Y4236D01*
X450Y4235D02*
X524Y4235D01*
X950Y4235D02*
X1024Y4235D01*
X1450Y4235D02*
X1524Y4235D01*
X1950Y4235D02*
X2024Y4235D01*
X2450Y4235D02*
X2524Y4235D01*
X2950Y4235D02*
X3024Y4235D01*
X3450Y4235D02*
X3524Y4235D01*
X3950Y4235D02*
X4024Y4235D01*
X4450Y4235D02*
X4524Y4235D01*
X4950Y4235D02*
X5024Y4235D01*
X451Y4234D02*
X524Y4234D01*
X951Y4234D02*
X1024Y4234D01*
X1451Y4234D02*
X1524Y4234D01*
X1951Y4234D02*
X2024Y4234D01*
X2451Y4234D02*
X2524Y4234D01*
X2951Y4234D02*
X3024Y4234D01*
X3451Y4234D02*
X3524Y4234D01*
X3951Y4234D02*
X4024Y4234D01*
X4451Y4234D02*
X4524Y4234D01*
X4951Y4234D02*
X5024Y4234D01*
X451Y4233D02*
X523Y4233D01*
X951Y4233D02*
X1023Y4233D01*
X1451Y4233D02*
X1523Y4233D01*
X1951Y4233D02*
X2023Y4233D01*
X2451Y4233D02*
X2523Y4233D01*
X2951Y4233D02*
X3023Y4233D01*
X3451Y4233D02*
X3523Y4233D01*
X3951Y4233D02*
X4023Y4233D01*
X4451Y4233D02*
X4523Y4233D01*
X4951Y4233D02*
X5023Y4233D01*
X452Y4232D02*
X523Y4232D01*
X952Y4232D02*
X1023Y4232D01*
X1452Y4232D02*
X1523Y4232D01*
X1952Y4232D02*
X2023Y4232D01*
X2452Y4232D02*
X2523Y4232D01*
X2952Y4232D02*
X3023Y4232D01*
X3452Y4232D02*
X3523Y4232D01*
X3952Y4232D02*
X4023Y4232D01*
X4452Y4232D02*
X4523Y4232D01*
X4952Y4232D02*
X5023Y4232D01*
X453Y4231D02*
X522Y4231D01*
X953Y4231D02*
X1022Y4231D01*
X1453Y4231D02*
X1522Y4231D01*
X1953Y4231D02*
X2022Y4231D01*
X2452Y4231D02*
X2522Y4231D01*
X2952Y4231D02*
X3022Y4231D01*
X3452Y4231D02*
X3522Y4231D01*
X3952Y4231D02*
X4022Y4231D01*
X4452Y4231D02*
X4522Y4231D01*
X4952Y4231D02*
X5022Y4231D01*
X453Y4230D02*
X522Y4230D01*
X953Y4230D02*
X1022Y4230D01*
X1453Y4230D02*
X1522Y4230D01*
X1953Y4230D02*
X2022Y4230D01*
X2453Y4230D02*
X2522Y4230D01*
X2953Y4230D02*
X3022Y4230D01*
X3453Y4230D02*
X3521Y4230D01*
X3953Y4230D02*
X4021Y4230D01*
X4453Y4230D02*
X4521Y4230D01*
X4953Y4230D02*
X5021Y4230D01*
X454Y4229D02*
X521Y4229D01*
X954Y4229D02*
X1021Y4229D01*
X1454Y4229D02*
X1521Y4229D01*
X1954Y4229D02*
X2021Y4229D01*
X2454Y4229D02*
X2521Y4229D01*
X2954Y4229D02*
X3021Y4229D01*
X3454Y4229D02*
X3521Y4229D01*
X3954Y4229D02*
X4021Y4229D01*
X4454Y4229D02*
X4521Y4229D01*
X4954Y4229D02*
X5021Y4229D01*
X455Y4228D02*
X520Y4228D01*
X955Y4228D02*
X1020Y4228D01*
X1455Y4228D02*
X1520Y4228D01*
X1955Y4228D02*
X2020Y4228D01*
X2454Y4228D02*
X2520Y4228D01*
X2954Y4228D02*
X3020Y4228D01*
X3454Y4228D02*
X3520Y4228D01*
X3954Y4228D02*
X4020Y4228D01*
X4454Y4228D02*
X4520Y4228D01*
X4954Y4228D02*
X5020Y4228D01*
X455Y4227D02*
X520Y4227D01*
X955Y4227D02*
X1020Y4227D01*
X1455Y4227D02*
X1520Y4227D01*
X1955Y4227D02*
X2019Y4227D01*
X2455Y4227D02*
X2519Y4227D01*
X2955Y4227D02*
X3019Y4227D01*
X3455Y4227D02*
X3519Y4227D01*
X3955Y4227D02*
X4019Y4227D01*
X4455Y4227D02*
X4519Y4227D01*
X4955Y4227D02*
X5019Y4227D01*
X456Y4226D02*
X519Y4226D01*
X956Y4226D02*
X1019Y4226D01*
X1456Y4226D02*
X1519Y4226D01*
X1956Y4226D02*
X2019Y4226D01*
X2456Y4226D02*
X2519Y4226D01*
X2956Y4226D02*
X3019Y4226D01*
X3456Y4226D02*
X3519Y4226D01*
X3956Y4226D02*
X4019Y4226D01*
X4456Y4226D02*
X4519Y4226D01*
X4956Y4226D02*
X5019Y4226D01*
X457Y4225D02*
X518Y4225D01*
X957Y4225D02*
X1018Y4225D01*
X1457Y4225D02*
X1518Y4225D01*
X1957Y4225D02*
X2018Y4225D01*
X2457Y4225D02*
X2518Y4225D01*
X2957Y4225D02*
X3018Y4225D01*
X3457Y4225D02*
X3518Y4225D01*
X3957Y4225D02*
X4018Y4225D01*
X4457Y4225D02*
X4518Y4225D01*
X4957Y4225D02*
X5018Y4225D01*
X458Y4224D02*
X517Y4224D01*
X958Y4224D02*
X1017Y4224D01*
X1458Y4224D02*
X1517Y4224D01*
X1958Y4224D02*
X2017Y4224D01*
X2458Y4224D02*
X2517Y4224D01*
X2958Y4224D02*
X3017Y4224D01*
X3458Y4224D02*
X3517Y4224D01*
X3958Y4224D02*
X4017Y4224D01*
X4458Y4224D02*
X4517Y4224D01*
X4958Y4224D02*
X5017Y4224D01*
X459Y4223D02*
X516Y4223D01*
X959Y4223D02*
X1016Y4223D01*
X1459Y4223D02*
X1516Y4223D01*
X1959Y4223D02*
X2016Y4223D01*
X2459Y4223D02*
X2516Y4223D01*
X2959Y4223D02*
X3016Y4223D01*
X3459Y4223D02*
X3516Y4223D01*
X3959Y4223D02*
X4016Y4223D01*
X4459Y4223D02*
X4516Y4223D01*
X4959Y4223D02*
X5016Y4223D01*
X460Y4222D02*
X515Y4222D01*
X960Y4222D02*
X1015Y4222D01*
X1460Y4222D02*
X1515Y4222D01*
X1960Y4222D02*
X2015Y4222D01*
X2460Y4222D02*
X2515Y4222D01*
X2960Y4222D02*
X3015Y4222D01*
X3460Y4222D02*
X3515Y4222D01*
X3960Y4222D02*
X4015Y4222D01*
X4460Y4222D02*
X4515Y4222D01*
X4960Y4222D02*
X5015Y4222D01*
X461Y4221D02*
X514Y4221D01*
X961Y4221D02*
X1014Y4221D01*
X1461Y4221D02*
X1514Y4221D01*
X1961Y4221D02*
X2014Y4221D01*
X2461Y4221D02*
X2514Y4221D01*
X2961Y4221D02*
X3014Y4221D01*
X3461Y4221D02*
X3514Y4221D01*
X3961Y4221D02*
X4014Y4221D01*
X4461Y4221D02*
X4514Y4221D01*
X4961Y4221D02*
X5014Y4221D01*
X462Y4220D02*
X513Y4220D01*
X962Y4220D02*
X1013Y4220D01*
X1462Y4220D02*
X1513Y4220D01*
X1962Y4220D02*
X2013Y4220D01*
X2462Y4220D02*
X2513Y4220D01*
X2962Y4220D02*
X3013Y4220D01*
X3462Y4220D02*
X3513Y4220D01*
X3962Y4220D02*
X4013Y4220D01*
X4462Y4220D02*
X4513Y4220D01*
X4962Y4220D02*
X5012Y4220D01*
X463Y4219D02*
X511Y4219D01*
X963Y4219D02*
X1011Y4219D01*
X1463Y4219D02*
X1511Y4219D01*
X1963Y4219D02*
X2011Y4219D01*
X2463Y4219D02*
X2511Y4219D01*
X2963Y4219D02*
X3011Y4219D01*
X3463Y4219D02*
X3511Y4219D01*
X3963Y4219D02*
X4011Y4219D01*
X4463Y4219D02*
X4511Y4219D01*
X4963Y4219D02*
X5011Y4219D01*
X465Y4218D02*
X510Y4218D01*
X965Y4218D02*
X1010Y4218D01*
X1465Y4218D02*
X1510Y4218D01*
X1965Y4218D02*
X2010Y4218D01*
X2465Y4218D02*
X2510Y4218D01*
X2965Y4218D02*
X3010Y4218D01*
X3465Y4218D02*
X3510Y4218D01*
X3965Y4218D02*
X4010Y4218D01*
X4465Y4218D02*
X4510Y4218D01*
X4965Y4218D02*
X5010Y4218D01*
X466Y4217D02*
X508Y4217D01*
X966Y4217D02*
X1008Y4217D01*
X1466Y4217D02*
X1508Y4217D01*
X1966Y4217D02*
X2008Y4217D01*
X2466Y4217D02*
X2508Y4217D01*
X2966Y4217D02*
X3008Y4217D01*
X3466Y4217D02*
X3508Y4217D01*
X3966Y4217D02*
X4008Y4217D01*
X4466Y4217D02*
X4508Y4217D01*
X4966Y4217D02*
X5008Y4217D01*
X468Y4216D02*
X507Y4216D01*
X968Y4216D02*
X1007Y4216D01*
X1468Y4216D02*
X1507Y4216D01*
X1968Y4216D02*
X2007Y4216D01*
X2468Y4216D02*
X2507Y4216D01*
X2968Y4216D02*
X3007Y4216D01*
X3468Y4216D02*
X3507Y4216D01*
X3968Y4216D02*
X4007Y4216D01*
X4468Y4216D02*
X4507Y4216D01*
X4968Y4216D02*
X5007Y4216D01*
X470Y4215D02*
X505Y4215D01*
X970Y4215D02*
X1005Y4215D01*
X1470Y4215D02*
X1505Y4215D01*
X1970Y4215D02*
X2005Y4215D01*
X2470Y4215D02*
X2505Y4215D01*
X2970Y4215D02*
X3005Y4215D01*
X3470Y4215D02*
X3505Y4215D01*
X3970Y4215D02*
X4005Y4215D01*
X4470Y4215D02*
X4505Y4215D01*
X4970Y4215D02*
X5005Y4215D01*
X472Y4214D02*
X503Y4214D01*
X972Y4214D02*
X1003Y4214D01*
X1472Y4214D02*
X1503Y4214D01*
X1972Y4214D02*
X2003Y4214D01*
X2472Y4214D02*
X2503Y4214D01*
X2972Y4214D02*
X3003Y4214D01*
X3472Y4214D02*
X3503Y4214D01*
X3972Y4214D02*
X4003Y4214D01*
X4472Y4214D02*
X4503Y4214D01*
X4972Y4214D02*
X5002Y4214D01*
X475Y4213D02*
X500Y4213D01*
X975Y4213D02*
X1000Y4213D01*
X1475Y4213D02*
X1500Y4213D01*
X1975Y4213D02*
X2000Y4213D01*
X2475Y4213D02*
X2500Y4213D01*
X2975Y4213D02*
X3000Y4213D01*
X3475Y4213D02*
X3500Y4213D01*
X3975Y4213D02*
X4000Y4213D01*
X4475Y4213D02*
X4500Y4213D01*
X4975Y4213D02*
X5000Y4213D01*
X479Y4212D02*
X496Y4212D01*
X979Y4212D02*
X996Y4212D01*
X1479Y4212D02*
X1496Y4212D01*
X1979Y4212D02*
X1996Y4212D01*
X2478Y4212D02*
X2496Y4212D01*
X2978Y4212D02*
X2996Y4212D01*
X3478Y4212D02*
X3496Y4212D01*
X3979Y4212D02*
X3996Y4212D01*
X4478Y4212D02*
X4496Y4212D01*
X4978Y4212D02*
X4996Y4212D01*
X485Y4211D02*
X490Y4211D01*
X985Y4211D02*
X989Y4211D01*
X1485Y4211D02*
X1490Y4211D01*
X1985Y4211D02*
X1989Y4211D01*
X2485Y4211D02*
X2490Y4211D01*
X2985Y4211D02*
X2990Y4211D01*
X3485Y4211D02*
X3490Y4211D01*
X3985Y4211D02*
X3989Y4211D01*
X4485Y4211D02*
X4489Y4211D01*
X4985Y4211D02*
X4989Y4211D01*
X134Y502D02*
X137Y502D01*
X634Y502D02*
X637Y502D01*
X1134Y502D02*
X1137Y502D01*
X1634Y502D02*
X1637Y502D01*
X2134Y502D02*
X2137Y502D01*
X2634Y502D02*
X2637Y502D01*
X3134Y502D02*
X3137Y502D01*
X3634Y502D02*
X3637Y502D01*
X4134Y502D02*
X4137Y502D01*
X4634Y502D02*
X4637Y502D01*
X127Y501D02*
X144Y501D01*
X627Y501D02*
X644Y501D01*
X1127Y501D02*
X1144Y501D01*
X1627Y501D02*
X1644Y501D01*
X2127Y501D02*
X2144Y501D01*
X2627Y501D02*
X2644Y501D01*
X3127Y501D02*
X3144Y501D01*
X3627Y501D02*
X3644Y501D01*
X4127Y501D02*
X4144Y501D01*
X4627Y501D02*
X4644Y501D01*
X123Y500D02*
X148Y500D01*
X623Y500D02*
X648Y500D01*
X1123Y500D02*
X1148Y500D01*
X1623Y500D02*
X1648Y500D01*
X2123Y500D02*
X2148Y500D01*
X2623Y500D02*
X2648Y500D01*
X3123Y500D02*
X3148Y500D01*
X3623Y500D02*
X3648Y500D01*
X4123Y500D02*
X4148Y500D01*
X4623Y500D02*
X4648Y500D01*
X120Y499D02*
X151Y499D01*
X620Y499D02*
X651Y499D01*
X1120Y499D02*
X1151Y499D01*
X1620Y499D02*
X1651Y499D01*
X2120Y499D02*
X2151Y499D01*
X2620Y499D02*
X2651Y499D01*
X3120Y499D02*
X3151Y499D01*
X3620Y499D02*
X3651Y499D01*
X4120Y499D02*
X4151Y499D01*
X4620Y499D02*
X4651Y499D01*
X118Y498D02*
X153Y498D01*
X618Y498D02*
X653Y498D01*
X1118Y498D02*
X1153Y498D01*
X1618Y498D02*
X1653Y498D01*
X2118Y498D02*
X2153Y498D01*
X2618Y498D02*
X2653Y498D01*
X3118Y498D02*
X3153Y498D01*
X3618Y498D02*
X3653Y498D01*
X4118Y498D02*
X4153Y498D01*
X4618Y498D02*
X4653Y498D01*
X116Y497D02*
X155Y497D01*
X616Y497D02*
X655Y497D01*
X1116Y497D02*
X1155Y497D01*
X1616Y497D02*
X1655Y497D01*
X2116Y497D02*
X2155Y497D01*
X2616Y497D02*
X2655Y497D01*
X3116Y497D02*
X3155Y497D01*
X3616Y497D02*
X3655Y497D01*
X4116Y497D02*
X4155Y497D01*
X4616Y497D02*
X4655Y497D01*
X115Y496D02*
X157Y496D01*
X615Y496D02*
X656Y496D01*
X1115Y496D02*
X1156Y496D01*
X1615Y496D02*
X1656Y496D01*
X2114Y496D02*
X2156Y496D01*
X2614Y496D02*
X2656Y496D01*
X3114Y496D02*
X3156Y496D01*
X3614Y496D02*
X3656Y496D01*
X4114Y496D02*
X4156Y496D01*
X4614Y496D02*
X4656Y496D01*
X113Y495D02*
X158Y495D01*
X613Y495D02*
X658Y495D01*
X1113Y495D02*
X1158Y495D01*
X1613Y495D02*
X1658Y495D01*
X2113Y495D02*
X2158Y495D01*
X2613Y495D02*
X2658Y495D01*
X3113Y495D02*
X3158Y495D01*
X3613Y495D02*
X3658Y495D01*
X4113Y495D02*
X4158Y495D01*
X4613Y495D02*
X4658Y495D01*
X112Y494D02*
X160Y494D01*
X612Y494D02*
X659Y494D01*
X1112Y494D02*
X1159Y494D01*
X1612Y494D02*
X1659Y494D01*
X2112Y494D02*
X2159Y494D01*
X2611Y494D02*
X2659Y494D01*
X3111Y494D02*
X3159Y494D01*
X3611Y494D02*
X3659Y494D01*
X4111Y494D02*
X4159Y494D01*
X4611Y494D02*
X4659Y494D01*
X110Y493D02*
X161Y493D01*
X610Y493D02*
X661Y493D01*
X1110Y493D02*
X1161Y493D01*
X1610Y493D02*
X1661Y493D01*
X2110Y493D02*
X2161Y493D01*
X2610Y493D02*
X2661Y493D01*
X3110Y493D02*
X3161Y493D01*
X3610Y493D02*
X3661Y493D01*
X4110Y493D02*
X4161Y493D01*
X4610Y493D02*
X4661Y493D01*
X109Y492D02*
X162Y492D01*
X609Y492D02*
X662Y492D01*
X1109Y492D02*
X1162Y492D01*
X1609Y492D02*
X1662Y492D01*
X2109Y492D02*
X2162Y492D01*
X2609Y492D02*
X2662Y492D01*
X3109Y492D02*
X3162Y492D01*
X3609Y492D02*
X3662Y492D01*
X4109Y492D02*
X4162Y492D01*
X4609Y492D02*
X4662Y492D01*
X108Y491D02*
X163Y491D01*
X608Y491D02*
X663Y491D01*
X1108Y491D02*
X1163Y491D01*
X1608Y491D02*
X1663Y491D01*
X2108Y491D02*
X2163Y491D01*
X2608Y491D02*
X2663Y491D01*
X3108Y491D02*
X3163Y491D01*
X3608Y491D02*
X3663Y491D01*
X4108Y491D02*
X4163Y491D01*
X4608Y491D02*
X4663Y491D01*
X107Y490D02*
X164Y490D01*
X607Y490D02*
X664Y490D01*
X1107Y490D02*
X1164Y490D01*
X1607Y490D02*
X1664Y490D01*
X2107Y490D02*
X2164Y490D01*
X2607Y490D02*
X2664Y490D01*
X3107Y490D02*
X3164Y490D01*
X3607Y490D02*
X3664Y490D01*
X4107Y490D02*
X4164Y490D01*
X4607Y490D02*
X4664Y490D01*
X106Y489D02*
X165Y489D01*
X606Y489D02*
X665Y489D01*
X1106Y489D02*
X1165Y489D01*
X1606Y489D02*
X1665Y489D01*
X2106Y489D02*
X2165Y489D01*
X2606Y489D02*
X2665Y489D01*
X3106Y489D02*
X3165Y489D01*
X3606Y489D02*
X3665Y489D01*
X4106Y489D02*
X4165Y489D01*
X4606Y489D02*
X4665Y489D01*
X105Y488D02*
X166Y488D01*
X605Y488D02*
X666Y488D01*
X1105Y488D02*
X1166Y488D01*
X1605Y488D02*
X1666Y488D01*
X2105Y488D02*
X2166Y488D01*
X2605Y488D02*
X2666Y488D01*
X3105Y488D02*
X3166Y488D01*
X3605Y488D02*
X3666Y488D01*
X4105Y488D02*
X4166Y488D01*
X4605Y488D02*
X4666Y488D01*
X104Y487D02*
X167Y487D01*
X604Y487D02*
X667Y487D01*
X1104Y487D02*
X1167Y487D01*
X1604Y487D02*
X1667Y487D01*
X2104Y487D02*
X2167Y487D01*
X2604Y487D02*
X2667Y487D01*
X3104Y487D02*
X3167Y487D01*
X3604Y487D02*
X3667Y487D01*
X4104Y487D02*
X4167Y487D01*
X4604Y487D02*
X4667Y487D01*
X103Y486D02*
X168Y486D01*
X603Y486D02*
X668Y486D01*
X1103Y486D02*
X1168Y486D01*
X1603Y486D02*
X1668Y486D01*
X2103Y486D02*
X2168Y486D01*
X2603Y486D02*
X2668Y486D01*
X3103Y486D02*
X3168Y486D01*
X3603Y486D02*
X3667Y486D01*
X4103Y486D02*
X4167Y486D01*
X4603Y486D02*
X4667Y486D01*
X103Y485D02*
X168Y485D01*
X603Y485D02*
X668Y485D01*
X1103Y485D02*
X1168Y485D01*
X1603Y485D02*
X1668Y485D01*
X2103Y485D02*
X2168Y485D01*
X2603Y485D02*
X2668Y485D01*
X3103Y485D02*
X3168Y485D01*
X3603Y485D02*
X3668Y485D01*
X4102Y485D02*
X4168Y485D01*
X4602Y485D02*
X4668Y485D01*
X102Y484D02*
X169Y484D01*
X602Y484D02*
X669Y484D01*
X1102Y484D02*
X1169Y484D01*
X1602Y484D02*
X1669Y484D01*
X2102Y484D02*
X2169Y484D01*
X2602Y484D02*
X2669Y484D01*
X3102Y484D02*
X3169Y484D01*
X3602Y484D02*
X3669Y484D01*
X4102Y484D02*
X4169Y484D01*
X4602Y484D02*
X4669Y484D01*
X101Y483D02*
X170Y483D01*
X601Y483D02*
X670Y483D01*
X1101Y483D02*
X1170Y483D01*
X1601Y483D02*
X1670Y483D01*
X2101Y483D02*
X2170Y483D01*
X2601Y483D02*
X2670Y483D01*
X3101Y483D02*
X3170Y483D01*
X3601Y483D02*
X3670Y483D01*
X4101Y483D02*
X4170Y483D01*
X4601Y483D02*
X4670Y483D01*
X101Y482D02*
X170Y482D01*
X601Y482D02*
X670Y482D01*
X1101Y482D02*
X1170Y482D01*
X1601Y482D02*
X1670Y482D01*
X2101Y482D02*
X2170Y482D01*
X2601Y482D02*
X2670Y482D01*
X3101Y482D02*
X3170Y482D01*
X3601Y482D02*
X3670Y482D01*
X4101Y482D02*
X4170Y482D01*
X4600Y482D02*
X4670Y482D01*
X100Y481D02*
X171Y481D01*
X600Y481D02*
X671Y481D01*
X1100Y481D02*
X1171Y481D01*
X1600Y481D02*
X1671Y481D01*
X2100Y481D02*
X2171Y481D01*
X2600Y481D02*
X2671Y481D01*
X3100Y481D02*
X3171Y481D01*
X3600Y481D02*
X3671Y481D01*
X4100Y481D02*
X4171Y481D01*
X4600Y481D02*
X4671Y481D01*
X100Y480D02*
X172Y480D01*
X600Y480D02*
X672Y480D01*
X1099Y480D02*
X1172Y480D01*
X1599Y480D02*
X1671Y480D01*
X2099Y480D02*
X2171Y480D01*
X2599Y480D02*
X2671Y480D01*
X3099Y480D02*
X3171Y480D01*
X3599Y480D02*
X3671Y480D01*
X4099Y480D02*
X4171Y480D01*
X4599Y480D02*
X4671Y480D01*
X99Y479D02*
X172Y479D01*
X599Y479D02*
X672Y479D01*
X1099Y479D02*
X1172Y479D01*
X1599Y479D02*
X1672Y479D01*
X2099Y479D02*
X2172Y479D01*
X2599Y479D02*
X2672Y479D01*
X3099Y479D02*
X3172Y479D01*
X3599Y479D02*
X3672Y479D01*
X4099Y479D02*
X4172Y479D01*
X4599Y479D02*
X4672Y479D01*
X99Y478D02*
X173Y478D01*
X599Y478D02*
X673Y478D01*
X1099Y478D02*
X1173Y478D01*
X1599Y478D02*
X1672Y478D01*
X2098Y478D02*
X2172Y478D01*
X2598Y478D02*
X2672Y478D01*
X3098Y478D02*
X3172Y478D01*
X3598Y478D02*
X3672Y478D01*
X4098Y478D02*
X4172Y478D01*
X4598Y478D02*
X4672Y478D01*
X98Y477D02*
X173Y477D01*
X598Y477D02*
X673Y477D01*
X1098Y477D02*
X1173Y477D01*
X1598Y477D02*
X1673Y477D01*
X2098Y477D02*
X2173Y477D01*
X2598Y477D02*
X2673Y477D01*
X3098Y477D02*
X3173Y477D01*
X3598Y477D02*
X3673Y477D01*
X4098Y477D02*
X4173Y477D01*
X4598Y477D02*
X4673Y477D01*
X98Y476D02*
X173Y476D01*
X598Y476D02*
X673Y476D01*
X1098Y476D02*
X1173Y476D01*
X1598Y476D02*
X1673Y476D01*
X2098Y476D02*
X2173Y476D01*
X2598Y476D02*
X2673Y476D01*
X3098Y476D02*
X3173Y476D01*
X3598Y476D02*
X3673Y476D01*
X4098Y476D02*
X4173Y476D01*
X4597Y476D02*
X4673Y476D01*
X97Y475D02*
X174Y475D01*
X597Y475D02*
X674Y475D01*
X1097Y475D02*
X1174Y475D01*
X1597Y475D02*
X1674Y475D01*
X2097Y475D02*
X2174Y475D01*
X2597Y475D02*
X2674Y475D01*
X3097Y475D02*
X3174Y475D01*
X3597Y475D02*
X3674Y475D01*
X4097Y475D02*
X4174Y475D01*
X4597Y475D02*
X4674Y475D01*
X97Y474D02*
X174Y474D01*
X597Y474D02*
X674Y474D01*
X1097Y474D02*
X1174Y474D01*
X1597Y474D02*
X1674Y474D01*
X2097Y474D02*
X2174Y474D01*
X2597Y474D02*
X2674Y474D01*
X3097Y474D02*
X3174Y474D01*
X3597Y474D02*
X3674Y474D01*
X4097Y474D02*
X4174Y474D01*
X4597Y474D02*
X4674Y474D01*
X97Y473D02*
X174Y473D01*
X597Y473D02*
X674Y473D01*
X1097Y473D02*
X1174Y473D01*
X1597Y473D02*
X1674Y473D01*
X2097Y473D02*
X2174Y473D01*
X2597Y473D02*
X2674Y473D01*
X3097Y473D02*
X3174Y473D01*
X3597Y473D02*
X3674Y473D01*
X4096Y473D02*
X4174Y473D01*
X4596Y473D02*
X4674Y473D01*
X96Y472D02*
X175Y472D01*
X596Y472D02*
X675Y472D01*
X1096Y472D02*
X1175Y472D01*
X1596Y472D02*
X1675Y472D01*
X2096Y472D02*
X2175Y472D01*
X2596Y472D02*
X2675Y472D01*
X3096Y472D02*
X3175Y472D01*
X3596Y472D02*
X3675Y472D01*
X4096Y472D02*
X4174Y472D01*
X4596Y472D02*
X4674Y472D01*
X96Y471D02*
X175Y471D01*
X596Y471D02*
X675Y471D01*
X1096Y471D02*
X1175Y471D01*
X1596Y471D02*
X1675Y471D01*
X2096Y471D02*
X2175Y471D01*
X2596Y471D02*
X2675Y471D01*
X3096Y471D02*
X3175Y471D01*
X3596Y471D02*
X3675Y471D01*
X4096Y471D02*
X4175Y471D01*
X4596Y471D02*
X4675Y471D01*
X96Y470D02*
X175Y470D01*
X596Y470D02*
X675Y470D01*
X1096Y470D02*
X1175Y470D01*
X1596Y470D02*
X1675Y470D01*
X2096Y470D02*
X2175Y470D01*
X2596Y470D02*
X2675Y470D01*
X3096Y470D02*
X3175Y470D01*
X3596Y470D02*
X3675Y470D01*
X4096Y470D02*
X4175Y470D01*
X4596Y470D02*
X4675Y470D01*
X96Y469D02*
X175Y469D01*
X596Y469D02*
X675Y469D01*
X1096Y469D02*
X1175Y469D01*
X1596Y469D02*
X1675Y469D01*
X2096Y469D02*
X2175Y469D01*
X2596Y469D02*
X2675Y469D01*
X3096Y469D02*
X3175Y469D01*
X3596Y469D02*
X3675Y469D01*
X4095Y469D02*
X4175Y469D01*
X4595Y469D02*
X4675Y469D01*
X96Y468D02*
X176Y468D01*
X596Y468D02*
X676Y468D01*
X1095Y468D02*
X1176Y468D01*
X1595Y468D02*
X1676Y468D01*
X2095Y468D02*
X2175Y468D01*
X2595Y468D02*
X2675Y468D01*
X3095Y468D02*
X3175Y468D01*
X3595Y468D02*
X3675Y468D01*
X4095Y468D02*
X4175Y468D01*
X4595Y468D02*
X4675Y468D01*
X95Y467D02*
X176Y467D01*
X595Y467D02*
X676Y467D01*
X1095Y467D02*
X1176Y467D01*
X1595Y467D02*
X1676Y467D01*
X2095Y467D02*
X2176Y467D01*
X2595Y467D02*
X2676Y467D01*
X3095Y467D02*
X3176Y467D01*
X3595Y467D02*
X3676Y467D01*
X4095Y467D02*
X4176Y467D01*
X4595Y467D02*
X4675Y467D01*
X95Y466D02*
X176Y466D01*
X595Y466D02*
X676Y466D01*
X1095Y466D02*
X1176Y466D01*
X1595Y466D02*
X1676Y466D01*
X2095Y466D02*
X2176Y466D01*
X2595Y466D02*
X2676Y466D01*
X3095Y466D02*
X3176Y466D01*
X3595Y466D02*
X3676Y466D01*
X4095Y466D02*
X4176Y466D01*
X4595Y466D02*
X4676Y466D01*
X95Y465D02*
X176Y465D01*
X595Y465D02*
X676Y465D01*
X1095Y465D02*
X1176Y465D01*
X1595Y465D02*
X1676Y465D01*
X2095Y465D02*
X2176Y465D01*
X2595Y465D02*
X2676Y465D01*
X3095Y465D02*
X3176Y465D01*
X3595Y465D02*
X3676Y465D01*
X4095Y465D02*
X4176Y465D01*
X4595Y465D02*
X4676Y465D01*
X95Y464D02*
X176Y464D01*
X595Y464D02*
X676Y464D01*
X1095Y464D02*
X1176Y464D01*
X1595Y464D02*
X1676Y464D01*
X2095Y464D02*
X2176Y464D01*
X2595Y464D02*
X2676Y464D01*
X3095Y464D02*
X3176Y464D01*
X3595Y464D02*
X3676Y464D01*
X4095Y464D02*
X4176Y464D01*
X4595Y464D02*
X4676Y464D01*
X95Y463D02*
X176Y463D01*
X595Y463D02*
X676Y463D01*
X1095Y463D02*
X1176Y463D01*
X1595Y463D02*
X1676Y463D01*
X2095Y463D02*
X2176Y463D01*
X2595Y463D02*
X2676Y463D01*
X3095Y463D02*
X3176Y463D01*
X3595Y463D02*
X3676Y463D01*
X4095Y463D02*
X4176Y463D01*
X4595Y463D02*
X4676Y463D01*
X95Y462D02*
X176Y462D01*
X595Y462D02*
X676Y462D01*
X1095Y462D02*
X1176Y462D01*
X1595Y462D02*
X1676Y462D01*
X2095Y462D02*
X2176Y462D01*
X2595Y462D02*
X2676Y462D01*
X3095Y462D02*
X3176Y462D01*
X3595Y462D02*
X3676Y462D01*
X4095Y462D02*
X4176Y462D01*
X4595Y462D02*
X4676Y462D01*
X95Y461D02*
X176Y461D01*
X595Y461D02*
X676Y461D01*
X1095Y461D02*
X1176Y461D01*
X1595Y461D02*
X1676Y461D01*
X2095Y461D02*
X2176Y461D01*
X2595Y461D02*
X2676Y461D01*
X3095Y461D02*
X3176Y461D01*
X3595Y461D02*
X3676Y461D01*
X4095Y461D02*
X4176Y461D01*
X4595Y461D02*
X4676Y461D01*
X95Y460D02*
X176Y460D01*
X595Y460D02*
X676Y460D01*
X1095Y460D02*
X1176Y460D01*
X1595Y460D02*
X1676Y460D01*
X2095Y460D02*
X2176Y460D01*
X2595Y460D02*
X2676Y460D01*
X3095Y460D02*
X3176Y460D01*
X3595Y460D02*
X3676Y460D01*
X4095Y460D02*
X4176Y460D01*
X4595Y460D02*
X4676Y460D01*
X95Y459D02*
X176Y459D01*
X595Y459D02*
X676Y459D01*
X1095Y459D02*
X1176Y459D01*
X1595Y459D02*
X1676Y459D01*
X2095Y459D02*
X2176Y459D01*
X2595Y459D02*
X2676Y459D01*
X3095Y459D02*
X3176Y459D01*
X3595Y459D02*
X3676Y459D01*
X4095Y459D02*
X4176Y459D01*
X4595Y459D02*
X4676Y459D01*
X95Y458D02*
X176Y458D01*
X595Y458D02*
X676Y458D01*
X1095Y458D02*
X1176Y458D01*
X1595Y458D02*
X1676Y458D01*
X2095Y458D02*
X2176Y458D01*
X2595Y458D02*
X2676Y458D01*
X3095Y458D02*
X3176Y458D01*
X3595Y458D02*
X3676Y458D01*
X4095Y458D02*
X4176Y458D01*
X4595Y458D02*
X4676Y458D01*
X95Y457D02*
X176Y457D01*
X595Y457D02*
X676Y457D01*
X1095Y457D02*
X1176Y457D01*
X1595Y457D02*
X1676Y457D01*
X2095Y457D02*
X2176Y457D01*
X2595Y457D02*
X2676Y457D01*
X3095Y457D02*
X3176Y457D01*
X3595Y457D02*
X3676Y457D01*
X4095Y457D02*
X4176Y457D01*
X4595Y457D02*
X4676Y457D01*
X95Y456D02*
X176Y456D01*
X595Y456D02*
X676Y456D01*
X1095Y456D02*
X1176Y456D01*
X1595Y456D02*
X1676Y456D01*
X2095Y456D02*
X2176Y456D01*
X2595Y456D02*
X2676Y456D01*
X3095Y456D02*
X3176Y456D01*
X3595Y456D02*
X3676Y456D01*
X4095Y456D02*
X4176Y456D01*
X4595Y456D02*
X4676Y456D01*
X95Y455D02*
X176Y455D01*
X595Y455D02*
X676Y455D01*
X1095Y455D02*
X1176Y455D01*
X1595Y455D02*
X1676Y455D01*
X2095Y455D02*
X2176Y455D01*
X2595Y455D02*
X2676Y455D01*
X3095Y455D02*
X3176Y455D01*
X3595Y455D02*
X3676Y455D01*
X4095Y455D02*
X4176Y455D01*
X4595Y455D02*
X4676Y455D01*
X96Y454D02*
X176Y454D01*
X596Y454D02*
X676Y454D01*
X1095Y454D02*
X1176Y454D01*
X1595Y454D02*
X1676Y454D01*
X2095Y454D02*
X2176Y454D01*
X2595Y454D02*
X2675Y454D01*
X3095Y454D02*
X3175Y454D01*
X3595Y454D02*
X3675Y454D01*
X4095Y454D02*
X4175Y454D01*
X4595Y454D02*
X4675Y454D01*
X96Y453D02*
X175Y453D01*
X596Y453D02*
X675Y453D01*
X1096Y453D02*
X1175Y453D01*
X1596Y453D02*
X1675Y453D01*
X2096Y453D02*
X2175Y453D01*
X2596Y453D02*
X2675Y453D01*
X3096Y453D02*
X3175Y453D01*
X3596Y453D02*
X3675Y453D01*
X4095Y453D02*
X4175Y453D01*
X4595Y453D02*
X4675Y453D01*
X96Y452D02*
X175Y452D01*
X596Y452D02*
X675Y452D01*
X1096Y452D02*
X1175Y452D01*
X1596Y452D02*
X1675Y452D01*
X2096Y452D02*
X2175Y452D01*
X2596Y452D02*
X2675Y452D01*
X3096Y452D02*
X3175Y452D01*
X3596Y452D02*
X3675Y452D01*
X4096Y452D02*
X4175Y452D01*
X4596Y452D02*
X4675Y452D01*
X96Y451D02*
X175Y451D01*
X596Y451D02*
X675Y451D01*
X1096Y451D02*
X1175Y451D01*
X1596Y451D02*
X1675Y451D01*
X2096Y451D02*
X2175Y451D01*
X2596Y451D02*
X2675Y451D01*
X3096Y451D02*
X3175Y451D01*
X3596Y451D02*
X3675Y451D01*
X4096Y451D02*
X4175Y451D01*
X4596Y451D02*
X4675Y451D01*
X96Y450D02*
X175Y450D01*
X596Y450D02*
X675Y450D01*
X1096Y450D02*
X1175Y450D01*
X1596Y450D02*
X1675Y450D01*
X2096Y450D02*
X2175Y450D01*
X2596Y450D02*
X2675Y450D01*
X3096Y450D02*
X3175Y450D01*
X3596Y450D02*
X3675Y450D01*
X4096Y450D02*
X4175Y450D01*
X4596Y450D02*
X4674Y450D01*
X97Y449D02*
X174Y449D01*
X597Y449D02*
X674Y449D01*
X1097Y449D02*
X1174Y449D01*
X1597Y449D02*
X1674Y449D01*
X2097Y449D02*
X2174Y449D01*
X2597Y449D02*
X2674Y449D01*
X3097Y449D02*
X3174Y449D01*
X3596Y449D02*
X3674Y449D01*
X4096Y449D02*
X4174Y449D01*
X4596Y449D02*
X4674Y449D01*
X97Y448D02*
X174Y448D01*
X597Y448D02*
X674Y448D01*
X1097Y448D02*
X1174Y448D01*
X1597Y448D02*
X1674Y448D01*
X2097Y448D02*
X2174Y448D01*
X2597Y448D02*
X2674Y448D01*
X3097Y448D02*
X3174Y448D01*
X3597Y448D02*
X3674Y448D01*
X4097Y448D02*
X4174Y448D01*
X4597Y448D02*
X4674Y448D01*
X97Y447D02*
X174Y447D01*
X597Y447D02*
X674Y447D01*
X1097Y447D02*
X1174Y447D01*
X1597Y447D02*
X1674Y447D01*
X2097Y447D02*
X2174Y447D01*
X2597Y447D02*
X2674Y447D01*
X3097Y447D02*
X3174Y447D01*
X3597Y447D02*
X3674Y447D01*
X4097Y447D02*
X4174Y447D01*
X4597Y447D02*
X4674Y447D01*
X98Y446D02*
X173Y446D01*
X598Y446D02*
X673Y446D01*
X1098Y446D02*
X1173Y446D01*
X1598Y446D02*
X1673Y446D01*
X2098Y446D02*
X2173Y446D01*
X2598Y446D02*
X2673Y446D01*
X3098Y446D02*
X3173Y446D01*
X3598Y446D02*
X3673Y446D01*
X4097Y446D02*
X4173Y446D01*
X4597Y446D02*
X4673Y446D01*
X98Y445D02*
X173Y445D01*
X598Y445D02*
X673Y445D01*
X1098Y445D02*
X1173Y445D01*
X1598Y445D02*
X1673Y445D01*
X2098Y445D02*
X2173Y445D01*
X2598Y445D02*
X2673Y445D01*
X3098Y445D02*
X3173Y445D01*
X3598Y445D02*
X3673Y445D01*
X4098Y445D02*
X4173Y445D01*
X4598Y445D02*
X4673Y445D01*
X99Y444D02*
X173Y444D01*
X598Y444D02*
X673Y444D01*
X1098Y444D02*
X1173Y444D01*
X1598Y444D02*
X1673Y444D01*
X2098Y444D02*
X2173Y444D01*
X2598Y444D02*
X2672Y444D01*
X3098Y444D02*
X3172Y444D01*
X3598Y444D02*
X3672Y444D01*
X4098Y444D02*
X4172Y444D01*
X4598Y444D02*
X4672Y444D01*
X99Y443D02*
X172Y443D01*
X599Y443D02*
X672Y443D01*
X1099Y443D02*
X1172Y443D01*
X1599Y443D02*
X1672Y443D01*
X2099Y443D02*
X2172Y443D01*
X2599Y443D02*
X2672Y443D01*
X3099Y443D02*
X3172Y443D01*
X3599Y443D02*
X3672Y443D01*
X4099Y443D02*
X4172Y443D01*
X4599Y443D02*
X4672Y443D01*
X99Y442D02*
X172Y442D01*
X599Y442D02*
X672Y442D01*
X1099Y442D02*
X1172Y442D01*
X1599Y442D02*
X1672Y442D01*
X2099Y442D02*
X2172Y442D01*
X2599Y442D02*
X2672Y442D01*
X3099Y442D02*
X3171Y442D01*
X3599Y442D02*
X3671Y442D01*
X4099Y442D02*
X4171Y442D01*
X4599Y442D02*
X4671Y442D01*
X100Y441D02*
X171Y441D01*
X600Y441D02*
X671Y441D01*
X1100Y441D02*
X1171Y441D01*
X1600Y441D02*
X1671Y441D01*
X2100Y441D02*
X2171Y441D01*
X2600Y441D02*
X2671Y441D01*
X3100Y441D02*
X3171Y441D01*
X3600Y441D02*
X3671Y441D01*
X4100Y441D02*
X4171Y441D01*
X4600Y441D02*
X4671Y441D01*
X101Y440D02*
X170Y440D01*
X601Y440D02*
X670Y440D01*
X1101Y440D02*
X1170Y440D01*
X1601Y440D02*
X1670Y440D01*
X2101Y440D02*
X2170Y440D01*
X2601Y440D02*
X2670Y440D01*
X3100Y440D02*
X3170Y440D01*
X3600Y440D02*
X3670Y440D01*
X4100Y440D02*
X4170Y440D01*
X4600Y440D02*
X4670Y440D01*
X101Y439D02*
X170Y439D01*
X601Y439D02*
X670Y439D01*
X1101Y439D02*
X1170Y439D01*
X1601Y439D02*
X1670Y439D01*
X2101Y439D02*
X2170Y439D01*
X2601Y439D02*
X2670Y439D01*
X3101Y439D02*
X3170Y439D01*
X3601Y439D02*
X3670Y439D01*
X4101Y439D02*
X4170Y439D01*
X4601Y439D02*
X4670Y439D01*
X102Y438D02*
X169Y438D01*
X602Y438D02*
X669Y438D01*
X1102Y438D02*
X1169Y438D01*
X1602Y438D02*
X1669Y438D01*
X2102Y438D02*
X2169Y438D01*
X2602Y438D02*
X2669Y438D01*
X3102Y438D02*
X3169Y438D01*
X3602Y438D02*
X3669Y438D01*
X4102Y438D02*
X4169Y438D01*
X4602Y438D02*
X4669Y438D01*
X103Y437D02*
X169Y437D01*
X603Y437D02*
X668Y437D01*
X1103Y437D02*
X1168Y437D01*
X1603Y437D02*
X1668Y437D01*
X2102Y437D02*
X2168Y437D01*
X2602Y437D02*
X2668Y437D01*
X3102Y437D02*
X3168Y437D01*
X3602Y437D02*
X3668Y437D01*
X4102Y437D02*
X4168Y437D01*
X4602Y437D02*
X4668Y437D01*
X103Y436D02*
X168Y436D01*
X603Y436D02*
X668Y436D01*
X1103Y436D02*
X1168Y436D01*
X1603Y436D02*
X1668Y436D01*
X2103Y436D02*
X2168Y436D01*
X2603Y436D02*
X2668Y436D01*
X3103Y436D02*
X3168Y436D01*
X3603Y436D02*
X3668Y436D01*
X4103Y436D02*
X4168Y436D01*
X4603Y436D02*
X4668Y436D01*
X104Y435D02*
X167Y435D01*
X604Y435D02*
X667Y435D01*
X1104Y435D02*
X1167Y435D01*
X1604Y435D02*
X1667Y435D01*
X2104Y435D02*
X2167Y435D01*
X2604Y435D02*
X2667Y435D01*
X3104Y435D02*
X3167Y435D01*
X3604Y435D02*
X3667Y435D01*
X4104Y435D02*
X4167Y435D01*
X4604Y435D02*
X4667Y435D01*
X105Y434D02*
X166Y434D01*
X605Y434D02*
X666Y434D01*
X1105Y434D02*
X1166Y434D01*
X1605Y434D02*
X1666Y434D01*
X2105Y434D02*
X2166Y434D01*
X2605Y434D02*
X2666Y434D01*
X3105Y434D02*
X3166Y434D01*
X3605Y434D02*
X3666Y434D01*
X4105Y434D02*
X4166Y434D01*
X4605Y434D02*
X4666Y434D01*
X106Y433D02*
X165Y433D01*
X606Y433D02*
X665Y433D01*
X1106Y433D02*
X1165Y433D01*
X1606Y433D02*
X1665Y433D01*
X2106Y433D02*
X2165Y433D01*
X2606Y433D02*
X2665Y433D01*
X3106Y433D02*
X3165Y433D01*
X3606Y433D02*
X3665Y433D01*
X4106Y433D02*
X4165Y433D01*
X4606Y433D02*
X4665Y433D01*
X107Y432D02*
X164Y432D01*
X607Y432D02*
X664Y432D01*
X1107Y432D02*
X1164Y432D01*
X1607Y432D02*
X1664Y432D01*
X2107Y432D02*
X2164Y432D01*
X2607Y432D02*
X2664Y432D01*
X3107Y432D02*
X3164Y432D01*
X3607Y432D02*
X3664Y432D01*
X4106Y432D02*
X4164Y432D01*
X4606Y432D02*
X4664Y432D01*
X108Y431D02*
X163Y431D01*
X608Y431D02*
X663Y431D01*
X1108Y431D02*
X1163Y431D01*
X1608Y431D02*
X1663Y431D01*
X2108Y431D02*
X2163Y431D01*
X2608Y431D02*
X2663Y431D01*
X3108Y431D02*
X3163Y431D01*
X3608Y431D02*
X3663Y431D01*
X4108Y431D02*
X4163Y431D01*
X4608Y431D02*
X4663Y431D01*
X109Y430D02*
X162Y430D01*
X609Y430D02*
X662Y430D01*
X1109Y430D02*
X1162Y430D01*
X1609Y430D02*
X1662Y430D01*
X2109Y430D02*
X2162Y430D01*
X2609Y430D02*
X2662Y430D01*
X3109Y430D02*
X3162Y430D01*
X3609Y430D02*
X3662Y430D01*
X4109Y430D02*
X4162Y430D01*
X4609Y430D02*
X4662Y430D01*
X110Y429D02*
X161Y429D01*
X610Y429D02*
X661Y429D01*
X1110Y429D02*
X1161Y429D01*
X1610Y429D02*
X1661Y429D01*
X2110Y429D02*
X2161Y429D01*
X2610Y429D02*
X2661Y429D01*
X3110Y429D02*
X3161Y429D01*
X3610Y429D02*
X3661Y429D01*
X4110Y429D02*
X4161Y429D01*
X4610Y429D02*
X4661Y429D01*
X111Y428D02*
X160Y428D01*
X611Y428D02*
X660Y428D01*
X1111Y428D02*
X1160Y428D01*
X1611Y428D02*
X1660Y428D01*
X2111Y428D02*
X2160Y428D01*
X2611Y428D02*
X2660Y428D01*
X3111Y428D02*
X3160Y428D01*
X3611Y428D02*
X3660Y428D01*
X4111Y428D02*
X4159Y428D01*
X4611Y428D02*
X4659Y428D01*
X113Y427D02*
X158Y427D01*
X613Y427D02*
X658Y427D01*
X1113Y427D02*
X1158Y427D01*
X1613Y427D02*
X1658Y427D01*
X2113Y427D02*
X2158Y427D01*
X2613Y427D02*
X2658Y427D01*
X3113Y427D02*
X3158Y427D01*
X3613Y427D02*
X3658Y427D01*
X4113Y427D02*
X4158Y427D01*
X4613Y427D02*
X4658Y427D01*
X114Y426D02*
X157Y426D01*
X614Y426D02*
X657Y426D01*
X1114Y426D02*
X1157Y426D01*
X1614Y426D02*
X1657Y426D01*
X2114Y426D02*
X2157Y426D01*
X2614Y426D02*
X2657Y426D01*
X3114Y426D02*
X3157Y426D01*
X3614Y426D02*
X3657Y426D01*
X4114Y426D02*
X4157Y426D01*
X4614Y426D02*
X4657Y426D01*
X116Y425D02*
X155Y425D01*
X616Y425D02*
X655Y425D01*
X1116Y425D02*
X1155Y425D01*
X1616Y425D02*
X1655Y425D01*
X2116Y425D02*
X2155Y425D01*
X2616Y425D02*
X2655Y425D01*
X3116Y425D02*
X3155Y425D01*
X3616Y425D02*
X3655Y425D01*
X4116Y425D02*
X4155Y425D01*
X4616Y425D02*
X4655Y425D01*
X118Y424D02*
X153Y424D01*
X618Y424D02*
X653Y424D01*
X1118Y424D02*
X1153Y424D01*
X1618Y424D02*
X1653Y424D01*
X2118Y424D02*
X2153Y424D01*
X2618Y424D02*
X2653Y424D01*
X3118Y424D02*
X3153Y424D01*
X3618Y424D02*
X3653Y424D01*
X4118Y424D02*
X4153Y424D01*
X4618Y424D02*
X4653Y424D01*
X120Y423D02*
X151Y423D01*
X620Y423D02*
X651Y423D01*
X1120Y423D02*
X1151Y423D01*
X1620Y423D02*
X1651Y423D01*
X2120Y423D02*
X2151Y423D01*
X2620Y423D02*
X2651Y423D01*
X3120Y423D02*
X3151Y423D01*
X3620Y423D02*
X3651Y423D01*
X4120Y423D02*
X4151Y423D01*
X4620Y423D02*
X4651Y423D01*
X123Y422D02*
X148Y422D01*
X623Y422D02*
X648Y422D01*
X1123Y422D02*
X1148Y422D01*
X1623Y422D02*
X1648Y422D01*
X2123Y422D02*
X2148Y422D01*
X2623Y422D02*
X2648Y422D01*
X3123Y422D02*
X3148Y422D01*
X3623Y422D02*
X3648Y422D01*
X4122Y422D02*
X4148Y422D01*
X4622Y422D02*
X4648Y422D01*
X126Y421D02*
X145Y421D01*
X626Y421D02*
X645Y421D01*
X1126Y421D02*
X1145Y421D01*
X1626Y421D02*
X1645Y421D01*
X2126Y421D02*
X2145Y421D01*
X2626Y421D02*
X2645Y421D01*
X3126Y421D02*
X3145Y421D01*
X3626Y421D02*
X3645Y421D01*
X4126Y421D02*
X4145Y421D01*
X4626Y421D02*
X4645Y421D01*
X132Y420D02*
X140Y420D01*
X632Y420D02*
X639Y420D01*
X1132Y420D02*
X1140Y420D01*
X1632Y420D02*
X1639Y420D01*
X2131Y420D02*
X2140Y420D01*
X2631Y420D02*
X2639Y420D01*
X3131Y420D02*
X3139Y420D01*
X3632Y420D02*
X3639Y420D01*
X4131Y420D02*
X4139Y420D01*
X4631Y420D02*
X4639Y420D01*
D02*
G04 End of Mask1*
M02*